<svg width="34" height="30" viewBox="0 0 34 30" fill="none" xmlns="http://www.w3.org/2000/svg">
<path d="M31.5835 12.9167H6.87516L14.4377 3.8334C14.7913 3.40795 14.9614 2.85945 14.9106 2.30856C14.8598 1.75767 14.5923 1.24952 14.1668 0.895899C13.7414 0.542277 13.1929 0.372148 12.642 0.422939C12.0911 0.47373 11.583 0.741281 11.2293 1.16673L0.812663 13.6667C0.742581 13.7662 0.679911 13.8706 0.625163 13.9792C0.625163 14.0834 0.625163 14.1459 0.47933 14.2501C0.3849 14.4889 0.335457 14.7432 0.333496 15.0001C0.335457 15.2569 0.3849 15.5112 0.47933 15.7501C0.47933 15.8542 0.479329 15.9167 0.625163 16.0209C0.679911 16.1295 0.742581 16.234 0.812663 16.3334L11.2293 28.8334C11.4252 29.0686 11.6705 29.2577 11.9478 29.3873C12.225 29.5169 12.5274 29.5839 12.8335 29.5834C13.3203 29.5843 13.792 29.4148 14.1668 29.1042C14.3778 28.9293 14.5522 28.7145 14.68 28.4722C14.8078 28.2298 14.8865 27.9645 14.9117 27.6917C14.9369 27.4188 14.9079 27.1437 14.8266 26.882C14.7452 26.6203 14.6131 26.3772 14.4377 26.1667L6.87516 17.0834H31.5835C32.136 17.0834 32.6659 16.8639 33.0566 16.4732C33.4473 16.0825 33.6668 15.5526 33.6668 15.0001C33.6668 14.4475 33.4473 13.9176 33.0566 13.5269C32.6659 13.1362 32.136 12.9167 31.5835 12.9167Z" fill="black"/>
</svg>
