<svg width="22" height="20" viewBox="0 0 22 20" fill="none" xmlns="http://www.w3.org/2000/svg">
<path fill-rule="evenodd" clip-rule="evenodd" d="M1.85718 5.7473C1.09005 6.18885 0.624023 6.96322 0.624023 7.79635V17.3306C0.624023 18.6651 1.79871 19.747 3.24776 19.747H18.9902C20.4393 19.747 21.6139 18.6651 21.6139 17.3306V7.79635C21.6139 6.96322 21.1479 6.18886 20.3808 5.7473L12.5096 1.21665C11.6588 0.726936 10.5792 0.726936 9.72841 1.21665L1.85718 5.7473ZM5.28733 8.67375C4.68449 8.30362 3.86999 8.45364 3.46809 9.00883C3.0662 9.56402 3.2291 10.3141 3.83194 10.6843L10.3913 14.7115C10.8319 14.9821 11.406 14.9821 11.8467 14.7115L18.406 10.6843C19.0089 10.3141 19.1718 9.56402 18.7699 9.00883C18.368 8.45364 17.5535 8.30362 16.9506 8.67375L11.119 12.2542L5.28733 8.67375Z" fill="#424242"/>
</svg>
