<svg width="36" height="36" viewBox="0 0 36 36" fill="none" xmlns="http://www.w3.org/2000/svg">
<path d="M6 18C6 17.6022 6.15803 17.2206 6.43934 16.9393C6.72064 16.658 7.10217 16.5 7.5 16.5H18.885L15.435 13.065C15.2951 12.9251 15.1842 12.7591 15.1085 12.5764C15.0328 12.3936 14.9939 12.1978 14.9939 12C14.9939 11.8022 15.0328 11.6064 15.1085 11.4236C15.1842 11.2409 15.2951 11.0749 15.435 10.935C15.5749 10.7951 15.7409 10.6842 15.9236 10.6085C16.1064 10.5328 16.3022 10.4939 16.5 10.4939C16.6978 10.4939 16.8936 10.5328 17.0764 10.6085C17.2591 10.6842 17.4251 10.7951 17.565 10.935L23.565 16.935C23.7016 17.0777 23.8086 17.2459 23.88 17.43C24.03 17.7952 24.03 18.2048 23.88 18.57C23.8086 18.7541 23.7016 18.9223 23.565 19.065L17.565 25.065C17.4256 25.2056 17.2597 25.3172 17.0769 25.3933C16.8941 25.4695 16.698 25.5087 16.5 25.5087C16.302 25.5087 16.1059 25.4695 15.9231 25.3933C15.7403 25.3172 15.5744 25.2056 15.435 25.065C15.2944 24.9256 15.1828 24.7597 15.1067 24.5769C15.0305 24.3941 14.9913 24.198 14.9913 24C14.9913 23.802 15.0305 23.6059 15.1067 23.4231C15.1828 23.2403 15.2944 23.0744 15.435 22.935L18.885 19.5H7.5C7.10217 19.5 6.72064 19.342 6.43934 19.0607C6.15803 18.7794 6 18.3978 6 18ZM10.5 3H25.5C26.6935 3 27.8381 3.47411 28.682 4.31802C29.5259 5.16193 30 6.30653 30 7.5V28.5C30 29.6935 29.5259 30.8381 28.682 31.682C27.8381 32.5259 26.6935 33 25.5 33H10.5C9.30652 33 8.16193 32.5259 7.31802 31.682C6.4741 30.8381 6 29.6935 6 28.5V24C6 23.6022 6.15803 23.2206 6.43934 22.9393C6.72064 22.658 7.10217 22.5 7.5 22.5C7.89782 22.5 8.27935 22.658 8.56066 22.9393C8.84196 23.2206 9 23.6022 9 24V28.5C9 28.8978 9.15803 29.2794 9.43934 29.5607C9.72064 29.842 10.1022 30 10.5 30H25.5C25.8978 30 26.2794 29.842 26.5607 29.5607C26.842 29.2794 27 28.8978 27 28.5V7.5C27 7.10218 26.842 6.72064 26.5607 6.43934C26.2794 6.15804 25.8978 6 25.5 6H10.5C10.1022 6 9.72064 6.15804 9.43934 6.43934C9.15803 6.72064 9 7.10218 9 7.5V12C9 12.3978 8.84196 12.7794 8.56066 13.0607C8.27935 13.342 7.89782 13.5 7.5 13.5C7.10217 13.5 6.72064 13.342 6.43934 13.0607C6.15803 12.7794 6 12.3978 6 12V7.5C6 6.30653 6.4741 5.16193 7.31802 4.31802C8.16193 3.47411 9.30652 3 10.5 3Z" fill="black"/>
</svg>
