<svg width="28" height="28" viewBox="0 0 28 28" fill="none" xmlns="http://www.w3.org/2000/svg">
<path d="M5.25 26.25H15.75C16.214 26.2495 16.6588 26.0649 16.9868 25.7368C17.3149 25.4088 17.4995 24.964 17.5 24.5V21.875H15.75V24.5H5.25V3.5H15.75V6.125H17.5V3.5C17.4995 3.03603 17.3149 2.59122 16.9868 2.26315C16.6588 1.93508 16.214 1.75053 15.75 1.75H5.25C4.78603 1.75053 4.34122 1.93508 4.01315 2.26315C3.68508 2.59122 3.50053 3.03603 3.5 3.5V24.5C3.50053 24.964 3.68508 25.4088 4.01315 25.7368C4.34122 26.0649 4.78603 26.2495 5.25 26.25Z" fill="#0070BA"/>
<path d="M18.0127 18.0128L21.1505 14.875H8.75V13.125H21.1505L18.0127 9.98725L19.25 8.75L24.5 14L19.25 19.25L18.0127 18.0128Z" fill="#0070BA"/>
</svg>
