<svg width="35" height="25" viewBox="0 0 35 25" fill="none" xmlns="http://www.w3.org/2000/svg">
<path fill-rule="evenodd" clip-rule="evenodd" d="M2.1875 14.4699H8.75V24.2318C8.75 24.5296 8.50076 24.7711 8.20177 24.7711H2.73573C2.43295 24.7711 2.1875 24.5266 2.1875 24.2318V14.4699Z" fill="#595959"/>
<path fill-rule="evenodd" clip-rule="evenodd" d="M26.25 14.4699H32.8125V24.2318C32.8125 24.5296 32.5633 24.7711 32.2643 24.7711H26.7982C26.4954 24.7711 26.25 24.5266 26.25 24.2318V14.4699Z" fill="#595959"/>
<path fill-rule="evenodd" clip-rule="evenodd" d="M6.76545 4.67553C6.95539 3.79674 7.82894 2.92667 8.71869 2.75753C8.71869 2.75753 11.4844 2 17.5 2C23.5156 2 26.2896 2.759 26.2896 2.759C27.1738 2.93868 28.045 3.79842 28.2346 4.67553L29.5312 10.6747H5.46875L6.76545 4.67553Z" fill="#B4DFFB" stroke="#5B68C0" stroke-width="3.26196" stroke-linecap="round"/>
<path fill-rule="evenodd" clip-rule="evenodd" d="M2.03321 14.455C1.81641 11.7683 3.84587 9.59036 6.56191 9.59036H28.4382C31.1561 9.59036 33.1837 11.7681 32.9669 14.455L32.4837 20.4424C32.3633 21.9348 31.0529 23.0037 29.547 22.8474C29.547 22.8474 24.8829 22.2033 17.5 22.2033C10.1172 22.2033 5.44654 22.8481 5.44654 22.8481C3.94867 23.0118 2.63638 21.9298 2.51635 20.4424L2.03321 14.455Z" fill="#5B68C0"/>
<path d="M20.7812 15.5542H14.2188C13.3127 15.5542 12.5781 16.2824 12.5781 17.1807V18.2651C12.5781 19.1634 13.3127 19.8916 14.2188 19.8916H20.7812C21.6873 19.8916 22.4219 19.1634 22.4219 18.2651V17.1807C22.4219 16.2824 21.6873 15.5542 20.7812 15.5542Z" fill="#0A3586"/>
<path fill-rule="evenodd" clip-rule="evenodd" d="M4.92188 19.3494H10.9375V20.4337H4.92188V19.3494Z" fill="#FCC24C"/>
<path fill-rule="evenodd" clip-rule="evenodd" d="M24.6094 19.3494H30.625V20.4337H24.6094V19.3494Z" fill="#FCC24C"/>
<path fill-rule="evenodd" clip-rule="evenodd" d="M4.00715 15.535C3.90825 14.9468 4.31019 14.5568 4.90355 14.6637L8.76823 15.3604C9.3622 15.4674 9.8437 16.0355 9.8437 16.6385C9.8437 17.2374 9.35839 17.7229 8.75016 17.7229H5.46849C4.86455 17.7229 4.29426 17.2429 4.19589 16.6577L4.00715 15.535Z" fill="#FCC24C"/>
<path fill-rule="evenodd" clip-rule="evenodd" d="M30.9929 15.535C31.0918 14.9468 30.6898 14.5568 30.0964 14.6637L26.2318 15.3604C25.6378 15.4674 25.1563 16.0355 25.1563 16.6385C25.1563 17.2374 25.6416 17.7229 26.2498 17.7229H29.5315C30.1355 17.7229 30.7057 17.2429 30.8041 16.6577L30.9929 15.535Z" fill="#FCC24C"/>
<path fill-rule="evenodd" clip-rule="evenodd" d="M30.0781 7.71065C30.0781 7.11242 30.5501 6.75741 31.134 6.91822L35 7.98287V8.79863C35 9.39611 34.5101 9.88046 33.9077 9.88046H30.0781V7.71065Z" fill="#5B68C0"/>
<path fill-rule="evenodd" clip-rule="evenodd" d="M4.92188 7.71065C4.92188 7.11242 4.44994 6.75741 3.86601 6.91822L0 7.98287V8.79863C0 9.39611 0.489922 9.88046 1.09232 9.88046H4.92188V7.71065Z" fill="#5B68C0"/>
<path fill-rule="evenodd" clip-rule="evenodd" d="M14.7656 9.58923C14.7656 8.99099 15.2509 8.50602 15.8592 8.50602H19.1408C19.7448 8.50602 20.2344 8.99303 20.2344 9.58923V11.759H14.7656V9.58923Z" fill="#5B68C0"/>
</svg>
