<svg width="28" height="28" viewBox="0 0 28 28" fill="none" xmlns="http://www.w3.org/2000/svg">
<path d="M4.66667 15.1667H11.6667C12.3083 15.1667 12.8333 14.6417 12.8333 14V4.66667C12.8333 4.025 12.3083 3.5 11.6667 3.5H4.66667C4.025 3.5 3.5 4.025 3.5 4.66667V14C3.5 14.6417 4.025 15.1667 4.66667 15.1667ZM4.66667 24.5H11.6667C12.3083 24.5 12.8333 23.975 12.8333 23.3333V18.6667C12.8333 18.025 12.3083 17.5 11.6667 17.5H4.66667C4.025 17.5 3.5 18.025 3.5 18.6667V23.3333C3.5 23.975 4.025 24.5 4.66667 24.5ZM16.3333 24.5H23.3333C23.975 24.5 24.5 23.975 24.5 23.3333V14C24.5 13.3583 23.975 12.8333 23.3333 12.8333H16.3333C15.6917 12.8333 15.1667 13.3583 15.1667 14V23.3333C15.1667 23.975 15.6917 24.5 16.3333 24.5ZM15.1667 4.66667V9.33333C15.1667 9.975 15.6917 10.5 16.3333 10.5H23.3333C23.975 10.5 24.5 9.975 24.5 9.33333V4.66667C24.5 4.025 23.975 3.5 23.3333 3.5H16.3333C15.6917 3.5 15.1667 4.025 15.1667 4.66667Z" fill="black"/>
</svg>
