<svg width="53" height="36" viewBox="0 0 53 36" fill="none" xmlns="http://www.w3.org/2000/svg">
<g id="Aki Mobil 2" clip-path="url(#clip0_952_1171)">
<g id="Group">
<path id="Vector" d="M6.1909 35.4177L46.4859 35.4177L46.4859 12.5201L6.1909 12.5201L6.1909 35.4177Z" fill="#FFF057"/>
<path id="Vector_2" d="M11.5636 35.4177H6.19089V30.03H8.88265C10.3633 30.03 11.5636 31.2336 11.5636 32.7184V35.4177Z" fill="#5882A1"/>
<path id="Vector_3" d="M18.2794 3.02649V8.47926H20.9657V4.33273C20.9657 3.6143 21.5465 3.03187 22.2629 3.03187H30.4138C31.1302 3.03187 31.711 3.6143 31.711 4.33273V8.47926H34.3974V3.02649C34.3974 1.54169 33.1971 0.338043 31.7164 0.338043H20.9603C19.4797 0.338043 18.2794 1.54169 18.2794 3.02649Z" fill="#FFF057"/>
<path id="Vector_4" d="M10.1406 5.78546L14.1701 5.78546L14.1701 3.09164L10.1406 3.09164L10.1406 5.78546Z" fill="#ECF4FF"/>
<path id="Vector_5" d="M14.1701 3.09161H12.008V5.78544H14.1701V3.09161Z" fill="#D3EFFB"/>
<path id="Vector_6" d="M38.427 5.78546L42.4565 5.78546L42.4565 3.09164L38.427 3.09164L38.427 5.78546Z" fill="#ECF4FF"/>
<path id="Vector_7" d="M42.4565 3.09161H40.2944V5.78544H42.4565V3.09161Z" fill="#D3EFFB"/>
<path id="Vector_8" d="M8.79739 8.47925H15.5133L14.1701 5.78543H10.1406L8.79739 8.47925Z" fill="#FFF057"/>
<path id="Vector_9" d="M14.1701 5.78543L15.5132 8.47925H13.3512L12.008 5.78543H14.1701Z" fill="#FFD05A"/>
<path id="Vector_10" d="M37.0838 8.47925H43.7996L42.4565 5.78543H38.4269L37.0838 8.47925Z" fill="#FFF057"/>
<path id="Vector_11" d="M42.4565 5.78543L43.7996 8.47925H41.6376L40.2944 5.78543H42.4565Z" fill="#FFD05A"/>
<path id="Vector_12" d="M42.5942 14.2546H6.19089V12.5201H46.4859V35.4177H43.8915V15.5554C43.8915 14.837 43.3107 14.2546 42.5942 14.2546Z" fill="#FFD05A"/>
<path id="Vector_13" d="M26.3384 32.7239C30.7893 32.7239 34.3974 29.1057 34.3974 24.6424C34.3974 20.1791 30.7893 16.5608 26.3384 16.5608C21.8875 16.5608 18.2794 20.1791 18.2794 24.6424C18.2794 29.1057 21.8875 32.7239 26.3384 32.7239Z" fill="#5882A1"/>
<path id="Vector_14" d="M4.84774 12.5201L47.8291 12.5201L47.8291 8.47938L4.84774 8.47938L4.84774 12.5201Z" fill="#5882A1"/>
<path id="Vector_15" d="M47.8291 8.47925H45.2346V12.52H47.8291V8.47925Z" fill="#365E7D"/>
<path id="Vector_16" d="M19.6931 12.5201H47.8293V8.47961H4.84756V12.5201H16.866" stroke="black" stroke-miterlimit="10" stroke-linecap="round" stroke-linejoin="round"/>
<path id="Vector_17" d="M19.6931 12.5201H46.4862V21.8221" stroke="black" stroke-miterlimit="10" stroke-linecap="round" stroke-linejoin="round"/>
<path id="Vector_18" d="M46.4862 24.6571V35.4178H6.19064V12.5201H16.866" stroke="black" stroke-miterlimit="10" stroke-linecap="round" stroke-linejoin="round"/>
<path id="Vector_19" d="M14.17 3.09161H10.1406V5.78544H14.17V3.09161Z" stroke="black" stroke-miterlimit="10" stroke-linecap="round" stroke-linejoin="round"/>
<path id="Vector_20" d="M15.5133 8.47925H8.79739L10.1406 5.78543H14.1701L15.5133 8.47925Z" stroke="black" stroke-miterlimit="10" stroke-linecap="round" stroke-linejoin="round"/>
<path id="Vector_21" d="M42.4564 3.09161H38.4269V5.78544H42.4564V3.09161Z" stroke="black" stroke-miterlimit="10" stroke-linecap="round" stroke-linejoin="round"/>
<path id="Vector_22" d="M43.7996 8.47925H37.0838L38.4269 5.78543H42.4565L43.7996 8.47925Z" stroke="black" stroke-miterlimit="10" stroke-linecap="round" stroke-linejoin="round"/>
<path id="Vector_23" d="M26.3384 19.2546L22.3089 25.9893H26.3384V30.0301L30.3679 23.2955H26.3384V19.2546Z" fill="#FFD05A"/>
<path id="Vector_24" d="M26.3384 19.2546L22.3089 25.9893H26.3384V30.0301L30.3679 23.2955H26.3384V19.2546Z" stroke="black" stroke-miterlimit="10" stroke-linecap="round" stroke-linejoin="round"/>
<path id="Vector_25" d="M26.3384 32.7239C30.7893 32.7239 34.3974 29.1057 34.3974 24.6424C34.3974 20.1791 30.7893 16.5608 26.3384 16.5608C21.8875 16.5608 18.2794 20.1791 18.2794 24.6424C18.2794 29.1057 21.8875 32.7239 26.3384 32.7239Z" stroke="black" stroke-miterlimit="10" stroke-linecap="round" stroke-linejoin="round"/>
<path id="Vector_26" d="M12.1553 15.2139V19.2546" stroke="black" stroke-miterlimit="10" stroke-linecap="round" stroke-linejoin="round"/>
<path id="Vector_27" d="M38.5067 17.2343H42.5363" stroke="black" stroke-miterlimit="10" stroke-linecap="round" stroke-linejoin="round"/>
<path id="Vector_28" d="M10.1406 17.2343H14.1701" stroke="black" stroke-miterlimit="10" stroke-linecap="round" stroke-linejoin="round"/>
<path id="Vector_29" d="M27.7516 0.337952H31.7168C33.1973 0.337952 34.3977 1.54168 34.3977 3.0264V8.47961H31.7107V4.33246C31.7107 3.61439 31.1304 3.0316 30.4135 3.0316H22.2634C21.5464 3.0316 20.9662 3.61439 20.9662 4.33246V8.47961H18.2791V3.0264C18.2791 1.54168 19.4795 0.337952 20.9601 0.337952H24.9253" stroke="black" stroke-miterlimit="10" stroke-linecap="round" stroke-linejoin="round"/>
<path id="Vector_30" d="M46.4859 35.4177H41.1132V32.7184C41.1132 31.2336 42.3135 30.03 43.7942 30.03H46.4859V35.4177Z" fill="#5882A1"/>
<path id="Vector_31" d="M46.4859 30.0301H43.8915V35.4178H46.4859V30.0301Z" fill="#365E7D"/>
<path id="Vector_32" d="M6.19089 35.4177H11.5636V32.7184C11.5636 31.2336 10.3633 30.03 8.88265 30.03H6.19089V35.4177Z" stroke="black" stroke-miterlimit="10" stroke-linecap="round" stroke-linejoin="round"/>
<path id="Vector_33" d="M41.1132 35.4177H46.4859V30.03H43.7942C42.3135 30.03 41.1132 31.2336 41.1132 32.7184V35.4177Z" stroke="black" stroke-miterlimit="10" stroke-linecap="round" stroke-linejoin="round"/>
</g>
</g>
<defs>
<clipPath id="clip0_952_1171">
<rect width="53" height="35" fill="white" transform="translate(0 0.5)"/>
</clipPath>
</defs>
</svg>
