<svg width="40" height="40" viewBox="0 0 40 40" fill="none" xmlns="http://www.w3.org/2000/svg">
<g id="Filter Udara 1" clip-path="url(#clip0_952_1028)">
<g id="Group">
<g id="Group_2">
<g id="Group_3">
<path id="Vector" d="M38.0645 7.09677V17.4193H37.4193C37.0629 17.4193 36.7742 17.7081 36.7742 18.0645V21.2903H23.8709V20C23.8709 17.1492 18.6717 14.8387 12.258 14.8387C8.61206 14.8387 5.35883 15.5855 3.2298 16.7532L3.22577 16.746V7.09677H3.87093C4.22738 7.09677 4.51609 6.80806 4.51609 6.45161V3.2258H36.7742V6.45161C36.7742 6.80806 37.0629 7.09677 37.4193 7.09677H38.0645Z" fill="#CCD1D9"/>
</g>
<g id="Group_4">
<path id="Vector_2" d="M39.3548 18.0645V22.5806C39.3548 23.2935 38.7774 23.871 38.0645 23.871H23.871V21.2903H36.7742V18.0645C36.7742 17.7081 37.0629 17.4193 37.4194 17.4193H38.0645H38.7097C39.0661 17.4193 39.3548 17.7081 39.3548 18.0645Z" fill="#969FAA"/>
</g>
<g id="Group_5">
<path id="Vector_3" d="M39.3548 1.93548V6.45161C39.3548 6.80806 39.0661 7.09677 38.7097 7.09677H38.0645H37.4194C37.0629 7.09677 36.7742 6.80806 36.7742 6.45161V3.2258H4.51613V6.45161C4.51613 6.80806 4.22742 7.09677 3.87097 7.09677H3.22581H2.58065C2.2242 7.09677 1.93549 6.80806 1.93549 6.45161V1.93548C1.93549 1.22258 2.51291 0.645157 3.22581 0.645157H38.0645C38.7774 0.645157 39.3548 1.22258 39.3548 1.93548Z" fill="#969FAA"/>
</g>
<g id="Group_6">
<path id="Vector_4" d="M23.8709 31.6129V34.1935C23.8709 37.0444 18.6718 39.3548 12.258 39.3548C5.84434 39.3548 0.645142 37.0444 0.645142 34.1935V31.6129C0.645142 34.4637 5.84434 36.7742 12.258 36.7742C18.6718 36.7742 23.8709 34.4637 23.8709 31.6129Z" fill="#D3A06C"/>
</g>
<g id="Group_7">
<path id="Vector_5" d="M23.8709 20V21.2903V23.871V31.6129C23.8709 34.4637 18.6718 36.7742 12.258 36.7742C5.84434 36.7742 0.645142 34.4637 0.645142 31.6129V20C0.645142 22.8508 5.84434 25.1613 12.258 25.1613C18.6718 25.1613 23.8709 22.8508 23.8709 20Z" fill="#CF9E76"/>
</g>
<g id="Group_8">
<path id="Vector_6" d="M23.8709 20C23.8709 22.8508 18.6718 25.1613 12.258 25.1613C5.84434 25.1613 0.645142 22.8508 0.645142 20C0.645142 18.7693 1.61369 17.6395 3.22982 16.7532C5.35885 15.5855 8.61208 14.8387 12.258 14.8387C18.6718 14.8387 23.8709 17.1492 23.8709 20ZM21.2718 20C21.1419 19.7758 20.5516 19.1347 18.9605 18.5169C17.1371 17.8089 14.7564 17.4193 12.258 17.4193C9.75966 17.4193 7.37901 17.8089 5.55563 18.5169C3.9645 19.1347 3.37417 19.7758 3.24434 20C3.37417 20.2242 3.9645 20.8653 5.55563 21.4831C7.37901 22.1911 9.75966 22.5806 12.258 22.5806C14.7564 22.5806 17.1371 22.1911 18.9605 21.4831C20.5516 20.8653 21.1419 20.2242 21.2718 20Z" fill="#ECC19C"/>
</g>
</g>
<g id="Group_9">
<path id="Vector_7" d="M40 6.45161V1.93548C40 0.868306 39.1317 0 38.0645 0H3.22581C2.15863 0 1.29032 0.868306 1.29032 1.93548V6.45161C1.29032 7.16306 1.86919 7.74194 2.58065 7.74194V16.3828C0.90629 17.3897 0 18.6464 0 20V34.1935C0 35.8426 1.34403 37.3481 3.78452 38.4327C6.05855 39.4434 9.06782 40 12.2581 40C15.4483 40 18.4576 39.4434 20.7316 38.4327C23.1721 37.3481 24.5161 35.8426 24.5161 34.1935V24.5161H38.0645C39.1317 24.5161 40 23.6478 40 22.5806V18.0645C40 17.3531 39.4211 16.7742 38.7097 16.7742V7.74194C39.4211 7.74194 40 7.16306 40 6.45161ZM2.58065 1.93548C2.58065 1.57976 2.87008 1.29032 3.22581 1.29032H38.0645C38.4202 1.29032 38.7097 1.57976 38.7097 1.93548V6.45161H37.4194V2.58065H3.87097V6.45161H2.58065V1.93548ZM30.9677 20.6452V12.9032H33.5484V20.6452H30.9677ZM3.87097 15.7242V12.9032H6.45161V14.8644C5.52121 15.0953 4.65363 15.3831 3.87097 15.7242ZM7.74194 12.9032H10.3226V14.2643C9.43371 14.3287 8.56895 14.4367 7.74194 14.5872V12.9032ZM10.3226 3.87097V11.6129H7.74194V3.87097H10.3226ZM29.6774 3.87097V11.6129H27.0968V3.87097H29.6774ZM25.8064 11.6129H23.2258V3.87097H25.8064V11.6129ZM21.9355 11.6129H19.3548V3.87097H21.9355V11.6129ZM18.0645 11.6129H15.4839V3.87097H18.0645V11.6129ZM14.1935 11.6129H11.6129V3.87097H14.1935V11.6129ZM11.6129 12.9032H14.1935V14.2643C13.559 14.2183 12.9127 14.1935 12.2581 14.1935C12.0421 14.1935 11.8271 14.1966 11.6129 14.2017V12.9032ZM15.4839 12.9032H18.0645V14.8644C17.2477 14.6615 16.3827 14.5031 15.4839 14.3911V12.9032ZM19.3548 12.9032H21.9355V16.3828C21.5701 16.1631 21.1688 15.9552 20.7316 15.7608C20.2982 15.5682 19.8378 15.3923 19.3548 15.2334V12.9032ZM24.5161 20C24.5161 19.0505 24.0697 18.1489 23.2258 17.3475V12.9032H25.8064V20.6452H24.5161V20ZM27.0968 12.9032H29.6774V20.6452H27.0968V12.9032ZM30.9677 11.6129V3.87097H33.5484V11.6129H30.9677ZM5.16129 6.45161V3.87097H6.45161V11.6129H3.87097V7.74194C4.58242 7.74194 5.16129 7.16306 5.16129 6.45161ZM4.30855 16.94C6.42121 16.001 9.24444 15.4839 12.2581 15.4839C15.2717 15.4839 18.0949 16.001 20.2076 16.94C22.1257 17.7924 23.2258 18.9078 23.2258 20C23.2258 21.0922 22.1257 22.2076 20.2076 23.06C18.0949 23.999 15.2717 24.5161 12.2581 24.5161C9.24444 24.5161 6.42121 23.999 4.30855 23.06C2.3904 22.2076 1.29032 21.0922 1.29032 20C1.29032 18.9078 2.3904 17.7924 4.30855 16.94ZM19.3548 35.0148C18.5646 35.3011 17.6966 35.5345 16.7742 35.7131V25.4128C17.6858 25.2469 18.552 25.0306 19.3548 24.7665V35.0148ZM5.16129 24.7665C5.96411 25.0307 6.83032 25.247 7.74194 25.4128V35.7131C6.81952 35.5345 5.95153 35.301 5.16129 35.0148V24.7665ZM9.03226 25.6089C9.86782 25.7129 10.7315 25.7775 11.6129 25.7984V36.1204C10.7281 36.0985 9.86339 36.032 9.03226 35.9229V25.6089ZM12.9032 25.7983C13.7847 25.7774 14.6483 25.7128 15.4839 25.6088V35.9227C14.6527 36.0319 13.788 36.0984 12.9032 36.1202V25.7983ZM1.29032 22.6525C1.9121 23.2429 2.74919 23.779 3.78452 24.2391C3.81274 24.2517 3.8425 24.2633 3.87097 24.2757V34.4664C2.22444 33.6446 1.29032 32.619 1.29032 31.6129V22.6525ZM20.2076 37.2535C18.0949 38.1926 15.2717 38.7097 12.2581 38.7097C9.24444 38.7097 6.42121 38.1926 4.30855 37.2535C2.43371 36.4203 1.34113 35.336 1.29266 34.2676C1.91419 34.8572 2.75048 35.3924 3.78452 35.852C6.05855 36.8627 9.06782 37.4194 12.2581 37.4194C15.4483 37.4194 18.4576 36.8627 20.7316 35.852C21.7656 35.3925 22.6019 34.8572 23.2235 34.2676C23.175 35.336 22.0824 36.4204 20.2076 37.2535ZM20.6452 34.4664V24.2758C20.6736 24.2634 20.7034 24.2518 20.7316 24.2392C21.7669 23.7791 22.604 23.243 23.2258 22.6526V31.6129C23.2258 32.619 22.2917 33.6446 20.6452 34.4664ZM38.7097 22.5806C38.7097 22.9364 38.4202 23.2258 38.0645 23.2258H24.5161V21.9355H37.4194V18.0645H38.7097V22.5806ZM36.129 18.0645V20.6452H34.8387V12.9032H37.4194V16.7742C36.7079 16.7742 36.129 17.3531 36.129 18.0645ZM37.4194 11.6129H34.8387V3.87097H36.129V6.45161C36.129 7.16306 36.7079 7.74194 37.4194 7.74194V11.6129Z" fill="black"/>
<path id="Vector_8" d="M5.32233 22.0844C7.21846 22.8205 9.68161 23.2258 12.2581 23.2258C14.8345 23.2258 17.2977 22.8205 19.1938 22.0844C21.1289 21.3332 21.7008 20.5464 21.8299 20.3231L22.0168 20L21.8299 19.6769C21.7007 19.4536 21.1289 18.6669 19.1938 17.9156C17.2977 17.1795 14.8345 16.7742 12.2581 16.7742C9.68161 16.7742 7.21846 17.1795 5.32233 17.9156C3.38717 18.6669 2.81532 19.4536 2.6862 19.6769L2.49927 20L2.68612 20.3231C2.81532 20.5463 3.38717 21.3331 5.32233 22.0844ZM5.78935 19.1185C7.54007 18.4389 9.83741 18.0645 12.2581 18.0645C14.6787 18.0645 16.976 18.4389 18.7268 19.1185C19.5816 19.4502 20.0906 19.7723 20.379 19.9999C20.0905 20.2277 19.5814 20.5498 18.7268 20.8815C16.976 21.5611 14.6787 21.9355 12.2581 21.9355C9.83741 21.9355 7.54007 21.5611 5.78935 20.8815C4.93451 20.5498 4.42548 20.2277 4.13709 20.0001C4.42564 19.7723 4.93467 19.4502 5.78935 19.1185Z" fill="black"/>
</g>
</g>
</g>
<defs>
<clipPath id="clip0_952_1028">
<rect width="40" height="40" fill="white"/>
</clipPath>
</defs>
</svg>
