<svg width="25" height="32" viewBox="0 0 25 32" fill="none" xmlns="http://www.w3.org/2000/svg">
<path d="M24.1632 22.3842L24.1656 22.3811C23.0561 21.2714 21.6477 19.6536 21.6477 14.9892C21.6477 14.9806 21.6472 14.9733 21.6472 14.965V11.3677C21.6472 7.00577 18.5935 3.35943 14.5075 2.44396C14.508 2.42641 14.5103 2.40917 14.5103 2.39145C14.5103 1.28133 13.6102 0.381226 12.5002 0.381226C11.3901 0.381226 10.49 1.28133 10.49 2.39145C10.49 2.40917 10.4922 2.42641 10.4925 2.44412C6.40654 3.35942 3.35264 7.00577 3.35264 11.3677V14.9892C3.35264 19.6535 1.94409 21.2714 0.834594 22.3811L0.836947 22.3839C0.32334 22.8604 0 23.539 0 24.2949C0 25.7359 1.16828 26.904 2.60895 26.904H22.3911C23.8319 26.904 25 25.7359 25 24.2949C25.0002 23.5393 24.6767 22.8604 24.1632 22.3842Z" fill="white"/>
<path d="M15.4339 27.6704H9.56652C9.2866 27.6704 9.02329 27.8027 8.85622 28.0276C8.68914 28.2522 8.6382 28.5423 8.71908 28.8105C9.20823 30.4351 10.7161 31.6188 12.5004 31.6188C14.2846 31.6188 15.7922 30.4351 16.2815 28.8105C16.3624 28.5423 16.311 28.252 16.1442 28.0276C15.9771 27.8027 15.7138 27.6704 15.4339 27.6704Z" fill="white"/>
</svg>