<svg width="40" height="40" viewBox="0 0 40 40" fill="none" xmlns="http://www.w3.org/2000/svg">
<g id="Cakram 1">
<g id="Brake-disc-part">
<path id="Vector" d="M38.125 16.875L36.6797 18.0797L34.375 20L31.2703 16.875C30.6872 15.1281 29.7065 13.5404 28.4057 12.2368C27.1048 10.9332 25.5191 9.9493 23.7734 9.3625L21.25 6.875L22.9078 4H22.9086L23.7734 2.5C31.25 2.5 38.125 9.375 38.125 16.875ZM35.625 13.75C35.625 13.5028 35.5517 13.2611 35.4143 13.0555C35.277 12.85 35.0818 12.6898 34.8534 12.5951C34.6249 12.5005 34.3736 12.4758 34.1311 12.524C33.8887 12.5722 33.6659 12.6913 33.4911 12.8661C33.3163 13.0409 33.1972 13.2637 33.149 13.5061C33.1008 13.7486 33.1255 13.9999 33.2201 14.2284C33.3148 14.4568 33.475 14.652 33.6805 14.7893C33.8861 14.9267 34.1278 15 34.375 15C34.7065 15 35.0245 14.8683 35.2589 14.6339C35.4933 14.3995 35.625 14.0815 35.625 13.75ZM28.125 6.25C28.125 6.00277 28.0517 5.7611 27.9143 5.55554C27.777 5.34998 27.5818 5.18976 27.3534 5.09515C27.1249 5.00054 26.8736 4.97579 26.6311 5.02402C26.3887 5.07225 26.1659 5.1913 25.9911 5.36612C25.8163 5.54093 25.6972 5.76366 25.649 6.00614C25.6008 6.24861 25.6255 6.49995 25.7202 6.72835C25.8148 6.95676 25.975 7.15199 26.1805 7.28934C26.3861 7.42669 26.6278 7.5 26.875 7.5C27.2065 7.5 27.5245 7.3683 27.7589 7.13388C27.9933 6.89946 28.125 6.58152 28.125 6.25Z" fill="#FFD44C"/>
<path id="Vector_2" d="M34.7078 16.8594C34.4799 16.1747 34.1899 15.5123 33.8414 14.8805C33.6271 14.7794 33.4459 14.6195 33.319 14.4193C33.1922 14.2191 33.1249 13.987 33.125 13.75V13.7406C31.6684 11.687 29.5976 10.1486 27.2109 9.34688L24.6875 6.85938L26.3453 3.98438H26.3461L26.9633 2.91406C25.9219 2.64089 24.85 2.50175 23.7734 2.5L22.9086 4H22.9078L21.25 6.875L23.7734 9.3625C25.5191 9.9493 27.1048 10.9332 28.4057 12.2368C29.7065 13.5404 30.6872 15.1281 31.2703 16.875L34.375 20L36.2641 18.4258L34.7078 16.8594Z" fill="#FFBA0D"/>
<path id="Vector_3" d="M36.6852 18.0867C36.8118 18.9269 36.8753 19.7754 36.875 20.625C36.875 29.9445 29.3195 37.5 20 37.5C10.6805 37.5 3.125 29.9445 3.125 20.625C3.125 11.3055 10.6805 3.75 20 3.75C20.9747 3.74936 21.9476 3.833 22.9078 4L21.25 6.875L23.7734 9.3625C25.5191 9.9493 27.1048 10.9332 28.4057 12.2368C29.7065 13.5404 30.6872 15.1281 31.2703 16.875L34.375 20L36.6797 18.0797L36.6852 18.0867ZM29.375 20.625C29.375 18.7708 28.8252 16.9582 27.795 15.4165C26.7649 13.8748 25.3007 12.6732 23.5877 11.9636C21.8746 11.2541 19.9896 11.0684 18.171 11.4301C16.3525 11.7919 14.682 12.6848 13.3709 13.9959C12.0598 15.307 11.1669 16.9775 10.8051 18.796C10.4434 20.6146 10.6291 22.4996 11.3386 24.2127C12.0482 25.9257 13.2498 27.3899 14.7915 28.42C16.3332 29.4502 18.1458 30 20 30C22.4864 29.9999 24.8709 29.0121 26.629 27.254C28.3871 25.4959 29.3749 23.1114 29.375 20.625Z" fill="#D1D3D4"/>
<path id="Vector_4" d="M7.5 20.625C7.5 12.0461 13.9023 4.96172 22.1898 3.89063C21.4637 3.79671 20.7322 3.74973 20 3.75C10.6805 3.75 3.125 11.3055 3.125 20.625C3.125 29.9445 10.6805 37.5 20 37.5C20.7315 37.5004 21.4622 37.4532 22.1875 37.3586C13.9016 36.2867 7.5 29.2031 7.5 20.625Z" fill="#BCBEC0"/>
<path id="Vector_5" d="M34.375 15C35.0654 15 35.625 14.4404 35.625 13.75C35.625 13.0596 35.0654 12.5 34.375 12.5C33.6846 12.5 33.125 13.0596 33.125 13.75C33.125 14.4404 33.6846 15 34.375 15Z" fill="#FFBA0D"/>
<path id="Vector_6" d="M26.875 7.5C27.5654 7.5 28.125 6.94036 28.125 6.25C28.125 5.55964 27.5654 5 26.875 5C26.1846 5 25.625 5.55964 25.625 6.25C25.625 6.94036 26.1846 7.5 26.875 7.5Z" fill="#FFBA0D"/>
<path id="Vector_7" d="M20 11.25C21.8542 11.25 23.6668 11.7998 25.2085 12.83C26.7502 13.8601 27.9518 15.3243 28.6614 17.0373C29.3709 18.7504 29.5566 20.6354 29.1949 22.454C28.8331 24.2725 27.9402 25.943 26.6291 27.2541C25.318 28.5652 23.6475 29.4581 21.829 29.8199C20.0104 30.1816 18.1254 29.9959 16.4123 29.2864C14.6993 28.5768 13.2351 27.3752 12.205 25.8335C11.1748 24.2918 10.625 22.4792 10.625 20.625C10.6251 18.1386 11.6129 15.7541 13.371 13.996C15.1291 12.2379 17.5136 11.2501 20 11.25ZM26.875 20.625C26.875 19.2653 26.4718 17.936 25.7164 16.8055C24.9609 15.6749 23.8872 14.7937 22.6309 14.2733C21.3747 13.753 19.9924 13.6168 18.6588 13.8821C17.3251 14.1474 16.1001 14.8022 15.1386 15.7636C14.1772 16.7251 13.5224 17.9501 13.2571 19.2838C12.9918 20.6174 13.128 21.9997 13.6483 23.2559C14.1687 24.5122 15.0499 25.5859 16.1805 26.3414C17.311 27.0968 18.6403 27.5 20 27.5C21.8234 27.5 23.572 26.7757 24.8614 25.4864C26.1507 24.197 26.875 22.4484 26.875 20.625Z" fill="#414042"/>
<path id="Vector_8" d="M20 13.75C21.3597 13.75 22.689 14.1532 23.8195 14.9086C24.9501 15.6641 25.8313 16.7378 26.3517 17.9941C26.872 19.2503 27.0082 20.6326 26.7429 21.9662C26.4776 23.2999 25.8228 24.5249 24.8614 25.4864C23.8999 26.4478 22.6749 27.1026 21.3412 27.3679C20.0076 27.6332 18.6253 27.497 17.3691 26.9767C16.1128 26.4563 15.0391 25.5751 14.2836 24.4445C13.5282 23.314 13.125 21.9847 13.125 20.625C13.125 18.8016 13.8493 17.053 15.1386 15.7636C16.428 14.4743 18.1766 13.75 20 13.75ZM24.375 20.625C24.375 20.3778 24.3017 20.1361 24.1643 19.9305C24.027 19.725 23.8318 19.5648 23.6034 19.4702C23.3749 19.3755 23.1236 19.3508 22.8811 19.399C22.6387 19.4472 22.4159 19.5663 22.2411 19.7411C22.0663 19.9159 21.9472 20.1387 21.899 20.3811C21.8508 20.6236 21.8755 20.8749 21.9701 21.1034C22.0648 21.3318 22.225 21.527 22.4305 21.6643C22.6361 21.8017 22.8778 21.875 23.125 21.875C23.4565 21.875 23.7745 21.7433 24.0089 21.5089C24.2433 21.2745 24.375 20.9565 24.375 20.625ZM21.25 17.5C21.25 17.2528 21.1767 17.0111 21.0393 16.8055C20.902 16.6 20.7068 16.4398 20.4784 16.3452C20.2499 16.2505 19.9986 16.2258 19.7561 16.274C19.5137 16.3222 19.2909 16.4413 19.1161 16.6161C18.9413 16.7909 18.8222 17.0137 18.774 17.2561C18.7258 17.4986 18.7505 17.7499 18.8452 17.9784C18.9398 18.2068 19.1 18.402 19.3055 18.5393C19.5111 18.6767 19.7528 18.75 20 18.75C20.3315 18.75 20.6495 18.6183 20.8839 18.3839C21.1183 18.1495 21.25 17.8315 21.25 17.5ZM21.25 23.75C21.25 23.5028 21.1767 23.2611 21.0393 23.0555C20.902 22.85 20.7068 22.6898 20.4784 22.5951C20.2499 22.5005 19.9986 22.4758 19.7561 22.524C19.5137 22.5722 19.2909 22.6913 19.1161 22.8661C18.9413 23.0409 18.8222 23.2637 18.774 23.5061C18.7258 23.7486 18.7505 23.9999 18.8452 24.2284C18.9398 24.4568 19.1 24.652 19.3055 24.7893C19.5111 24.9267 19.7528 25 20 25C20.3315 25 20.6495 24.8683 20.8839 24.6339C21.1183 24.3995 21.25 24.0815 21.25 23.75ZM18.125 20.625C18.125 20.3778 18.0517 20.1361 17.9143 19.9305C17.777 19.725 17.5818 19.5648 17.3534 19.4702C17.1249 19.3755 16.8736 19.3508 16.6311 19.399C16.3887 19.4472 16.1659 19.5663 15.9911 19.7411C15.8163 19.9159 15.6972 20.1387 15.649 20.3811C15.6008 20.6236 15.6255 20.8749 15.7202 21.1034C15.8148 21.3318 15.975 21.527 16.1805 21.6643C16.3861 21.8017 16.6278 21.875 16.875 21.875C17.2065 21.875 17.5245 21.7433 17.7589 21.5089C17.9933 21.2745 18.125 20.9565 18.125 20.625Z" fill="#808285"/>
<path id="Vector_9" d="M15.6257 20.625C15.6259 19.0184 16.1885 17.4625 17.216 16.2274C18.2435 14.9923 19.671 14.1559 21.2507 13.8633C20.2592 13.681 19.2397 13.7191 18.2646 13.9747C17.2894 14.2303 16.3824 14.6973 15.6078 15.3425C14.8332 15.9877 14.2099 16.7953 13.7822 17.7082C13.3545 18.6211 13.1328 19.6169 13.1328 20.625C13.1328 21.6331 13.3545 22.6289 13.7822 23.5418C14.2099 24.4547 14.8332 25.2623 15.6078 25.9075C16.3824 26.5527 17.2894 27.0197 18.2646 27.2753C19.2397 27.5309 20.2592 27.569 21.2507 27.3867C19.671 27.0941 18.2435 26.2577 17.216 25.0226C16.1885 23.7875 15.6259 22.2316 15.6257 20.625Z" fill="#626466"/>
<path id="Vector_10" d="M23.125 21.875C23.8154 21.875 24.375 21.3154 24.375 20.625C24.375 19.9346 23.8154 19.375 23.125 19.375C22.4346 19.375 21.875 19.9346 21.875 20.625C21.875 21.3154 22.4346 21.875 23.125 21.875Z" fill="#D1D3D4"/>
<path id="Vector_11" d="M20 18.75C20.6904 18.75 21.25 18.1904 21.25 17.5C21.25 16.8096 20.6904 16.25 20 16.25C19.3096 16.25 18.75 16.8096 18.75 17.5C18.75 18.1904 19.3096 18.75 20 18.75Z" fill="#D1D3D4"/>
<path id="Vector_12" d="M20 25C20.6904 25 21.25 24.4404 21.25 23.75C21.25 23.0596 20.6904 22.5 20 22.5C19.3096 22.5 18.75 23.0596 18.75 23.75C18.75 24.4404 19.3096 25 20 25Z" fill="#D1D3D4"/>
<path id="Vector_13" d="M16.875 21.875C17.5654 21.875 18.125 21.3154 18.125 20.625C18.125 19.9346 17.5654 19.375 16.875 19.375C16.1846 19.375 15.625 19.9346 15.625 20.625C15.625 21.3154 16.1846 21.875 16.875 21.875Z" fill="#D1D3D4"/>
<g id="Group">
<path id="Vector_14" d="M23.7733 1.875C23.6636 1.87496 23.5557 1.90382 23.4607 1.95868C23.3656 2.01354 23.2867 2.09246 23.2318 2.1875L22.582 3.31469C21.7271 3.18832 20.864 3.12492 19.9999 3.125C16.5387 3.12503 13.1553 4.1514 10.2775 6.07433C7.39963 7.99725 5.15663 10.7304 3.83211 13.9281C2.50759 17.1257 2.16103 20.6444 2.83626 24.039C3.51149 27.4337 5.17818 30.5519 7.62557 32.9993C10.073 35.4467 13.1912 37.1134 16.5858 37.7886C19.9805 38.4638 23.4991 38.1173 26.6968 36.7928C29.8945 35.4682 32.6276 33.2252 34.5505 30.3474C36.4735 27.4696 37.4998 24.0862 37.4999 20.625C37.4998 19.8588 37.45 19.0934 37.3508 18.3336L38.525 17.3551C38.5954 17.2964 38.652 17.223 38.6909 17.1401C38.7297 17.0571 38.7499 16.9666 38.7499 16.875C38.7499 9.02453 31.6115 1.875 23.7733 1.875ZM36.2499 20.625C36.2499 29.5852 28.9601 36.875 19.9999 36.875C11.0396 36.875 3.74986 29.5852 3.74986 20.625C3.74986 11.6648 11.0396 4.375 19.9999 4.375C20.6369 4.37525 21.2734 4.4125 21.9061 4.48656L20.7085 6.5625C20.6394 6.6823 20.612 6.82162 20.6306 6.95865C20.6491 7.09568 20.7126 7.22268 20.8111 7.31977L23.3346 9.80727C23.4024 9.87412 23.4846 9.9246 23.5749 9.95484C25.2277 10.5125 26.7289 11.4453 27.9611 12.6801C29.1933 13.9148 30.1228 15.418 30.6771 17.072C30.7075 17.1636 30.7587 17.2468 30.8267 17.3153L33.9315 20.4403C34.0417 20.5513 34.1895 20.6169 34.3457 20.6243C34.5019 20.6316 34.6551 20.5801 34.7753 20.48L36.1952 19.2963C36.2312 19.7378 36.2499 20.1819 36.2499 20.625ZM34.4147 19.1533L31.8156 16.5372C31.1941 14.754 30.1787 13.1338 28.8446 11.7972C27.5106 10.4606 25.8924 9.44204 24.1104 8.81719L22.0323 6.76891L23.4491 4.3125L22.9081 4L23.4499 4.3125L24.1311 3.13094C27.4163 3.23375 30.7429 4.74641 33.3108 7.31703C35.8978 9.9068 37.4124 13.2696 37.4964 16.5856L34.4147 19.1533Z" fill="#062D42"/>
<path id="Vector_15" d="M20 10.625C18.0222 10.625 16.0888 11.2115 14.4443 12.3103C12.7998 13.4091 11.5181 14.9709 10.7612 16.7982C10.0043 18.6254 9.8063 20.6361 10.1922 22.5759C10.578 24.5157 11.5304 26.2975 12.9289 27.6961C14.3275 29.0946 16.1093 30.047 18.0491 30.4329C19.9889 30.8187 21.9996 30.6207 23.8268 29.8638C25.6541 29.1069 27.2159 27.8252 28.3147 26.1807C29.4135 24.5362 30 22.6028 30 20.625C29.997 17.9737 28.9425 15.4319 27.0678 13.5572C25.1931 11.6825 22.6513 10.628 20 10.625ZM20 29.375C18.2694 29.375 16.5777 28.8618 15.1388 27.9004C13.6998 26.9389 12.5783 25.5723 11.9161 23.9735C11.2538 22.3746 11.0805 20.6153 11.4181 18.918C11.7558 17.2206 12.5891 15.6615 13.8128 14.4378C15.0365 13.2141 16.5956 12.3807 18.293 12.0431C19.9903 11.7055 21.7496 11.8788 23.3485 12.5411C24.9473 13.2033 26.3139 14.3248 27.2754 15.7638C28.2368 17.2027 28.75 18.8944 28.75 20.625C28.7474 22.9448 27.8247 25.1689 26.1843 26.8093C24.5439 28.4497 22.3198 29.3724 20 29.375Z" fill="#062D42"/>
<path id="Vector_16" d="M20 13.125C18.5166 13.125 17.0666 13.5649 15.8332 14.389C14.5999 15.2131 13.6386 16.3844 13.0709 17.7549C12.5032 19.1253 12.3547 20.6333 12.6441 22.0882C12.9335 23.543 13.6478 24.8794 14.6967 25.9283C15.7456 26.9772 17.082 27.6915 18.5368 27.9809C19.9917 28.2703 21.4997 28.1218 22.8701 27.5541C24.2406 26.9864 25.4119 26.0251 26.236 24.7918C27.0601 23.5584 27.5 22.1084 27.5 20.625C27.4978 18.6366 26.7069 16.7302 25.3008 15.3242C23.8948 13.9181 21.9884 13.1272 20 13.125ZM20 26.875C18.7639 26.875 17.5555 26.5084 16.5277 25.8217C15.4999 25.1349 14.6988 24.1588 14.2258 23.0168C13.7527 21.8747 13.6289 20.6181 13.8701 19.4057C14.1113 18.1933 14.7065 17.0797 15.5806 16.2056C16.4547 15.3315 17.5683 14.7362 18.7807 14.4951C19.9931 14.2539 21.2497 14.3777 22.3918 14.8508C23.5338 15.3238 24.5099 16.1249 25.1967 17.1527C25.8834 18.1805 26.25 19.3889 26.25 20.625C26.2481 22.282 25.589 23.8706 24.4173 25.0423C23.2456 26.214 21.657 26.8731 20 26.875Z" fill="#062D42"/>
<path id="Vector_17" d="M20 19.375C20.3708 19.375 20.7334 19.265 21.0417 19.059C21.35 18.853 21.5904 18.5601 21.7323 18.2175C21.8742 17.8749 21.9113 17.4979 21.839 17.1342C21.7666 16.7705 21.588 16.4364 21.3258 16.1742C21.0636 15.912 20.7295 15.7334 20.3658 15.661C20.0021 15.5887 19.6251 15.6258 19.2825 15.7677C18.9399 15.9096 18.647 16.15 18.441 16.4583C18.235 16.7666 18.125 17.1292 18.125 17.5C18.1256 17.9971 18.3233 18.4737 18.6748 18.8252C19.0263 19.1767 19.5029 19.3744 20 19.375ZM20 16.875C20.1236 16.875 20.2444 16.9117 20.3472 16.9803C20.45 17.049 20.5301 17.1466 20.5774 17.2608C20.6247 17.375 20.6371 17.5007 20.613 17.6219C20.5889 17.7432 20.5294 17.8545 20.4419 17.9419C20.3545 18.0294 20.2432 18.0889 20.1219 18.113C20.0007 18.1371 19.875 18.1247 19.7608 18.0774C19.6466 18.0301 19.549 17.95 19.4803 17.8472C19.4117 17.7445 19.375 17.6236 19.375 17.5C19.3752 17.3343 19.4411 17.1754 19.5583 17.0583C19.6754 16.9411 19.8343 16.8752 20 16.875Z" fill="#062D42"/>
<path id="Vector_18" d="M20 21.875C19.6292 21.875 19.2666 21.985 18.9583 22.191C18.65 22.397 18.4096 22.6899 18.2677 23.0325C18.1258 23.3751 18.0887 23.7521 18.161 24.1158C18.2334 24.4795 18.412 24.8136 18.6742 25.0758C18.9364 25.338 19.2705 25.5166 19.6342 25.589C19.9979 25.6613 20.3749 25.6242 20.7175 25.4823C21.0601 25.3404 21.353 25.1 21.559 24.7917C21.765 24.4834 21.875 24.1208 21.875 23.75C21.8744 23.2529 21.6767 22.7763 21.3252 22.4248C20.9737 22.0733 20.4971 21.8756 20 21.875ZM20 24.375C19.8764 24.375 19.7556 24.3383 19.6528 24.2697C19.55 24.201 19.4699 24.1034 19.4226 23.9892C19.3753 23.875 19.3629 23.7493 19.387 23.6281C19.4111 23.5068 19.4707 23.3955 19.5581 23.3081C19.6455 23.2206 19.7568 23.1611 19.8781 23.137C19.9993 23.1129 20.125 23.1253 20.2392 23.1726C20.3534 23.2199 20.451 23.3 20.5197 23.4028C20.5883 23.5056 20.625 23.6264 20.625 23.75C20.6248 23.9157 20.5589 24.0746 20.4417 24.1917C20.3246 24.3089 20.1657 24.3748 20 24.375Z" fill="#062D42"/>
<path id="Vector_19" d="M18.75 20.625C18.75 20.2542 18.64 19.8916 18.434 19.5833C18.228 19.275 17.9351 19.0346 17.5925 18.8927C17.2499 18.7508 16.8729 18.7137 16.5092 18.786C16.1455 18.8584 15.8114 19.037 15.5492 19.2992C15.287 19.5614 15.1084 19.8955 15.036 20.2592C14.9637 20.6229 15.0008 20.9999 15.1427 21.3425C15.2846 21.6851 15.525 21.978 15.8333 22.184C16.1416 22.39 16.5042 22.5 16.875 22.5C17.3721 22.4994 17.8487 22.3017 18.2002 21.9502C18.5517 21.5987 18.7494 21.1221 18.75 20.625ZM16.875 21.25C16.7514 21.25 16.6306 21.2133 16.5278 21.1447C16.425 21.076 16.3449 20.9784 16.2976 20.8642C16.2503 20.75 16.2379 20.6243 16.262 20.5031C16.2861 20.3818 16.3457 20.2705 16.4331 20.1831C16.5205 20.0957 16.6318 20.0361 16.7531 20.012C16.8743 19.9879 17 20.0003 17.1142 20.0476C17.2284 20.0949 17.326 20.175 17.3947 20.2778C17.4633 20.3806 17.5 20.5014 17.5 20.625C17.4998 20.7907 17.4339 20.9496 17.3167 21.0667C17.1996 21.1839 17.0407 21.2498 16.875 21.25Z" fill="#062D42"/>
<path id="Vector_20" d="M21.25 20.625C21.25 20.9958 21.36 21.3584 21.566 21.6667C21.772 21.975 22.0649 22.2154 22.4075 22.3573C22.7501 22.4992 23.1271 22.5363 23.4908 22.464C23.8545 22.3916 24.1886 22.213 24.4508 21.9508C24.713 21.6886 24.8916 21.3545 24.964 20.9908C25.0363 20.6271 24.9992 20.2501 24.8573 19.9075C24.7154 19.5649 24.475 19.272 24.1667 19.066C23.8584 18.86 23.4958 18.75 23.125 18.75C22.6279 18.7506 22.1513 18.9483 21.7998 19.2998C21.4483 19.6513 21.2506 20.1279 21.25 20.625ZM23.75 20.625C23.75 20.7486 23.7133 20.8694 23.6447 20.9722C23.576 21.075 23.4784 21.1551 23.3642 21.2024C23.25 21.2497 23.1243 21.2621 23.0031 21.238C22.8818 21.2139 22.7705 21.1544 22.6831 21.0669C22.5956 20.9795 22.5361 20.8682 22.512 20.7469C22.4879 20.6257 22.5003 20.5 22.5476 20.3858C22.5949 20.2716 22.675 20.174 22.7778 20.1053C22.8806 20.0367 23.0014 20 23.125 20C23.2907 20.0002 23.4496 20.0661 23.5667 20.1833C23.6839 20.3004 23.7498 20.4593 23.75 20.625Z" fill="#062D42"/>
<path id="Vector_21" d="M13.9316 10.1837L18.9309 5.18445L19.8147 6.0682L14.8154 11.0675L13.9316 10.1837Z" fill="#062D42"/>
<path id="Vector_22" d="M4.55469 21.6906L5.43844 20.8068L10.4377 25.8061L9.55395 26.6898L4.55469 21.6906Z" fill="#062D42"/>
<path id="Vector_23" d="M20.1777 35.1816L25.177 30.1824L26.0607 31.0661L21.0615 36.0654L20.1777 35.1816Z" fill="#062D42"/>
<path id="Vector_24" d="M7.5 11.875H8.75V13.125H7.5V11.875Z" fill="#062D42"/>
<path id="Vector_25" d="M7.5 14.375H8.75V15.625H7.5V14.375Z" fill="#062D42"/>
<path id="Vector_26" d="M7.5 16.875H8.75V18.125H7.5V16.875Z" fill="#062D42"/>
<path id="Vector_27" d="M11.25 31.875H12.5V33.125H11.25V31.875Z" fill="#062D42"/>
<path id="Vector_28" d="M13.75 31.875H15V33.125H13.75V31.875Z" fill="#062D42"/>
<path id="Vector_29" d="M16.25 31.875H17.5V33.125H16.25V31.875Z" fill="#062D42"/>
<path id="Vector_30" d="M31.25 23.125H32.5V24.375H31.25V23.125Z" fill="#062D42"/>
<path id="Vector_31" d="M31.25 25.625H32.5V26.875H31.25V25.625Z" fill="#062D42"/>
<path id="Vector_32" d="M31.25 28.125H32.5V29.375H31.25V28.125Z" fill="#062D42"/>
<path id="Vector_33" d="M26.875 4.375C26.5042 4.375 26.1416 4.48497 25.8333 4.69099C25.525 4.89702 25.2846 5.18986 25.1427 5.53247C25.0008 5.87508 24.9637 6.25208 25.036 6.61579C25.1084 6.97951 25.287 7.3136 25.5492 7.57583C25.8114 7.83805 26.1455 8.01663 26.5092 8.08897C26.8729 8.16132 27.2499 8.12419 27.5925 7.98227C27.9351 7.84036 28.228 7.60004 28.434 7.29169C28.64 6.98335 28.75 6.62084 28.75 6.25C28.7494 5.75289 28.5517 5.2763 28.2002 4.92479C27.8487 4.57328 27.3721 4.37556 26.875 4.375ZM26.875 6.875C26.7514 6.875 26.6306 6.83834 26.5278 6.76967C26.425 6.70099 26.3449 6.60338 26.2976 6.48918C26.2503 6.37497 26.2379 6.24931 26.262 6.12807C26.2861 6.00683 26.3457 5.89547 26.4331 5.80806C26.5205 5.72065 26.6318 5.66112 26.7531 5.63701C26.8743 5.61289 27 5.62527 27.1142 5.67258C27.2284 5.71988 27.326 5.79999 27.3947 5.90277C27.4633 6.00555 27.5 6.12639 27.5 6.25C27.4998 6.4157 27.4339 6.57457 27.3167 6.69174C27.1996 6.80891 27.0407 6.87481 26.875 6.875Z" fill="#062D42"/>
<path id="Vector_34" d="M32.5 13.75C32.5 14.1208 32.61 14.4834 32.816 14.7917C33.022 15.1 33.3149 15.3404 33.6575 15.4823C34.0001 15.6242 34.3771 15.6613 34.7408 15.589C35.1045 15.5166 35.4386 15.338 35.7008 15.0758C35.963 14.8136 36.1416 14.4795 36.214 14.1158C36.2863 13.7521 36.2492 13.3751 36.1073 13.0325C35.9654 12.6899 35.725 12.397 35.4167 12.191C35.1084 11.985 34.7458 11.875 34.375 11.875C33.8779 11.8756 33.4013 12.0733 33.0498 12.4248C32.6983 12.7763 32.5006 13.2529 32.5 13.75ZM34.375 13.125C34.4986 13.125 34.6194 13.1617 34.7222 13.2303C34.825 13.299 34.9051 13.3966 34.9524 13.5108C34.9997 13.625 35.0121 13.7507 34.988 13.8719C34.9639 13.9932 34.9044 14.1045 34.8169 14.1919C34.7295 14.2794 34.6182 14.3389 34.4969 14.363C34.3757 14.3871 34.25 14.3747 34.1358 14.3274C34.0216 14.2801 33.924 14.2 33.8553 14.0972C33.7867 13.9945 33.75 13.8736 33.75 13.75C33.7502 13.5843 33.8161 13.4254 33.9333 13.3083C34.0504 13.1911 34.2093 13.1252 34.375 13.125Z" fill="#062D42"/>
<path id="Vector_35" d="M30 8.125H31.25V9.375H30V8.125Z" fill="#062D42"/>
<path id="Vector_36" d="M31.25 9.375H32.5V10.625H31.25V9.375Z" fill="#062D42"/>
</g>
</g>
</g>
</svg>
