<svg width="39" height="37" viewBox="0 0 39 37" fill="none" xmlns="http://www.w3.org/2000/svg">
<g id="Kampas Rem 1" clip-path="url(#clip0_952_1125)">
<g id="Group">
<g id="Group_2">
<g id="Group_3">
<path id="Vector" d="M30.1589 14.2898C30.5898 15.6213 30.8226 17.0349 30.8226 18.5C30.8226 20.8476 30.2274 23.0631 29.1721 25.0183C27.6845 24.6788 25.5922 24.4677 23.2742 24.4677C22.7914 24.4677 22.3188 24.4767 21.8596 24.4946C23.5085 22.9765 24.5322 20.8513 24.5322 18.5C24.5322 13.8854 20.5898 10.1452 15.7258 10.1452C10.8618 10.1452 6.91935 13.8854 6.91935 18.5C6.91935 22.9139 10.5268 26.5281 15.0968 26.8339V27.4248C10.9334 28.0626 8.17741 29.1726 8.17741 30.4355V30.9047C3.66568 28.4288 0.629028 23.8008 0.629028 18.5C0.629028 10.5898 7.38798 4.17741 15.7258 4.17741C17.2701 4.17741 18.7601 4.39822 20.1636 4.80701L22.9597 7.45967L22.0161 8.35483L26.4193 12.5323L27.3629 11.6371L30.1589 14.2898Z" fill="#FCD770"/>
</g>
<g id="Group_4">
<path id="Vector_2" d="M34.4301 5.14196C34.5386 5.57984 34.5968 6.03563 34.5968 6.50484C34.5968 8.07137 33.941 9.57375 32.7726 10.6823L31.4516 11.9355L32.3189 12.7583C32.4439 12.8769 32.5414 13.0171 32.6082 13.1693C32.6743 13.3215 32.7097 13.4856 32.7097 13.6535C32.7097 14.0033 32.5603 14.3196 32.3189 14.5486C32.0775 14.7776 31.7441 14.9194 31.3753 14.9194C31.0215 14.9194 30.6818 14.7858 30.4318 14.5486L30.1589 14.2898L27.3629 11.6371L29.5645 9.54839L29.9105 9.22016L33.0556 6.23629C33.6398 5.68204 33.9677 4.93085 33.9677 4.14758C33.9677 4.06254 33.9638 3.97825 33.9559 3.8947C34.1612 4.28782 34.3208 4.70557 34.4301 5.14196Z" fill="#E9573F"/>
</g>
<g id="Group_5">
<path id="Vector_3" d="M31.1206 1.20473C31.0325 1.19728 30.9437 1.19355 30.854 1.19355C30.4412 1.19355 30.0371 1.27113 29.6628 1.41808C29.2885 1.56504 28.9449 1.78137 28.6524 2.05887L25.5073 5.04274L25.1613 5.37097L22.9597 7.45968L20.1636 4.80701L19.8908 4.54816C19.7658 4.42955 19.6683 4.28931 19.6014 4.13713C19.5354 3.98496 19.5 3.82084 19.5 3.653C19.5 3.30314 19.6494 2.98685 19.8908 2.75784C20.1322 2.52883 20.4656 2.38709 20.8343 2.38709C21.1882 2.38709 21.5278 2.52062 21.7779 2.75784L22.6452 3.58064L23.9661 2.32742C24.5503 1.77316 25.2383 1.3405 25.9869 1.04659C26.7354 0.751933 27.5437 0.596771 28.3694 0.596771C29.3577 0.596771 30.291 0.81534 31.1206 1.20473Z" fill="#E9573F"/>
</g>
<g id="Group_6">
<path id="Vector_4" d="M33.956 3.89469C33.9638 3.97824 33.9677 4.06253 33.9677 4.14757C33.9677 4.93084 33.6399 5.68203 33.0557 6.23628L29.9105 9.22015C30.4947 8.6659 30.8226 7.91471 30.8226 7.13145C30.8226 6.31536 30.4743 5.57685 29.9105 5.04274C29.3475 4.50788 28.5691 4.17741 27.7089 4.17741C27.2961 4.17741 26.8919 4.25499 26.5176 4.40195C26.1434 4.54891 25.7998 4.76524 25.5073 5.04274L28.6524 2.05887C28.9449 1.78137 29.2885 1.56503 29.6628 1.41808C30.0371 1.27112 30.4412 1.19354 30.854 1.19354C30.9437 1.19354 31.0325 1.19727 31.1206 1.20473C31.8746 1.26441 32.5516 1.57995 33.0557 2.05887C33.5604 2.53703 33.8931 3.17931 33.956 3.89469Z" fill="#FC6E51"/>
</g>
<g id="Group_7">
<path id="Vector_5" d="M30.8226 7.13145C30.8226 7.91471 30.4947 8.6659 29.9105 9.22016L29.5645 9.54838L27.3629 11.6371L26.4193 12.5323L22.0161 8.35483L22.9597 7.45967L25.1613 5.37096L25.5072 5.04274C25.7997 4.76524 26.1434 4.54891 26.5176 4.40195C26.8919 4.25499 27.2961 4.17741 27.7089 4.17741C28.5691 4.17741 29.3475 4.50788 29.9105 5.04274C30.4742 5.57685 30.8226 6.31536 30.8226 7.13145Z" fill="#FF826E"/>
</g>
<g id="Group_8">
<path id="Vector_6" d="M24.5322 18.5C24.5322 20.8513 23.5085 22.9765 21.8596 24.4946C18.017 24.6415 15.0968 25.3756 15.0968 26.2581V26.8339C10.5268 26.5281 6.91934 22.9139 6.91934 18.5C6.91934 13.8854 10.8618 10.1452 15.7258 10.1452C20.5898 10.1452 24.5322 13.8854 24.5322 18.5ZM19.5 18.5C19.5 16.5224 17.8102 14.9194 15.7258 14.9194C13.6413 14.9194 11.9516 16.5224 11.9516 18.5C11.9516 20.4776 13.6413 22.0806 15.7258 22.0806C17.8102 22.0806 19.5 20.4776 19.5 18.5Z" fill="#FFEAA7"/>
</g>
<g id="Group_9">
<path id="Vector_7" d="M15.7258 14.9193C17.8102 14.9193 19.5 16.5224 19.5 18.5C19.5 20.4775 17.8102 22.0806 15.7258 22.0806C13.6413 22.0806 11.9516 20.4775 11.9516 18.5C11.9516 16.5224 13.6413 14.9193 15.7258 14.9193ZM16.9839 18.5C16.9839 17.8406 16.4209 17.3064 15.7258 17.3064C15.0307 17.3064 14.4677 17.8406 14.4677 18.5C14.4677 19.1594 15.0307 19.6935 15.7258 19.6935C16.4209 19.6935 16.9839 19.1594 16.9839 18.5Z" fill="#CCD1D9"/>
</g>
<g id="Group_10">
<path id="Vector_8" d="M38.371 30.4355V32.8226C38.371 34.8001 31.612 36.4032 23.2742 36.4032C14.9364 36.4032 8.17743 34.8001 8.17743 32.8226V30.9047C8.24112 30.9405 8.30559 30.9748 8.37007 31.0091C9.5267 32.7137 15.7596 34.0161 23.2742 34.0161C31.612 34.0161 38.371 32.413 38.371 30.4355Z" fill="#AAB2BD"/>
</g>
<g id="Group_11">
<path id="Vector_9" d="M8.37007 31.0091C8.24348 30.8226 8.17743 30.6309 8.17743 30.4355C8.17743 29.1726 10.9334 28.0626 15.0968 27.4248V28.6452C15.0968 29.6336 18.7577 30.4355 23.2742 30.4355C27.7907 30.4355 31.4516 29.6336 31.4516 28.6452V27.4248C35.615 28.0626 38.371 29.1726 38.371 30.4355C38.371 32.413 31.612 34.0161 23.2742 34.0161C15.7596 34.0161 9.5267 32.7137 8.37007 31.0091Z" fill="#CCD1D9"/>
</g>
<g id="Group_12">
<path id="Vector_10" d="M31.4516 26.2581V27.4248V28.6452C31.4516 29.6336 27.7906 30.4355 23.2742 30.4355C18.7577 30.4355 15.0968 29.6336 15.0968 28.6452V27.4248V26.8339V26.2581C15.0968 27.2465 18.7577 28.0484 23.2742 28.0484C27.7906 28.0484 31.4516 27.2465 31.4516 26.2581Z" fill="#AAB2BD"/>
</g>
<g id="Group_13">
<path id="Vector_11" d="M21.8597 24.4946C22.3188 24.4767 22.7914 24.4677 23.2742 24.4677C25.5922 24.4677 27.6845 24.6789 29.1722 25.0183C30.5835 25.3405 31.4516 25.7769 31.4516 26.2581C31.4516 27.2465 27.7906 28.0484 23.2742 28.0484C18.7577 28.0484 15.0968 27.2465 15.0968 26.2581C15.0968 25.3756 18.0171 24.6416 21.8597 24.4946Z" fill="#CCD1D9"/>
</g>
</g>
<g id="Group_14">
<path id="Vector_12" d="M15.7258 22.6774C18.1538 22.6774 20.129 20.8034 20.129 18.5C20.129 16.1966 18.1538 14.3226 15.7258 14.3226C13.2978 14.3226 11.3226 16.1966 11.3226 18.5C11.3226 20.8034 13.2978 22.6774 15.7258 22.6774ZM15.7258 15.5161C17.46 15.5161 18.871 16.8547 18.871 18.5C18.871 20.1453 17.46 21.4839 15.7258 21.4839C13.9916 21.4839 12.5806 20.1453 12.5806 18.5C12.5806 16.8547 13.9916 15.5161 15.7258 15.5161Z" fill="black"/>
<path id="Vector_13" d="M32.0806 26.9206V26.2581C32.0806 25.4995 31.2355 24.9819 30.0664 24.6286C30.985 22.702 31.4516 20.6441 31.4516 18.5C31.4516 17.4881 31.3444 16.4845 31.1329 15.5016C31.2127 15.5108 31.2936 15.5161 31.3753 15.5161C32.4579 15.5161 33.3387 14.6805 33.3387 13.6534C33.3387 13.1558 33.1344 12.6881 32.7637 12.3362L32.3411 11.9355L33.2176 11.104C34.5126 9.87542 35.2258 8.24197 35.2258 6.50454C35.2258 5.53396 35.0048 4.60091 34.5699 3.72902C34.368 2.10512 33.0069 0.813851 31.2952 0.622286C30.3762 0.209692 29.3927 0 28.3697 0C26.5384 0 24.8166 0.676593 23.5216 1.90513L22.6452 2.73666L22.2228 2.33592C21.8519 1.98413 21.3589 1.79032 20.8344 1.79032C19.7518 1.79032 18.871 2.62596 18.871 3.65308C18.871 3.73058 18.8766 3.80727 18.8863 3.88299C17.8504 3.68232 16.7924 3.58065 15.7258 3.58065C7.0546 3.58065 0 10.2735 0 18.5C0 23.7106 2.87743 28.542 7.54839 31.2444V32.8226C7.54839 34.1159 9.19637 35.1625 12.4466 35.9334C15.3464 36.6212 19.1918 37 23.2742 37C27.3566 37 31.202 36.6212 34.1018 35.9334C37.352 35.1625 39 34.1159 39 32.8226V30.4355C39 28.5076 35.3556 27.4666 32.0806 26.9206ZM37.7419 30.4355C37.7419 30.8132 36.9111 31.6498 33.7966 32.3884C30.9938 33.0532 27.2568 33.4194 23.2742 33.4194C19.2916 33.4194 15.5546 33.0532 12.7517 32.3884C9.63732 31.6498 8.80645 30.8132 8.80645 30.4355C8.80645 29.8868 10.3319 28.8517 14.4677 28.1337V28.6452C14.4677 30.9653 22.3728 31.0323 23.2742 31.0323C24.1756 31.0323 32.0806 30.9653 32.0806 28.6452V28.1337C36.2165 28.8517 37.7419 29.8868 37.7419 30.4355ZM18.871 34.4604V35.6508C18.0011 35.5875 17.1595 35.5053 16.3548 35.4052V34.2212C17.1621 34.3186 18.0035 34.3987 18.871 34.4604ZM20.129 34.536C20.9513 34.5767 21.7921 34.6015 22.6452 34.6096V35.8032C21.7909 35.7948 20.95 35.7696 20.129 35.7281V34.536ZM23.9032 34.6096C24.7563 34.6014 25.5971 34.5766 26.4194 34.536V35.7281C25.5984 35.7696 24.7575 35.7948 23.9032 35.8032V34.6096ZM27.6774 34.4604C28.5449 34.3987 29.3863 34.3186 30.1935 34.2211V35.4051C29.3889 35.5053 28.5473 35.5875 27.6774 35.6508V34.4604ZM15.7258 27.6136C17.9944 28.6075 22.599 28.6452 23.2742 28.6452C23.9494 28.6452 28.554 28.6075 30.8226 27.6136V28.603C30.7156 28.7371 30.1542 29.0926 28.5768 29.3994C27.1204 29.6827 25.2372 29.8387 23.2742 29.8387C21.3111 29.8387 19.428 29.6827 17.9716 29.3994C16.3942 29.0926 15.8328 28.7371 15.7258 28.603V27.6136ZM28.5768 27.0123C27.1204 27.2956 25.2372 27.4516 23.2742 27.4516C21.3111 27.4516 19.428 27.2956 17.9716 27.0123C16.5384 26.7335 15.9439 26.4146 15.767 26.2581C15.9439 26.1016 16.5385 25.7825 17.9716 25.5038C19.428 25.2205 21.3111 25.0645 23.2742 25.0645C25.2372 25.0645 27.1204 25.2205 28.5768 25.5038C30.0099 25.7826 30.6045 26.1016 30.7814 26.2581C30.6045 26.4146 30.0099 26.7336 28.5768 27.0123ZM32.328 10.26L30.5621 11.9355L31.8741 13.1802C32.0073 13.3066 32.0807 13.4746 32.0807 13.6534C32.0807 14.0223 31.7643 14.3226 31.3753 14.3226C31.1869 14.3226 31.0099 14.253 30.8766 14.1266L28.2525 11.6371L30.3555 9.64201C30.3558 9.64178 30.356 9.64156 30.3562 9.64134L33.5007 6.65814C33.6708 6.49678 33.822 6.32238 33.9542 6.13767C33.9629 6.25919 33.9677 6.38146 33.9677 6.50454C33.9677 7.92315 33.3854 9.25686 32.328 10.26ZM25.9523 5.46459C26.4215 5.01939 27.0454 4.77419 27.709 4.77419C29.079 4.77419 30.1935 5.8316 30.1935 7.1313C30.1935 7.7606 29.9353 8.35223 29.4665 8.79735L29.1197 9.12639L26.4194 11.6883L22.9057 8.35484L25.9523 5.46459ZM33.3387 4.14743C33.3387 4.77703 33.0803 5.36895 32.611 5.81415L31.4445 6.92087C31.3335 5.13039 29.8181 3.69262 27.9308 3.58743L29.0974 2.48072C29.5666 2.03552 30.1906 1.79032 30.8542 1.79032C32.2241 1.79032 33.3387 2.84773 33.3387 4.14743ZM20.8344 2.98387C21.0228 2.98387 21.1999 3.05347 21.3332 3.17984L22.6452 4.42463L24.4112 2.74911C25.4686 1.74601 26.8744 1.19355 28.3697 1.19355C28.4995 1.19355 28.6284 1.19817 28.7564 1.20638C28.5618 1.33193 28.3779 1.47538 28.2079 1.63673L24.7166 4.94897L22.9597 6.61569L20.3357 4.12625C20.2025 3.99988 20.129 3.83181 20.129 3.65308C20.129 3.28405 20.4454 2.98387 20.8344 2.98387ZM1.25806 18.5C1.25806 10.9316 7.74826 4.77419 15.7258 4.77419C17.1227 4.77419 18.503 4.96345 19.8313 5.33568L22.0701 7.45968L21.1265 8.35484L26.4194 13.3762L27.3629 12.481L29.6018 14.6051C29.9941 15.8653 30.1935 17.1748 30.1935 18.5C30.1935 20.5446 29.7335 22.5038 28.8266 24.3308C26.5369 23.8932 23.7924 23.871 23.2768 23.871C24.5001 22.3313 25.1613 20.4678 25.1613 18.5C25.1613 13.5641 20.9285 9.54839 15.7258 9.54839C10.5231 9.54839 6.29032 13.5641 6.29032 18.5C6.29032 21.6857 8.09785 24.6568 11.0076 26.2537L11.6376 25.2205C9.11531 23.8363 7.54839 21.2611 7.54839 18.5C7.54839 14.2222 11.2167 10.7419 15.7258 10.7419C20.2349 10.7419 23.9032 14.2222 23.9032 18.5C23.9032 20.5438 23.0805 22.4581 21.5819 23.9147C18.988 24.0376 14.4677 24.5035 14.4677 26.2581V26.9206C11.5173 27.4125 8.26721 28.3061 7.65194 29.888C3.68094 27.3495 1.25806 23.0848 1.25806 18.5ZM8.80645 32.8226V32.2038C9.42149 32.5892 10.2608 32.9384 11.3226 33.25V34.3825C9.37392 33.7586 8.80645 33.1344 8.80645 32.8226ZM12.5806 34.7338V33.5774C13.3581 33.7574 14.2008 33.9159 15.0968 34.051V35.2291C14.2609 35.0985 13.475 34.947 12.7517 34.7755C12.6934 34.7617 12.6374 34.7478 12.5806 34.7338ZM31.4516 35.2291V34.051C32.3476 33.9159 33.1903 33.7574 33.9677 33.5774V34.7338C33.911 34.7478 33.855 34.7617 33.7966 34.7755C33.0733 34.9471 32.2874 35.0985 31.4516 35.2291ZM35.2258 34.3825V33.25C36.2876 32.9384 37.1269 32.5892 37.7419 32.2038V32.8226C37.7419 33.1344 37.1745 33.7586 35.2258 34.3825Z" fill="black"/>
<path id="Vector_14" d="M15.7258 20.2903C16.7663 20.2903 17.6129 19.4872 17.6129 18.5C17.6129 17.5128 16.7663 16.7097 15.7258 16.7097C14.6853 16.7097 13.8387 17.5128 13.8387 18.5C13.8387 19.4872 14.6853 20.2903 15.7258 20.2903ZM15.7258 17.9032C16.0726 17.9032 16.3548 18.1709 16.3548 18.5C16.3548 18.829 16.0726 19.0968 15.7258 19.0968C15.379 19.0968 15.0968 18.829 15.0968 18.5C15.0968 18.1709 15.379 17.9032 15.7258 17.9032Z" fill="black"/>
<path id="Vector_15" d="M15.7258 13.129C16.0732 13.129 16.3548 12.8618 16.3548 12.5323C16.3548 12.2027 16.0732 11.9355 15.7258 11.9355C15.3784 11.9355 15.0968 12.2027 15.0968 12.5323C15.0968 12.8618 15.3784 13.129 15.7258 13.129Z" fill="black"/>
<path id="Vector_16" d="M11.2779 14.877C11.6253 14.877 11.907 14.6098 11.907 14.2802C11.907 13.9506 11.6253 13.6834 11.2779 13.6834C10.9305 13.6834 10.6489 13.9506 10.6489 14.2802C10.6489 14.6098 10.9305 14.877 11.2779 14.877Z" fill="black"/>
<path id="Vector_17" d="M9.43549 19.0968C9.78289 19.0968 10.0645 18.8296 10.0645 18.5C10.0645 18.1704 9.78289 17.9032 9.43549 17.9032C9.08808 17.9032 8.80646 18.1704 8.80646 18.5C8.80646 18.8296 9.08808 19.0968 9.43549 19.0968Z" fill="black"/>
<path id="Vector_18" d="M11.2779 23.3166C11.6253 23.3166 11.907 23.0494 11.907 22.7198C11.907 22.3902 11.6253 22.123 11.2779 22.123C10.9305 22.123 10.6489 22.3902 10.6489 22.7198C10.6489 23.0494 10.9305 23.3166 11.2779 23.3166Z" fill="black"/>
<path id="Vector_19" d="M20.1737 23.3166C20.5211 23.3166 20.8027 23.0494 20.8027 22.7198C20.8027 22.3902 20.5211 22.123 20.1737 22.123C19.8263 22.123 19.5446 22.3902 19.5446 22.7198C19.5446 23.0494 19.8263 23.3166 20.1737 23.3166Z" fill="black"/>
<path id="Vector_20" d="M22.0161 19.0968C22.3635 19.0968 22.6451 18.8296 22.6451 18.5C22.6451 18.1704 22.3635 17.9032 22.0161 17.9032C21.6687 17.9032 21.3871 18.1704 21.3871 18.5C21.3871 18.8296 21.6687 19.0968 22.0161 19.0968Z" fill="black"/>
<path id="Vector_21" d="M20.1737 14.877C20.5211 14.877 20.8027 14.6098 20.8027 14.2802C20.8027 13.9506 20.5211 13.6834 20.1737 13.6834C19.8263 13.6834 19.5446 13.9506 19.5446 14.2802C19.5446 14.6098 19.8263 14.877 20.1737 14.877Z" fill="black"/>
<path id="Vector_22" d="M28.3065 7.16129C28.6539 7.16129 28.9355 6.89411 28.9355 6.56452C28.9355 6.23493 28.6539 5.96774 28.3065 5.96774C27.9591 5.96774 27.6774 6.23493 27.6774 6.56452C27.6774 6.89411 27.9591 7.16129 28.3065 7.16129Z" fill="black"/>
<path id="Vector_23" d="M24.7124 8.77751L25.6019 7.93367L26.8597 9.12702L25.9703 9.97086L24.7124 8.77751Z" fill="black"/>
<path id="Vector_24" d="M7.82062 27.0042C5.24905 24.851 3.77421 21.7513 3.77421 18.5H2.51614C2.51614 22.0936 4.14605 25.5194 6.98809 27.8991L7.82062 27.0042Z" fill="black"/>
<path id="Vector_25" d="M4.01321 16.2316L2.78031 15.9941C2.69217 16.4059 2.62525 16.8275 2.5813 17.2474L3.83323 17.3654C3.87302 16.9855 3.93356 16.604 4.01321 16.2316Z" fill="black"/>
</g>
</g>
</g>
<defs>
<clipPath id="clip0_952_1125">
<rect width="39" height="37" fill="white"/>
</clipPath>
</defs>
</svg>
