<svg width="216" height="167" viewBox="0 0 216 167" fill="none" xmlns="http://www.w3.org/2000/svg">
<circle cx="104.5" cy="77.5" r="67.5" fill="#ECEE81"/>
<path d="M98.2861 30.153H113.714V74.8352H98.2861V30.153Z" fill="#FFFFFD"/>
<path d="M94.9165 115.847H70.5522V58.8794C70.5522 43.519 82.7343 31.2773 98.0236 31.2773" fill="#FFCA72"/>
<path d="M94.9168 118.192H70.5526C69.2623 118.192 68.2183 117.141 68.2183 115.847V58.8794C68.2183 42.0867 81.31 28.9325 98.0239 28.9325C99.3142 28.9325 100.358 29.9824 100.358 31.2774C100.358 32.5723 99.3142 33.6222 98.0239 33.6222C83.9292 33.6222 72.8869 44.7166 72.8869 58.8794V113.502H94.9168C96.2071 113.502 97.2511 114.553 97.2511 115.847C97.2511 117.141 96.2071 118.192 94.9168 118.192Z" fill="#37474F"/>
<path d="M113.976 31.2773C129.263 31.2773 141.447 43.519 141.447 58.8794V115.847H117.079" fill="#FFCA72"/>
<path d="M141.448 118.192H117.079C115.789 118.192 114.745 117.141 114.745 115.847C114.745 114.553 115.789 113.502 117.079 113.502H139.113V58.8794C139.113 44.7166 128.071 33.6222 113.976 33.6222C112.686 33.6222 111.642 32.5723 111.642 31.2774C111.642 29.9824 112.686 28.9325 113.976 28.9325C130.69 28.9325 143.782 42.0867 143.782 58.8794V115.847C143.782 117.141 142.738 118.192 141.448 118.192Z" fill="#37474F"/>
<path d="M99.3528 74.7987C98.0626 74.7987 97.0186 73.7475 97.0186 72.4538V31.9483C97.0186 30.6533 98.0626 29.6035 99.3528 29.6035C100.643 29.6035 101.687 30.6533 101.687 31.9483V72.4538C101.687 73.7475 100.643 74.7987 99.3528 74.7987Z" fill="#37474F"/>
<path d="M112.647 74.7987C111.357 74.7987 110.313 73.7475 110.313 72.4538V31.9483C110.313 30.6533 111.357 29.6035 112.647 29.6035C113.938 29.6035 114.982 30.6533 114.982 31.9483V72.4538C114.982 73.7475 113.938 74.7987 112.647 74.7987Z" fill="#37474F"/>
<path d="M91.1578 22.3789H68.3345V13.4713H91.1578" fill="#907973"/>
<path d="M91.1576 24.7237H68.3343C67.0441 24.7237 66 23.6738 66 22.3789V13.4713C66 12.1763 67.0441 11.1265 68.3343 11.1265H91.1576C92.4478 11.1265 93.4919 12.1763 93.4919 13.4713C93.4919 14.7662 92.4478 15.8161 91.1576 15.8161H70.6687V20.034H91.1576C92.4478 20.034 93.4919 21.084 93.4919 22.3789C93.4919 23.6738 92.4478 24.7237 91.1576 24.7237Z" fill="#37474F"/>
<path d="M120.843 22.3789H143.666V13.4713H120.843" fill="#907973"/>
<path d="M143.666 24.7237H120.843C119.552 24.7237 118.508 23.6738 118.508 22.3789C118.508 21.084 119.552 20.034 120.843 20.034H141.331V15.8161H120.843C119.552 15.8161 118.508 14.7662 118.508 13.4713C118.508 12.1763 119.552 11.1265 120.843 11.1265H143.666C144.956 11.1265 146 12.1763 146 13.4713V22.3789C146 23.6738 144.956 24.7237 143.666 24.7237Z" fill="#37474F"/>
<path d="M117.079 91.3682V122.524C117.079 128.762 112.205 133.655 105.998 133.655C99.7948 133.655 94.9165 128.762 94.9165 122.524V91.3682" fill="#907973"/>
<path d="M105.998 136C98.4752 136 92.5825 130.081 92.5825 122.524V91.3682C92.5825 90.0744 93.6266 89.0233 94.9168 89.0233C96.2071 89.0233 97.2511 90.0744 97.2511 91.3682V122.524C97.2511 127.45 101.092 131.31 105.998 131.31C110.904 131.31 114.745 127.45 114.745 122.524V91.3682C114.745 90.0744 115.789 89.0233 117.079 89.0233C118.369 89.0233 119.413 90.0744 119.413 91.3682V122.524C119.413 130.081 113.521 136 105.998 136Z" fill="#37474F"/>
<path d="M105.998 2.34479C114.567 2.34479 121.508 9.31974 121.508 17.9228C121.508 26.5281 114.567 33.5031 105.998 33.5031C97.4334 33.5031 90.4897 26.5281 90.4897 17.9228C90.4897 9.31974 97.4334 2.34479 105.998 2.34479Z" fill="#FFCA72"/>
<path d="M105.998 35.8479C96.1589 35.8479 88.1553 27.807 88.1553 17.9228C88.1553 8.03969 96.1589 0 105.998 0C115.836 0 123.842 8.03969 123.842 17.9228C123.842 27.807 115.836 35.8479 105.998 35.8479ZM105.998 4.68966C98.7326 4.68966 92.8239 10.6261 92.8239 17.9228C92.8239 25.2206 98.7326 31.1583 105.998 31.1583C113.263 31.1583 119.174 25.2206 119.174 17.9228C119.174 10.6261 113.263 4.68966 105.998 4.68966Z" fill="#37474F"/>
<path d="M105.998 11.0853C109.757 11.0853 112.807 14.1469 112.807 17.9228C112.807 21.7011 109.757 24.7603 105.998 24.7603C102.236 24.7603 99.1885 21.7011 99.1885 17.9228C99.1885 14.1469 102.236 11.0853 105.998 11.0853Z" fill="#FFFFFD"/>
<path d="M105.997 71.3386C94.9164 71.3386 86.0557 80.2392 86.0557 91.3681H125.937C125.937 80.2392 117.079 71.3386 105.997 71.3386Z" fill="#A6DDDD"/>
<path d="M125.937 93.713H86.0555C84.7652 93.713 83.7212 92.6618 83.7212 91.3681C83.7212 79.0302 93.7149 68.9938 105.997 68.9938C118.28 68.9938 128.271 79.0302 128.271 91.3681C128.271 92.6618 127.227 93.713 125.937 93.713ZM88.5357 89.0233H123.457C122.347 80.2553 115.077 73.6834 105.997 73.6834C96.9177 73.6834 89.6459 80.2553 88.5357 89.0233Z" fill="#37474F"/>
<line y1="164.5" x2="216" y2="164.5" stroke="black" stroke-width="5"/>
</svg>
