<svg width="39" height="39" viewBox="0 0 39 39" fill="none" xmlns="http://www.w3.org/2000/svg">
<g id="Kca Film 1">
<path id="Vector" d="M23.4326 5.15167H3.81821C3.22514 5.15167 2.65636 5.38727 2.23699 5.80663C1.81763 6.226 1.58203 6.79478 1.58203 7.38785V31.6121C1.58203 32.2052 1.81763 32.774 2.23699 33.1933C2.65636 33.6127 3.22514 33.8483 3.81821 33.8483H33.6253C34.1256 33.8483 34.6115 33.6806 35.0052 33.3719C35.399 33.0632 35.6778 32.6314 35.7971 32.1455L37.3566 24.3244C37.4335 24.0111 37.4416 23.6848 37.3805 23.3681C37.3194 23.0513 37.1904 22.7515 37.0025 22.4893L25.2508 6.08556C25.0438 5.79662 24.7708 5.56118 24.4546 5.39877C24.1384 5.23636 23.788 5.15165 23.4326 5.15167Z" fill="#FCA495"/>
<path id="Vector_2" d="M31.2031 19.4368L23.5137 8.70281C23.3772 8.51268 23.1975 8.35774 22.9893 8.2508C22.7811 8.14386 22.5504 8.08798 22.3163 8.08777H5.99062C5.60016 8.08847 5.22589 8.24388 4.94979 8.51998C4.67369 8.79608 4.51827 9.17035 4.51758 9.56081V20.2948C4.51842 20.6856 4.67426 21.0601 4.95091 21.3362C5.22756 21.6122 5.60243 21.7673 5.99325 21.7673H30.0057C30.276 21.7663 30.5409 21.691 30.7714 21.5497C31.002 21.4084 31.1892 21.2065 31.3128 20.966C31.4363 20.7255 31.4915 20.4557 31.4721 20.186C31.4528 19.9163 31.3597 19.6572 31.2031 19.4368Z" fill="#B6D2DD"/>
<path id="Vector_3" d="M10.5624 26.0836H6.94384C6.70081 26.0832 6.46786 25.9864 6.29606 25.8145C6.12425 25.6426 6.02762 25.4096 6.02734 25.1666V24.5995C6.02734 24.5296 6.05511 24.4626 6.10453 24.4132C6.15394 24.3638 6.22097 24.336 6.29086 24.336C6.36075 24.336 6.42777 24.3638 6.47719 24.4132C6.52661 24.4626 6.55437 24.5296 6.55437 24.5995V25.1666C6.55437 25.2699 6.59539 25.3691 6.66841 25.4422C6.74144 25.5153 6.8405 25.5565 6.94384 25.5566H10.5624C10.6658 25.5565 10.7648 25.5153 10.8378 25.4422C10.9109 25.3691 10.9519 25.2699 10.9519 25.1666V24.5995C10.9519 24.5296 10.9796 24.4626 11.0291 24.4132C11.0785 24.3638 11.1455 24.336 11.2154 24.336C11.2853 24.336 11.3523 24.3638 11.4017 24.4132C11.4511 24.4626 11.4789 24.5296 11.4789 24.5995V25.1666C11.4786 25.4096 11.382 25.6426 11.2102 25.8145C11.0384 25.9864 10.8054 26.0832 10.5624 26.0836Z" fill="#323C6B"/>
<path id="Vector_4" d="M37.0011 22.4893L25.2505 6.08556C25.0435 5.79655 24.7706 5.56107 24.4544 5.39865C24.1382 5.23623 23.7878 5.15157 23.4323 5.15167H3.81793C3.30993 5.15203 2.81722 5.3255 2.42105 5.64349C2.02489 5.96148 1.74892 6.40498 1.63867 6.90088C1.85731 6.827 2.08619 6.78787 2.31696 6.78493H21.9313C22.2868 6.78482 22.6372 6.86949 22.9534 7.03191C23.2696 7.19432 23.5426 7.42981 23.7496 7.71882L35.5023 24.1225C35.6902 24.3847 35.8192 24.6845 35.8802 25.0013C35.9413 25.3181 35.933 25.6444 35.8559 25.9576L34.3027 33.7387C34.6672 33.6231 34.9959 33.416 35.2573 33.137C35.5187 32.858 35.7042 32.5166 35.7958 32.1455L37.3553 24.3244C37.4322 24.0111 37.4403 23.6848 37.3792 23.3681C37.318 23.0513 37.1891 22.7515 37.0011 22.4893Z" fill="#EA8D81"/>
<g id="Group" opacity="0.59">
<path id="Vector_5" d="M10.9394 21.7673L14.5527 8.08777H12.7871L9.17383 21.7673H10.9394Z" fill="#EEEFEE"/>
</g>
<g id="Group_2" opacity="0.59">
<path id="Vector_6" d="M13.3548 21.7673L16.9681 8.08777H15.7949L12.1816 21.7673H13.3548Z" fill="#EEEFEE"/>
</g>
<g id="Group_3" opacity="0.59">
<path id="Vector_7" d="M16.222 21.7673L19.8358 8.08777H18.211L14.5977 21.7673H16.222Z" fill="#EEEFEE"/>
</g>
<path id="Vector_8" d="M30.0055 22.0297H5.99046C5.53011 22.029 5.08882 21.8458 4.7633 21.5203C4.43779 21.1948 4.2546 20.7535 4.25391 20.2932V9.56077C4.2546 9.09997 4.43815 8.65828 4.76423 8.33268C5.09032 8.00709 5.53229 7.82422 5.9931 7.82422H22.3162C22.5921 7.82454 22.8641 7.89052 23.1095 8.01671C23.3549 8.1429 23.5667 8.32567 23.7276 8.54993L31.4169 19.2834C31.6014 19.5431 31.711 19.8486 31.7337 20.1664C31.7565 20.4842 31.6915 20.8021 31.5459 21.0855C31.4002 21.3689 31.1796 21.6068 30.9079 21.7733C30.6363 21.9398 30.3241 22.0285 30.0055 22.0297ZM5.99046 8.35125C5.66989 8.35194 5.36264 8.4796 5.13596 8.70628C4.90928 8.93296 4.78163 9.2402 4.78093 9.56077V20.2947C4.78163 20.6158 4.90965 20.9234 5.1369 21.1502C5.36415 21.3769 5.67207 21.5043 5.9931 21.5043H30.0055C30.228 21.5044 30.4462 21.4432 30.6361 21.3274C30.8261 21.2115 30.9804 21.0456 31.0821 20.8477C31.1838 20.6498 31.229 20.4277 31.2126 20.2059C31.1963 19.984 31.1191 19.7709 30.9895 19.5901L23.2991 8.85667C23.187 8.70054 23.0395 8.57329 22.8686 8.48541C22.6977 8.39753 22.5083 8.35155 22.3162 8.35125H5.99046Z" fill="#323C6B"/>
<path id="Vector_9" d="M33.6251 34.1124H3.81805C3.15526 34.1115 2.51986 33.8478 2.05124 33.3791C1.58262 32.9104 1.31906 32.2749 1.31836 31.6121V7.38787C1.3192 6.72517 1.58282 6.08985 2.05143 5.62125C2.52003 5.15265 3.15535 4.88902 3.81805 4.88818H23.4324C23.8297 4.88856 24.2212 4.98343 24.5745 5.16496C24.9279 5.3465 25.233 5.60949 25.4646 5.93222L37.2173 22.3359C37.4277 22.6289 37.5721 22.964 37.6404 23.3181C37.7087 23.6722 37.6994 24.0369 37.6131 24.3871L36.0542 32.1966C35.9234 32.7424 35.6127 33.2283 35.172 33.5758C34.7313 33.9234 34.1864 34.1124 33.6251 34.1124ZM3.81805 5.41521C3.29504 5.41577 2.79361 5.62378 2.42378 5.99361C2.05396 6.36343 1.84594 6.86486 1.84539 7.38787V31.6121C1.84594 32.1352 2.05394 32.6367 2.42375 33.0066C2.79356 33.3765 3.29499 33.5846 3.81805 33.5853H33.6251C34.0667 33.5859 34.4957 33.4381 34.8432 33.1656C35.1907 32.8931 35.4366 32.5118 35.5414 32.0828L37.0977 24.2733C37.1673 23.9953 37.1757 23.7055 37.1223 23.424C37.0689 23.1424 36.955 22.8758 36.7883 22.6427L25.0346 6.23895C24.8518 5.98427 24.611 5.77673 24.3321 5.6335C24.0533 5.49026 23.7443 5.41544 23.4308 5.41521H3.81805Z" fill="#323C6B"/>
<g id="Group_4">
<path id="Vector_10" d="M28.2047 32.0522H26.1493C26.0351 32.0522 25.9256 32.0068 25.8449 31.9261C25.7641 31.8453 25.7188 31.7358 25.7188 31.6216C25.7188 31.5074 25.7641 31.3979 25.8449 31.3172C25.9256 31.2364 26.0351 31.191 26.1493 31.191H28.2047C28.3189 31.191 28.4285 31.2364 28.5092 31.3172C28.59 31.3979 28.6353 31.5074 28.6353 31.6216C28.6353 31.7358 28.59 31.8453 28.5092 31.9261C28.4285 32.0068 28.3189 32.0522 28.2047 32.0522Z" fill="white"/>
<path id="Vector_11" d="M24.235 32.0522H17.3974C17.2832 32.0522 17.1737 32.0068 17.0929 31.9261C17.0122 31.8453 16.9668 31.7358 16.9668 31.6216C16.9668 31.5074 17.0122 31.3979 17.0929 31.3172C17.1737 31.2364 17.2832 31.191 17.3974 31.191H24.235C24.3492 31.191 24.4587 31.2364 24.5395 31.3172C24.6202 31.3979 24.6656 31.5074 24.6656 31.6216C24.6656 31.7358 24.6202 31.8453 24.5395 31.9261C24.4587 32.0068 24.3492 32.0522 24.235 32.0522Z" fill="white"/>
</g>
</g>
</svg>
