<svg width="27" height="25" viewBox="0 0 27 25" fill="none" xmlns="http://www.w3.org/2000/svg">
<path d="M14.0456 2.77025C13.5333 2.29843 12.7027 2.29843 12.1904 2.77025L3.00728 11.2274C2.49497 11.6993 2.49497 12.4642 3.00728 12.9361C3.5196 13.4079 4.35023 13.4079 4.86255 12.9361L5.24679 12.5822V20.5389C5.24679 21.2062 5.83413 21.7471 6.55866 21.7471H9.1824C9.90692 21.7471 10.4943 21.2062 10.4943 20.5389V18.1226C10.4943 17.4554 11.0816 16.9144 11.8061 16.9144H14.4299C15.1544 16.9144 15.7417 17.4554 15.7417 18.1226V20.5389C15.7417 21.2062 16.3291 21.7471 17.0536 21.7471H19.6774C20.4019 21.7471 20.9892 21.2062 20.9892 20.5389V12.5822L21.3735 12.9361C21.8858 13.4079 22.7164 13.4079 23.2287 12.9361C23.741 12.4642 23.741 11.6993 23.2287 11.2274L14.0456 2.77025Z" fill="black"/>
</svg>
