<svg width="30" height="25" viewBox="0 0 30 25" fill="none" xmlns="http://www.w3.org/2000/svg">
<path d="M15.9963 2.77037C15.4128 2.29855 14.4669 2.29855 13.8835 2.77037L3.42561 11.2276C2.84218 11.6994 2.84218 12.4644 3.42561 12.9362C4.00905 13.408 4.95499 13.408 5.53842 12.9362L5.976 12.5823V20.5391C5.976 21.2063 6.64488 21.7472 7.46998 21.7472H10.4579C11.283 21.7472 11.9519 21.2063 11.9519 20.5391V18.1227C11.9519 17.4555 12.6208 16.9146 13.4459 16.9146H16.4339C17.259 16.9146 17.9278 17.4555 17.9278 18.1227V20.5391C17.9278 21.2063 18.5967 21.7472 19.4218 21.7472H22.4098C23.2349 21.7472 23.9038 21.2063 23.9038 20.5391V12.5823L24.3413 12.9362C24.9248 13.408 25.8707 13.408 26.4541 12.9362C27.0376 12.4644 27.0376 11.6994 26.4541 11.2276L15.9963 2.77037Z" fill="black"/>
</svg>
