<svg width="37" height="37" viewBox="0 0 37 37" fill="none" xmlns="http://www.w3.org/2000/svg">
<mask id="mask0_803_4788" style="mask-type:alpha" maskUnits="userSpaceOnUse" x="0" y="0" width="37" height="37">
<rect width="36.5732" height="36.5732" fill="#D9D9D9"/>
</mask>
<g mask="url(#mask0_803_4788)">
<path d="M13.715 27.43H22.0963C22.5281 27.43 22.9281 27.322 23.2964 27.1061C23.6647 26.8902 23.925 26.5918 24.0774 26.2108L27.2775 18.7438C27.3283 18.6168 27.3664 18.4898 27.3918 18.3628C27.4172 18.2358 27.4299 18.1089 27.4299 17.9819V16.7628C27.4299 16.331 27.2839 15.9691 26.9918 15.677C26.6997 15.3849 26.3378 15.2389 25.906 15.2389H18.8962L19.8105 10.0577C19.8613 9.80368 19.8486 9.5624 19.7724 9.33382C19.6962 9.10523 19.5692 8.90205 19.3914 8.72426L18.2866 7.61945L11.2768 15.2389C11.0736 15.4421 10.9212 15.6706 10.8196 15.9246C10.718 16.1786 10.6672 16.458 10.6672 16.7628V24.3822C10.6672 25.2203 10.9656 25.9378 11.5625 26.5347C12.1593 27.1315 12.8768 27.43 13.715 27.43ZM18.2866 33.5255C16.1786 33.5255 14.1975 33.1255 12.3435 32.3254C10.4894 31.5254 8.87664 30.4396 7.50514 29.0681C6.13364 27.6966 5.04787 26.0839 4.24783 24.2298C3.4478 22.3757 3.04778 20.3947 3.04778 18.2866C3.04778 16.1786 3.4478 14.1975 4.24783 12.3435C5.04787 10.4894 6.13364 8.87665 7.50514 7.50515C8.87664 6.13366 10.4894 5.04789 12.3435 4.24785C14.1975 3.44781 16.1786 3.04779 18.2866 3.04779C20.3947 3.04779 22.3757 3.44781 24.2298 4.24785C26.0838 5.04789 27.6966 6.13366 29.0681 7.50515C30.4396 8.87665 31.5254 10.4894 32.3254 12.3435C33.1255 14.1975 33.5255 16.1786 33.5255 18.2866C33.5255 20.3947 33.1255 22.3757 32.3254 24.2298C31.5254 26.0839 30.4396 27.6966 29.0681 29.0681C27.6966 30.4396 26.0838 31.5254 24.2298 32.3254C22.3757 33.1255 20.3947 33.5255 18.2866 33.5255ZM18.2866 30.4777C21.69 30.4777 24.5727 29.2967 26.9347 26.9347C29.2967 24.5727 30.4777 21.69 30.4777 18.2866C30.4777 14.8833 29.2967 12.0006 26.9347 9.63859C24.5727 7.27657 21.69 6.09556 18.2866 6.09556C14.8833 6.09556 12.0006 7.27657 9.63858 9.63859C7.27656 12.0006 6.09555 14.8833 6.09555 18.2866C6.09555 21.69 7.27656 24.5727 9.63858 26.9347C12.0006 29.2967 14.8833 30.4777 18.2866 30.4777Z" fill="#0070BA"/>
</g>
</svg>
