<svg width="36" height="36" viewBox="0 0 36 36" fill="none" xmlns="http://www.w3.org/2000/svg">
<mask id="mask0_803_4783" style="mask-type:alpha" maskUnits="userSpaceOnUse" x="0" y="0" width="36" height="36">
<rect width="35.0249" height="35.0249" fill="#D9D9D9"/>
</mask>
<g mask="url(#mask0_803_4783)">
<path d="M17.5124 32.1061C15.6882 32.1061 13.9795 31.7595 12.3864 31.0663C10.7932 30.3731 9.4068 29.4367 8.22715 28.2571C7.04749 27.0774 6.11106 25.691 5.41786 24.0978C4.72466 22.5047 4.37806 20.796 4.37806 18.9718C4.37806 17.1476 4.72466 15.4389 5.41786 13.8458C6.11106 12.2526 7.04749 10.8662 8.22715 9.68656C9.4068 8.5069 10.7932 7.57047 12.3864 6.87727C13.9795 6.18407 15.6882 5.83747 17.5124 5.83747C19.3366 5.83747 21.0453 6.18407 22.6384 6.87727C24.2316 7.57047 25.618 8.5069 26.7976 9.68656C27.9773 10.8662 28.9137 12.2526 29.6069 13.8458C30.3001 15.4389 30.6467 17.1476 30.6467 18.9718C30.6467 20.796 30.3001 22.5047 29.6069 24.0978C28.9137 25.691 27.9773 27.0774 26.7976 28.2571C25.618 29.4367 24.2316 30.3731 22.6384 31.0663C21.0453 31.7595 19.3366 32.1061 17.5124 32.1061ZM21.5986 25.1012L23.6418 23.058L18.9718 18.3881V11.6749H16.053V19.5556L21.5986 25.1012ZM8.17242 3.4295L10.2155 5.47262L4.01321 11.6749L1.97009 9.63183L8.17242 3.4295ZM26.8524 3.4295L33.0547 9.63183L31.0116 11.6749L24.8092 5.47262L26.8524 3.4295ZM17.5124 29.1874C20.3582 29.1874 22.7722 28.1962 24.7545 26.2139C26.7368 24.2316 27.728 21.8176 27.728 18.9718C27.728 16.126 26.7368 13.712 24.7545 11.7297C22.7722 9.74736 20.3582 8.75621 17.5124 8.75621C14.6666 8.75621 12.2526 9.74736 10.2703 11.7297C8.28795 13.712 7.2968 16.126 7.2968 18.9718C7.2968 21.8176 8.28795 24.2316 10.2703 26.2139C12.2526 28.1962 14.6666 29.1874 17.5124 29.1874Z" fill="#0070BA"/>
</g>
</svg>
