<svg width="41" height="55" viewBox="0 0 41 55" fill="none" xmlns="http://www.w3.org/2000/svg">
<g id="&#240;&#159;&#166;&#134; icon &#34;motorcycle&#34;">
<path id="Vector" d="M20.3765 35.5183C17.701 35.5251 15.5366 37.6778 15.5273 40.3338V50.0884V50.1822C15.5273 52.8427 17.6987 55 20.3765 55C23.0544 55 25.2257 52.8427 25.2257 50.1822C25.2257 50.1502 25.2257 50.1158 25.2257 50.0838V50.0884V40.3361C25.2188 37.6801 23.0521 35.5274 20.3811 35.5183H20.3765Z" fill="#1F2147"/>
<path id="Vector_2" d="M37.9465 6.01884H28.6142C27.4837 2.5027 24.2232 0 20.3734 0C16.5235 0 13.2654 2.5027 12.1509 5.95708L12.1348 6.01884H2.92459C1.58681 6.01884 0.5 7.09633 0.5 8.42775C0.5 9.75917 1.5845 10.8367 2.92459 10.8367H12.2569C12.8739 12.8933 14.214 14.577 15.9755 15.6316L16.0123 15.6522C9.40168 17.6356 4.66302 23.6133 4.62157 30.6982V43.3444C4.6423 45.5314 6.41987 47.2974 8.61881 47.318H11.893V40.455C11.893 35.7333 15.7452 31.906 20.4977 31.906C25.2502 31.906 29.1023 35.7333 29.1023 40.455V47.318H32.3743C34.5778 47.2997 36.3577 45.5314 36.3761 43.3444V30.8217C36.3738 23.7185 31.6167 17.7225 25.0959 15.7986L24.9854 15.7712C26.786 14.6937 28.1238 13.0122 28.727 11.0128L28.7431 10.9533H38.0754C39.4132 10.9488 40.4954 9.87355 40.5 8.54442C40.447 7.16954 39.3372 6.06688 37.958 6.01655H37.9534L37.9465 6.01884ZM20.3734 13.36C17.6955 13.36 15.5242 11.2027 15.5242 8.54213C15.5242 5.88158 17.6955 3.72432 20.3734 3.72432C23.0512 3.72432 25.2225 5.88158 25.2225 8.54213C25.2248 8.58331 25.2248 8.63135 25.2248 8.67939C25.2248 11.2645 23.1157 13.36 20.5138 13.36C20.4655 13.36 20.4171 13.36 20.3688 13.3577H20.3757L20.3734 13.36Z" fill="#1F2147"/>
</g>
</svg>
