<svg width="40" height="40" viewBox="0 0 40 40" fill="none" xmlns="http://www.w3.org/2000/svg">
<mask id="mask0_803_4754" style="mask-type:alpha" maskUnits="userSpaceOnUse" x="0" y="0" width="40" height="40">
<rect width="40" height="40" fill="#D9D9D9"/>
</mask>
<g mask="url(#mask0_803_4754)">
<path d="M13.3333 30H26.6666V26.6666H13.3333V30ZM13.3333 23.3333H26.6666V20H13.3333V23.3333ZM9.99996 36.6666C9.08329 36.6666 8.29857 36.3403 7.64579 35.6875C6.99301 35.0347 6.66663 34.25 6.66663 33.3333V6.66665C6.66663 5.74998 6.99301 4.96526 7.64579 4.31248C8.29857 3.6597 9.08329 3.33331 9.99996 3.33331H23.3333L33.3333 13.3333V33.3333C33.3333 34.25 33.0069 35.0347 32.3541 35.6875C31.7013 36.3403 30.9166 36.6666 30 36.6666H9.99996ZM21.6666 15V6.66665H9.99996V33.3333H30V15H21.6666Z" fill="#0070BA"/>
</g>
</svg>
