<svg width="40" height="40" viewBox="0 0 40 40" fill="none"
  xmlns="http://www.w3.org/2000/svg">
  <mask id="mask0_803_4815" style="mask-type:alpha" maskUnits="userSpaceOnUse" x="0" y="0" width="40" height="40">
    <rect width="39.2532" height="39.2532" fill="#D9D9D9"/>
  </mask>
  <g mask="url(#mask0_803_4815)">
    <path d="M6.54222 34.3465C5.64266 34.3465 4.87259 34.0262 4.232 33.3856C3.59141 32.745 3.27112 31.975 3.27112 31.0754V4.90662L6.01066 7.64616L8.70932 4.90662L11.4489 7.64616L14.1884 4.90662L16.8871 7.64616L19.6266 4.90662L22.3662 7.64616L25.0648 4.90662L27.8044 7.64616L30.5439 4.90662L33.2426 7.64616L35.9821 4.90662V31.0754C35.9821 31.975 35.6618 32.745 35.0212 33.3856C34.3806 34.0262 33.6106 34.3465 32.711 34.3465H6.54222ZM6.54222 31.0754H17.9911V21.2621H6.54222V31.0754ZM21.2622 31.0754H32.711V27.8043H21.2622V31.0754ZM21.2622 24.5332H32.711V21.2621H21.2622V24.5332ZM6.54222 17.991H32.711V13.0844H6.54222V17.991Z" fill="#21217A"/>
  </g>
</svg>
