<svg width="61" height="45" viewBox="0 0 61 45" fill="none" xmlns="http://www.w3.org/2000/svg">
<g id="&#240;&#159;&#166;&#134; icon &#34;Car&#34;">
<path id="Vector" d="M59.0922 13.125H52.0762L50.1262 8.25C48.1223 3.23789 43.3399 0 37.941 0H23.0582C17.6605 0 12.8769 3.23789 10.8719 8.25L8.92185 13.125H1.907C0.991762 13.125 0.320277 13.9852 0.542933 14.8723L1.24606 17.6848C1.40192 18.3105 1.96442 18.75 2.61012 18.75H4.96208C3.38825 20.1246 2.37458 22.1227 2.37458 24.375V30C2.37458 31.8891 3.09645 33.5941 4.24958 34.9137V41.25C4.24958 43.3207 5.92888 45 7.99958 45H11.7496C13.8203 45 15.4996 43.3207 15.4996 41.25V37.5H45.4996V41.25C45.4996 43.3207 47.1789 45 49.2496 45H52.9996C55.0704 45 56.7496 43.3207 56.7496 41.25V34.9137C57.9028 33.5953 58.6247 31.8902 58.6247 30V24.375C58.6247 22.1227 57.611 20.1246 56.0383 18.75H58.3903C59.036 18.75 59.5985 18.3105 59.7543 17.6848L60.4575 14.8723C60.679 13.9852 60.0075 13.125 59.0922 13.125ZM17.8351 11.0355C18.6894 8.90039 20.7578 7.5 23.0582 7.5H37.941C40.2414 7.5 42.3098 8.90039 43.1641 11.0355L45.4996 16.875H15.4996L17.8351 11.0355ZM11.7496 29.9766C9.49959 29.9766 7.99958 28.4812 7.99958 26.2383C7.99958 23.9953 9.49959 22.5 11.7496 22.5C13.9996 22.5 17.3746 25.8645 17.3746 28.1074C17.3746 30.3504 13.9996 29.9766 11.7496 29.9766ZM49.2496 29.9766C46.9996 29.9766 43.6246 30.3504 43.6246 28.1074C43.6246 25.8645 46.9996 22.5 49.2496 22.5C51.4996 22.5 52.9996 23.9953 52.9996 26.2383C52.9996 28.4812 51.4996 29.9766 49.2496 29.9766Z" fill="#1F2147"/>
</g>
</svg>
