<svg width="37" height="37" viewBox="0 0 37 37" fill="none" xmlns="http://www.w3.org/2000/svg">
<mask id="mask0_803_4820" style="mask-type:alpha" maskUnits="userSpaceOnUse" x="0" y="0" width="37" height="37">
<rect width="37" height="37" fill="#D9D9D9"/>
</mask>
<g mask="url(#mask0_803_4820)">
<path d="M10.7915 27.75C10.3547 27.75 9.98857 27.6022 9.69309 27.3068C9.3976 27.0113 9.24986 26.6451 9.24986 26.2083V23.125H29.2915V9.24998H32.3749C32.8117 9.24998 33.1778 9.39772 33.4733 9.69321C33.7688 9.98869 33.9165 10.3548 33.9165 10.7916V33.9166L27.7499 27.75H10.7915ZM3.08319 26.2083V4.62498C3.08319 4.18817 3.23093 3.82203 3.52642 3.52654C3.82191 3.23106 4.18805 3.08331 4.62486 3.08331H24.6665C25.1033 3.08331 25.4695 3.23106 25.765 3.52654C26.0604 3.82203 26.2082 4.18817 26.2082 4.62498V18.5C26.2082 18.9368 26.0604 19.3029 25.765 19.5984C25.4695 19.8939 25.1033 20.0416 24.6665 20.0416H9.24986L3.08319 26.2083ZM23.1249 16.9583V6.16665H6.16652V16.9583H23.1249Z" fill="#0070BA"/>
</g>
</svg>
