<svg width="15" height="17" viewBox="0 0 15 17" fill="none" xmlns="http://www.w3.org/2000/svg">
<path d="M0 0H15V17H0V0Z" fill="#4C4DDC"/>
<path d="M8.5 2C7.675 2 7 2.675 7 3.5C7 4.325 7.675 5 8.5 5C9.325 5 10 4.325 10 3.5C10 2.675 9.325 2 8.5 2ZM6.25 5.75C5.005 5.75 4 6.755 4 8H5.5C5.5 7.58 5.83 7.25 6.25 7.25C6.67 7.25 7 7.58 7 8C7 8.42 5.5 10.46 5.5 11.75C5.5 13.04 6.505 14 7.75 14C8.995 14 10 12.995 10 11.75H8.5C8.5 12.17 8.17 12.5 7.75 12.5C7.33 12.5 7 12.17 7 11.75C7 11.21 8.5 8.99 8.5 8C8.5 6.785 7.495 5.75 6.25 5.75Z" fill="white"/>
</svg>
