<svg width="36" height="36" viewBox="0 0 36 36" fill="none" xmlns="http://www.w3.org/2000/svg">
<g id="lampu 1">
<path id="Vector" d="M33.2573 5.92481L34.1989 2.49356C34.2257 2.39764 34.2265 2.29633 34.2013 2.19998C34.1761 2.10363 34.1258 2.01569 34.0555 1.94515C33.9852 1.87462 33.8974 1.82401 33.8012 1.79851C33.7049 1.77301 33.6036 1.77352 33.5076 1.8L30.0763 2.74162C29.9196 2.58489 29.7336 2.46057 29.5288 2.37574C29.3241 2.29092 29.1046 2.24726 28.883 2.24726C28.6614 2.24726 28.4419 2.29092 28.2371 2.37574C28.0324 2.46057 27.8463 2.58489 27.6896 2.74162L26.1 4.33125L26.0516 4.37962L14.9625 15.4687L14.7325 15.6774L20.3012 21.2557L20.5313 21.0375L31.6688 9.9L33.6561 7.91268C33.7606 7.80821 33.8435 7.68417 33.9001 7.54765C33.9566 7.41113 33.9857 7.2648 33.9857 7.11703C33.9857 6.96925 33.9566 6.82292 33.9001 6.6864C33.8435 6.54988 33.7606 6.42584 33.6561 6.32137L33.2584 5.92368L33.2573 5.92481Z" fill="#FFC200"/>
<path id="Vector_2" d="M33.2573 5.92481L34.1989 2.49356C34.2257 2.39764 34.2265 2.29633 34.2013 2.19998C34.1761 2.10363 34.1258 2.01569 34.0555 1.94515C33.9852 1.87462 33.8974 1.82401 33.8012 1.79851C33.7049 1.77301 33.6036 1.77352 33.5076 1.8L30.0763 2.74162C29.9196 2.58489 29.7336 2.46057 29.5288 2.37574C29.3241 2.29092 29.1046 2.24726 28.883 2.24726C28.6613 2.24726 28.4419 2.29092 28.2371 2.37574C28.0324 2.46057 27.8463 2.58489 27.6896 2.74162L26.1 4.33125L31.6688 9.9L33.6561 7.91268C33.7606 7.80821 33.8435 7.68417 33.9001 7.54765C33.9566 7.41113 33.9857 7.2648 33.9857 7.11703C33.9857 6.96925 33.9566 6.82293 33.9001 6.6864C33.8435 6.54988 33.7606 6.42584 33.6561 6.32137L33.2584 5.92369L33.2573 5.92481Z" fill="#E6AF00"/>
<path id="Vector_3" d="M18.1429 28.9941L15.7562 26.6079L15.5571 26.8065L9.17664 20.4598L9.39208 20.2438L7.00595 17.8571L8.99439 15.8687L10.5857 17.4594L10.7865 17.2586L18.801 25.1539L18.5406 25.4143L20.1313 27.0056L18.1429 28.9941Z" fill="#7C8C9A"/>
<path id="Vector_4" d="M9.39383 20.2404L15.7568 26.6034L14.1661 28.1942L7.80308 21.8312L9.39383 20.2404Z" fill="#627687"/>
<path id="Vector_5" d="M8.5986 22.6271L10.1894 24.2179L3.42866 30.9786L1.83791 29.3878L8.5986 22.6271Z" fill="#3CB8EF"/>
<path id="Vector_6" d="M11.7807 25.8086L13.3714 27.3994L6.61073 34.1601L5.01998 32.5693L11.7807 25.8086Z" fill="#3CB8EF"/>
<path id="Vector_7" d="M20.5313 18.4185C20.3821 18.4185 20.239 18.3592 20.1336 18.2537L17.7469 15.867C17.6414 15.7615 17.5822 15.6185 17.5822 15.4693C17.5822 15.3202 17.6414 15.1771 17.7469 15.0716L19.3382 13.4809C19.4437 13.3754 19.5867 13.3162 19.7359 13.3162C19.885 13.3162 20.0281 13.3754 20.1336 13.4809L22.5197 15.867C22.6251 15.9725 22.6844 16.1155 22.6844 16.2647C22.6844 16.4139 22.6251 16.5569 22.5197 16.6624L20.9289 18.2537C20.8235 18.3592 20.6804 18.4185 20.5313 18.4185ZM18.9394 15.4688L20.5313 17.0606L21.3266 16.2647L19.7359 14.6739L18.9394 15.4688Z" fill="#7C8C9A"/>
<path id="Vector_8" d="M15.755 17.0612L26.0949 6.72128L26.8903 7.51666L16.5504 17.8565L15.755 17.0612Z" fill="#3CB8EF"/>
<path id="Vector_9" d="M19.0547 20.1797L18.5417 19.0491L22.752 14.8387V13.4809C22.7519 13.3976 22.7704 13.3153 22.806 13.24C22.8416 13.1647 22.8935 13.0983 22.9579 13.0455C23.0226 12.9933 23.098 12.9558 23.1787 12.9357C23.2595 12.9156 23.3436 12.9133 23.4253 12.9291L24.5869 13.1614L24.3562 12.0004C24.3396 11.9186 24.3413 11.8342 24.3612 11.7532C24.3812 11.6722 24.4189 11.5967 24.4717 11.5321C24.5245 11.4675 24.591 11.4154 24.6663 11.3796C24.7417 11.3439 24.8241 11.3254 24.9075 11.3254H26.2654L27.6896 9.89999L28.4856 10.6954L26.8942 12.2867C26.7888 12.3922 26.6457 12.4515 26.4966 12.4515H25.5937L25.857 13.7672C25.8751 13.858 25.8705 13.9518 25.8436 14.0404C25.8167 14.129 25.7684 14.2096 25.7029 14.275C25.6374 14.3405 25.5568 14.3887 25.4682 14.4155C25.3796 14.4423 25.2857 14.4469 25.1949 14.4287L23.8787 14.166V15.0705C23.8787 15.2197 23.8194 15.3627 23.7139 15.4682L19.0547 20.1797Z" fill="#3CB8EF"/>
<path id="Vector_10" d="M24.5052 8.31195L25.3005 7.51658L28.4816 10.6977L27.6863 11.4931L24.5052 8.31195Z" fill="#7C8C9A"/>
<path id="Vector_11" d="M13.7679 14.2746L21.7216 22.2283L18.5401 25.4098L10.5864 17.4561L13.7679 14.2746Z" fill="#A8BCCB"/>
<g id="Group">
<path id="Vector_12" d="M12.9691 17.4658L13.7646 16.6703L14.56 17.4658L13.7645 18.2613L12.9691 17.4658Z" fill="#627687"/>
<path id="Vector_13" d="M14.5612 19.0488L15.3567 18.2533L16.1522 19.0488L15.3567 19.8443L14.5612 19.0488Z" fill="#627687"/>
<path id="Vector_14" d="M16.1513 20.6396L16.9468 19.8441L17.7423 20.6396L16.9468 21.4351L16.1513 20.6396Z" fill="#627687"/>
<path id="Vector_15" d="M17.7429 22.2206L18.5384 21.4251L19.3338 22.2205L18.5384 23.016L17.7429 22.2206Z" fill="#627687"/>
</g>
</g>
</svg>
