<?xml version="1.0" encoding="UTF-8"?>
<!DOCTYPE svg PUBLIC "-//W3C//DTD SVG 1.1//EN" "http://www.w3.org/Graphics/SVG/1.1/DTD/svg11.dtd">
<svg xmlns="http://www.w3.org/2000/svg" version="1.1" width="3713px" height="753px" style="shape-rendering:geometricPrecision; text-rendering:geometricPrecision; image-rendering:optimizeQuality; fill-rule:evenodd; clip-rule:evenodd" xmlns:xlink="http://www.w3.org/1999/xlink">
<g><path style="opacity:0.983" fill="#f39b4e" d="M 1165.5,-0.5 C 1182.83,-0.5 1200.17,-0.5 1217.5,-0.5C 1279.03,4.73293 1335.53,24.3996 1387,58.5C 1395.22,45.8908 1404.05,33.7241 1413.5,22C 1419.77,19.7217 1423.94,21.8883 1426,28.5C 1434.67,59.8333 1443.33,91.1667 1452,122.5C 1453.99,137.846 1447.16,145.346 1431.5,145C 1400.65,147.653 1369.81,150.487 1339,153.5C 1331.02,153.193 1328.02,149.193 1330,141.5C 1337.64,129.697 1345.47,118.03 1353.5,106.5C 1287.49,63.4633 1215.49,48.63 1137.5,62C 1044.35,81.45 974.85,132.617 929,215.5C 887.853,298.809 884.853,383.476 920,469.5C 964.863,565.335 1039.36,623.502 1143.5,644C 1159.1,651.377 1164.94,663.544 1161,680.5C 1156.2,693.124 1147.04,699.791 1133.5,700.5C 1037.55,683.134 960.717,635.468 903,557.5C 838.869,462.375 822.202,359.375 853,248.5C 889.649,138.185 962.149,62.0184 1070.5,20C 1101.46,9.2432 1133.13,2.40987 1165.5,-0.5 Z"/></g>
<g><path style="opacity:0.989" fill="#f39b4e" d="M 3040.5,100.5 C 3068.83,100.5 3097.17,100.5 3125.5,100.5C 3106.41,259.529 3087.08,418.529 3067.5,577.5C 3038.83,577.833 3010.16,577.5 2981.5,576.5C 2983.24,568.248 2984.07,559.915 2984,551.5C 2970.42,561.714 2955.92,570.548 2940.5,578C 2885.63,594.264 2838.8,581.431 2800,539.5C 2772.14,502.539 2764.14,461.539 2776,416.5C 2795.42,350.75 2838.92,312.25 2906.5,301C 2938.97,296.303 2969.63,301.636 2998.5,317C 3003.78,319.888 3008.61,323.388 3013,327.5C 3022.72,251.892 3031.88,176.225 3040.5,100.5 Z M 2925.5,367.5 C 2944.14,365.495 2961.81,368.662 2978.5,377C 2991.99,384.486 2999.99,395.819 3002.5,411C 3000.04,431.838 2997.54,452.672 2995,473.5C 2970.45,509.017 2937.62,520.184 2896.5,507C 2877.69,498.237 2865.86,483.737 2861,463.5C 2855.2,436.903 2860.54,412.903 2877,391.5C 2890.64,378.262 2906.81,370.262 2925.5,367.5 Z"/></g>
<g><path style="opacity:0.989" fill="#f39b4e" d="M 1739.5,114.5 C 1740.5,114.414 1741.33,114.748 1742,115.5C 1803.67,221.5 1865.33,327.5 1927,433.5C 2015.67,328.167 2104.33,222.833 2193,117.5C 2194.26,115.393 2196.1,114.393 2198.5,114.5C 2179.42,268.823 2160.42,423.157 2141.5,577.5C 2111.83,577.667 2082.16,577.5 2052.5,577C 2061.61,507.58 2070.11,438.08 2078,368.5C 2022.29,435.209 1966.96,502.209 1912,569.5C 1909.28,572.321 1906.95,571.987 1905,568.5C 1867.92,506.001 1830.58,443.668 1793,381.5C 1784.18,446.718 1776.01,512.051 1768.5,577.5C 1739.83,577.5 1711.17,577.5 1682.5,577.5C 1701.57,423.175 1720.57,268.842 1739.5,114.5 Z"/></g>
<g><path style="opacity:0.992" fill="#535aa8" d="M 93.5,132.5 C 144.834,132.333 196.168,132.5 247.5,133C 283.731,133.879 316.398,144.879 345.5,166C 373.604,190.889 387.271,222.223 386.5,260C 385.825,314.078 366.158,359.745 327.5,397C 318.488,404.167 309.155,410.834 299.5,417C 326.904,470.475 354.571,523.808 382.5,577C 347.833,577.667 313.167,577.667 278.5,577C 253.333,530.5 228.167,484 203,437.5C 183.91,436.507 164.743,436.174 145.5,436.5C 139.668,483.152 133.835,529.819 128,576.5C 98.5737,577.495 69.0737,577.829 39.5,577.5C 57.4179,429.156 75.4179,280.823 93.5,132.5 Z M 171.5,217.5 C 192.169,217.333 212.836,217.5 233.5,218C 272.038,217.538 292.038,236.538 293.5,275C 292.63,307.763 277.63,331.429 248.5,346C 243.246,347.647 237.913,348.98 232.5,350C 206.849,351.722 181.183,351.889 155.5,350.5C 161.406,306.248 166.74,261.915 171.5,217.5 Z"/></g>
<g><path style="opacity:0.981" fill="#f39b4e" d="M 2322.5,174.5 C 2337.22,173.144 2350.88,176.31 2363.5,184C 2375.27,194.641 2379.43,207.808 2376,223.5C 2369.64,247.937 2353.8,260.27 2328.5,260.5C 2312.53,260.57 2299.03,254.903 2288,243.5C 2280.44,227.367 2280.78,211.367 2289,195.5C 2297.29,183.779 2308.46,176.779 2322.5,174.5 Z"/></g>
<g><path style="opacity:0.986" fill="#f39b4e" d="M 1035.5,188.5 C 1064.57,187.168 1093.74,187.168 1123,188.5C 1150.33,255.833 1177.67,323.167 1205,390.5C 1230.81,322.914 1256.31,255.248 1281.5,187.5C 1310.17,187.5 1338.83,187.5 1367.5,187.5C 1313.12,314.65 1257.79,441.317 1201.5,567.5C 1146.15,441.075 1090.81,314.742 1035.5,188.5 Z"/></g>
<g><path style="opacity:0.972" fill="#f39b4e" d="M 1490.5,202.5 C 1503.99,202.987 1513.49,209.321 1519,221.5C 1521.87,229.103 1524.53,236.769 1527,244.5C 1528.48,267.689 1517.64,279.189 1494.5,279C 1486.54,277.713 1480.04,273.879 1475,267.5C 1469.55,255.97 1465.38,243.97 1462.5,231.5C 1464.48,214.522 1473.81,204.855 1490.5,202.5 Z"/></g>
<g><path style="opacity:0.985" fill="#f39b4e" d="M 3696.5,299.5 C 3699.83,299.5 3703.17,299.5 3706.5,299.5C 3701.73,327.816 3697.06,356.149 3692.5,384.5C 3666.22,381.54 3643.22,388.707 3623.5,406C 3605.65,422.194 3593.82,442.028 3588,465.5C 3583.08,502.506 3578.25,539.506 3573.5,576.5C 3545.17,577.5 3516.84,577.833 3488.5,577.5C 3499.46,489.208 3510.13,400.874 3520.5,312.5C 3546.17,312.5 3571.83,312.5 3597.5,312.5C 3597.05,331.186 3596.55,349.853 3596,368.5C 3620.42,332.239 3653.92,309.239 3696.5,299.5 Z"/></g>
<g><path style="opacity:0.987" fill="#535aa8" d="M 578.5,300.5 C 607.138,299.726 634.138,305.893 659.5,319C 687.911,337.929 706.411,364.096 715,397.5C 718.461,409.639 720.961,421.973 722.5,434.5C 722.351,436.32 721.684,437.82 720.5,439C 655.738,454.857 591.071,471.024 526.5,487.5C 534.567,498.379 545.234,505.545 558.5,509C 571.419,513.09 584.419,513.424 597.5,510C 607.432,506.801 616.932,502.635 626,497.5C 636.643,519.254 646.81,541.254 656.5,563.5C 609.554,586.74 560.887,590.907 510.5,576C 466.732,560.898 439.898,530.732 430,485.5C 419.055,428.349 433.889,379.183 474.5,338C 504.61,312.908 539.276,300.408 578.5,300.5 Z M 574.5,367.5 C 603.254,366.775 622.254,379.941 631.5,407C 592.304,417.8 552.971,428.3 513.5,438.5C 512.776,396.568 533.109,372.901 574.5,367.5 Z"/></g>
<g><path style="opacity:0.99" fill="#f39b4e" d="M 2618.5,300.5 C 2639.07,298.414 2658.74,301.58 2677.5,310C 2702.86,325.221 2714.7,347.721 2713,377.5C 2705,444.201 2696.83,510.867 2688.5,577.5C 2660.17,577.5 2631.83,577.5 2603.5,577.5C 2609.67,523.47 2616.17,469.47 2623,415.5C 2624.75,404.575 2623.09,394.241 2618,384.5C 2610.53,376.338 2601.2,372.672 2590,373.5C 2572.99,373.838 2558.66,380.171 2547,392.5C 2528.98,414.217 2518.32,439.217 2515,467.5C 2510.5,504.175 2506,540.842 2501.5,577.5C 2472.83,577.833 2444.16,577.5 2415.5,576.5C 2426.58,488.897 2437.24,401.23 2447.5,313.5C 2473.5,313.5 2499.5,313.5 2525.5,313.5C 2525.93,325.833 2526.43,338.167 2527,350.5C 2550.56,321.136 2581.06,304.469 2618.5,300.5 Z"/></g>
<g><path style="opacity:0.987" fill="#f39b4e" d="M 3301.5,300.5 C 3330.14,299.726 3357.14,305.893 3382.5,319C 3410.91,337.929 3429.41,364.096 3438,397.5C 3441.46,409.639 3443.96,421.973 3445.5,434.5C 3445.35,436.32 3444.68,437.82 3443.5,439C 3378.74,454.857 3314.07,471.024 3249.5,487.5C 3257.57,498.379 3268.23,505.545 3281.5,509C 3294.42,513.09 3307.42,513.424 3320.5,510C 3330.43,506.801 3339.93,502.635 3349,497.5C 3359.64,519.254 3369.81,541.254 3379.5,563.5C 3332.55,586.74 3283.89,590.907 3233.5,576C 3189.73,560.898 3162.9,530.732 3153,485.5C 3142.06,428.349 3156.89,379.183 3197.5,338C 3227.61,312.908 3262.28,300.408 3301.5,300.5 Z M 3297.5,367.5 C 3326.25,366.775 3345.25,379.941 3354.5,407C 3315.3,417.8 3275.97,428.3 3236.5,438.5C 3235.78,396.568 3256.11,372.901 3297.5,367.5 Z"/></g>
<g><path style="opacity:0.976" fill="#f39b4e" d="M 1510.5,310.5 C 1527.35,309.866 1538.18,317.532 1543,333.5C 1543.67,344.5 1543.67,355.5 1543,366.5C 1538.82,380.271 1529.49,387.604 1515,388.5C 1500.51,387.604 1491.18,380.271 1487,366.5C 1486.78,357.472 1486.28,348.472 1485.5,339.5C 1487.13,323.882 1495.46,314.215 1510.5,310.5 Z"/></g>
<g><path style="opacity:0.99" fill="#f39b4e" d="M 2276.5,313.5 C 2305.17,313.5 2333.83,313.5 2362.5,313.5C 2351.67,400.819 2340.84,488.152 2330,575.5C 2301.73,577.487 2273.23,578.154 2244.5,577.5C 2255.09,489.492 2265.76,401.492 2276.5,313.5 Z"/></g>
<g><path style="opacity:0.972" fill="#f39b4e" d="M 1497.5,419.5 C 1516.42,420.083 1527.08,429.75 1529.5,448.5C 1527.28,462.004 1522.78,474.67 1516,486.5C 1500.03,500.281 1484.7,499.614 1470,484.5C 1465.17,476.682 1463.83,468.349 1466,459.5C 1469.14,450.412 1472.47,441.412 1476,432.5C 1481.57,425.406 1488.74,421.073 1497.5,419.5 Z"/></g>
<g><path style="opacity:0.973" fill="#f39b4e" d="M 1442.5,518.5 C 1468.31,516.812 1480.15,528.812 1478,554.5C 1476.53,558.779 1474.53,562.779 1472,566.5C 1467.05,572.241 1462.21,578.074 1457.5,584C 1441.74,595.052 1427.24,593.552 1414,579.5C 1406.06,566.075 1407.06,553.409 1417,541.5C 1421.86,536.276 1426.36,530.776 1430.5,525C 1434.2,522.098 1438.2,519.932 1442.5,518.5 Z"/></g>
<g><path style="opacity:0.972" fill="#f39b4e" d="M 1364.5,593.5 C 1390.47,593.963 1401.3,606.963 1397,632.5C 1394.95,637.214 1392.12,641.381 1388.5,645C 1379.55,651.614 1369.88,656.948 1359.5,661C 1342.39,663.529 1330.89,656.695 1325,640.5C 1322.59,629.063 1325.43,619.23 1333.5,611C 1343.35,604.079 1353.69,598.246 1364.5,593.5 Z"/></g>
<g><path style="opacity:0.972" fill="#f39b4e" d="M 1266.5,637.5 C 1289.07,638.959 1299.23,650.959 1297,673.5C 1293.21,686.283 1284.71,693.783 1271.5,696C 1262.01,698.833 1252.34,699.833 1242.5,699C 1226.97,693.786 1219.8,682.953 1221,666.5C 1222.88,655.898 1228.71,648.398 1238.5,644C 1247.97,641.876 1257.31,639.709 1266.5,637.5 Z"/></g>
</svg>
