<svg width="31" height="25" viewBox="0 0 31 25" fill="none" xmlns="http://www.w3.org/2000/svg">
<path fill-rule="evenodd" clip-rule="evenodd" d="M5.09941 7.74705C4.22579 8.18861 3.69507 8.96298 3.69507 9.79611V19.3304C3.69507 20.6649 5.03282 21.7467 6.68303 21.7467H24.6108C26.261 21.7467 27.5988 20.6649 27.5988 19.3304V9.79611C27.5988 8.96298 27.068 8.18861 26.1944 7.74705L17.2305 3.21641C16.2616 2.72669 15.0322 2.72669 14.0633 3.21641L5.09941 7.74705ZM9.00572 10.6735C8.31919 10.3034 7.39163 10.4534 6.93394 11.0086C6.47626 11.5638 6.66177 12.3139 7.3483 12.684L14.8182 16.7113C15.32 16.9818 15.9738 16.9818 16.4756 16.7113L23.9455 12.684C24.6321 12.3139 24.8176 11.5638 24.3599 11.0086C23.9022 10.4534 22.9746 10.3034 22.2881 10.6735L15.6469 14.254L9.00572 10.6735Z" fill="#424242"/>
</svg>
