<svg width="216" height="145" viewBox="0 0 216 145" fill="none" xmlns="http://www.w3.org/2000/svg">
<circle cx="67.5" cy="67.5" r="67.5" fill="#ECEE81"/>
<path d="M164.146 72.5088C164.146 72.5088 140.557 49.7913 123.767 44.9216C106.977 40.0518 40.3915 45.6645 38.1626 47.0859C35.9337 48.5072 22.5842 63.1084 19.9919 68.9958C17.3995 74.8831 17.5691 83.7989 18.1344 86.6335C18.3149 87.9921 18.7564 89.3029 19.4346 90.4938C19.4346 90.4938 15.3967 90.2919 14.9848 92.5208C14.5729 94.7498 14.9848 108.341 14.9848 111.176C14.9848 114.011 17.2138 116.022 19.9919 116.652C22.77 117.281 54.6616 116.652 54.6616 116.652C54.6616 116.652 57.254 120.512 58.3685 120.512H210.122C213.458 120.512 209.937 115.844 209.008 115.844C209.008 115.844 211.237 98.8039 209.937 97.7944L208.636 96.7364C208.734 95.0388 208.394 93.3446 207.647 91.8169C206.9 90.2893 205.772 88.9798 204.372 88.0145C199.583 84.768 185.338 78.5092 164.146 72.5088Z" fill="#68E1FD"/>
<path d="M210.123 121.279H58.3609C57.1657 121.279 55.502 119.26 54.2341 117.427C49.3886 117.524 22.504 117.992 19.8147 117.427C16.439 116.692 14.1616 114.196 14.1616 111.16C14.1616 110.441 14.1616 109.02 14.1131 107.259C13.992 100.33 13.9112 93.9745 14.1777 92.3674C14.4765 90.5584 16.4471 89.8719 18.143 89.7023C17.7876 88.7537 17.5174 87.7754 17.3354 86.7789C16.7862 83.9604 16.5278 74.7539 19.2494 68.6485C21.971 62.5431 35.2719 47.95 37.7189 46.3914C39.3341 45.39 59.2896 43.6536 75.4414 42.8218C89.4127 42.1111 114.303 41.3359 123.969 44.1301C140.275 48.8545 162.37 69.6741 164.559 71.7658C185.047 77.6047 199.584 83.815 204.825 87.3442C206.289 88.3402 207.481 89.6865 208.292 91.2606C209.103 92.8347 209.507 94.5866 209.469 96.3569L210.438 97.116C211.52 97.964 211.334 104.094 209.889 115.327C211.044 116.135 212.311 118.105 212.311 119.365C212.323 119.626 212.274 119.886 212.169 120.126C212.064 120.365 211.905 120.577 211.706 120.746C211.258 121.106 210.697 121.295 210.123 121.279ZM54.6541 115.804C54.7871 115.804 54.9179 115.838 55.0348 115.901C55.1517 115.965 55.2512 116.056 55.3244 116.167C56.4954 117.903 57.941 119.535 58.4094 119.664H210.123C210.179 119.664 210.68 119.664 210.712 119.502C210.866 118.735 209.453 116.87 208.903 116.603C208.692 116.575 208.499 116.464 208.369 116.294C208.239 116.125 208.181 115.911 208.209 115.699C209.202 108.099 209.897 99.6034 209.364 98.3274L208.144 97.3744C208.037 97.2904 207.952 97.1803 207.898 97.0546C207.844 96.9289 207.824 96.7916 207.837 96.6557C207.927 95.1021 207.613 93.5519 206.927 92.1553C206.241 90.7587 205.205 89.5632 203.921 88.6848C198.906 85.309 184.248 79.0341 163.929 73.2437C163.802 73.2078 163.685 73.1412 163.59 73.0499C163.355 72.8237 139.943 50.4374 123.525 45.6565C106.469 40.7221 40.8282 46.6659 38.5588 47.7481C36.451 49.0887 23.1985 63.6657 20.7273 69.2784C18.1753 75.0446 18.4014 83.7746 18.9264 86.4397C19.0992 87.6814 19.4931 88.8821 20.0893 89.985C20.1757 90.1095 20.2252 90.2558 20.2324 90.4072C20.2395 90.5586 20.2039 90.7089 20.1297 90.841C20.0574 90.9734 19.9495 91.0829 19.8182 91.1572C19.6869 91.2314 19.5374 91.2673 19.3867 91.261C18.5145 91.2125 15.9787 91.374 15.7768 92.6096C15.5103 94.2248 15.6475 102.341 15.7283 107.211C15.7283 108.979 15.7848 110.441 15.7848 111.136C15.7848 113.405 17.505 115.246 20.1539 115.828C22.3586 116.304 45.7948 115.973 54.6379 115.828L54.6541 115.804Z" fill="#093F68"/>
<path d="M102.455 73.381L99.6689 49.4441C99.6689 49.4441 117.654 51.0593 127.668 54.2896C137.682 57.52 148.06 65.2405 149.917 68.915C151.775 72.5896 151.403 75.61 149.917 76.1833C148.431 76.7567 102.455 73.381 102.455 73.381Z" fill="white"/>
<path d="M148.609 77.0636C141.656 77.0636 114.69 75.1092 102.391 74.1805C102.203 74.1668 102.027 74.0884 101.891 73.9587C101.756 73.829 101.67 73.6562 101.648 73.4698L98.8695 49.541C98.8551 49.4207 98.868 49.2987 98.9071 49.1841C98.9462 49.0695 99.0107 48.9651 99.0956 48.8788C99.1795 48.7946 99.2808 48.73 99.3925 48.6895C99.5042 48.649 99.6234 48.6337 99.7417 48.6446C100.485 48.7092 117.937 50.3082 127.918 53.5466C137.65 56.7043 148.544 64.4329 150.636 68.5516C151.928 71.0874 152.316 73.6233 151.678 75.3354C151.562 75.6914 151.373 76.0191 151.122 76.2973C150.872 76.5756 150.566 76.7981 150.224 76.9505C149.692 77.0483 149.15 77.0862 148.609 77.0636ZM103.182 72.6219C121.175 73.9705 147.939 75.7876 149.683 75.4484C149.918 75.2853 150.089 75.0455 150.167 74.7701C150.539 73.7767 150.474 71.8062 149.198 69.2865C147.486 65.9189 137.367 58.3033 127.394 55.081C118.922 52.3352 104.458 50.7362 100.565 50.3486L103.182 72.6219Z" fill="#093F68"/>
<path d="M147.357 79.8659C146.768 79.8255 148.657 65.62 148.657 65.62C148.657 65.62 154.771 67.4452 156.628 71.895C158.486 76.3448 155.7 80.4231 147.357 79.8659Z" fill="#093F68"/>
<path d="M148.802 80.722C148.318 80.722 147.817 80.7058 147.3 80.6735C147.068 80.6488 146.854 80.5361 146.703 80.3585C146.436 80.0436 146 79.5025 147.849 65.5151C147.866 65.4003 147.907 65.2904 147.97 65.1928C148.032 65.0953 148.115 65.0124 148.213 64.9498C148.311 64.886 148.422 64.8444 148.537 64.8276C148.653 64.8109 148.771 64.8195 148.883 64.8528C149.15 64.9255 155.392 66.8314 157.371 71.5801C157.842 72.5337 158.055 73.5947 157.987 74.6564C157.919 75.7181 157.573 76.7432 156.983 77.6289C155.538 79.6479 152.663 80.722 148.802 80.722ZM148.043 79.1068C151.758 79.2522 154.447 78.4042 155.667 76.684C156.09 76.0201 156.331 75.2571 156.368 74.4709C156.405 73.6847 156.236 72.9025 155.877 72.2019C154.601 69.1411 151.031 67.3564 149.327 66.7184C148.649 71.9273 148.059 77.3543 148.043 79.0906V79.1068Z" fill="#093F68"/>
<path d="M94.4838 72.7672L93.3693 49.4441C93.3693 49.4441 58.8853 49.4441 55.7277 51.0593C52.57 52.6744 42.3863 60.8069 42.7497 64.4329C43.1131 68.059 48.8712 68.6889 50.5429 69.7065C52.2146 70.724 94.4838 72.7672 94.4838 72.7672Z" fill="white"/>
<path d="M94.4843 73.5748H94.4439C84.4783 73.0983 51.8356 71.4589 50.1235 70.4171C49.5257 70.1276 48.9043 69.8899 48.266 69.7065C45.8432 68.8989 42.2737 67.7359 41.9507 64.5379C41.5146 60.2173 52.4493 51.8507 55.3647 50.3486C58.5951 48.6849 89.8164 48.6365 93.3698 48.6365C93.584 48.6365 93.7894 48.7216 93.9409 48.873C94.0923 49.0245 94.1774 49.2299 94.1774 49.4441L95.2838 72.7753C95.2838 72.9895 95.1987 73.1949 95.0473 73.3463C94.8958 73.4978 94.6904 73.5829 94.4762 73.5829L94.4843 73.5748ZM92.6026 50.2517C78.809 50.2517 58.2478 50.6797 56.0996 51.7861C52.627 53.5789 43.259 61.4771 43.5578 64.3764C43.7758 66.5326 46.5459 67.4371 48.7667 68.172C49.5347 68.3832 50.2789 68.6727 50.9876 69.0362C52.6593 69.7145 77.0888 71.1197 93.6525 71.9192L92.6026 50.2517Z" fill="#093F68"/>
<path d="M51.9158 134.184C62.5132 134.184 71.1041 125.593 71.1041 114.996C71.1041 104.399 62.5132 95.8077 51.9158 95.8077C41.3184 95.8077 32.7275 104.399 32.7275 114.996C32.7275 125.593 41.3184 134.184 51.9158 134.184Z" fill="#093F68"/>
<path d="M51.9161 135C47.9597 135 44.0921 133.827 40.8025 131.629C37.5128 129.431 34.9489 126.306 33.4348 122.651C31.9208 118.996 31.5246 114.974 32.2965 111.093C33.0683 107.213 34.9735 103.649 37.7711 100.851C40.5687 98.0535 44.1331 96.1483 48.0135 95.3764C51.8939 94.6046 55.916 95.0007 59.5713 96.5148C63.2265 98.0288 66.3507 100.593 68.5488 103.882C70.7468 107.172 71.92 111.04 71.92 114.996C71.9158 120.3 69.8068 125.386 66.0563 129.136C62.3057 132.887 57.2201 134.996 51.9161 135ZM51.9161 96.6153C48.2788 96.6153 44.7232 97.694 41.699 99.715C38.6748 101.736 36.3179 104.608 34.9263 107.969C33.5347 111.329 33.171 115.027 33.8812 118.595C34.5914 122.162 36.3436 125.438 38.9161 128.01C41.4886 130.581 44.766 132.332 48.3336 133.041C51.9012 133.749 55.5988 133.384 58.9588 131.991C62.3187 130.598 65.1901 128.24 67.2097 125.215C69.2293 122.189 70.3065 118.633 70.3049 114.996C70.2985 110.122 68.3587 105.449 64.9113 102.003C61.4639 98.5572 56.7904 96.6196 51.9161 96.6153Z" fill="#093F68"/>
<path d="M51.9161 125.987C57.9864 125.987 62.9074 121.066 62.9074 114.996C62.9074 108.926 57.9864 104.005 51.9161 104.005C45.8458 104.005 40.9248 108.926 40.9248 114.996C40.9248 121.066 45.8458 125.987 51.9161 125.987Z" fill="#68E1FD"/>
<path d="M51.9165 126.795C49.583 126.795 47.3018 126.103 45.3614 124.806C43.4211 123.51 41.9088 121.667 41.0158 119.511C40.1228 117.355 39.8891 114.983 40.3444 112.694C40.7997 110.405 41.9234 108.303 43.5735 106.653C45.2236 105.003 47.3259 103.879 49.6147 103.424C51.9035 102.969 54.2758 103.202 56.4318 104.095C58.5877 104.988 60.4305 106.501 61.7269 108.441C63.0234 110.381 63.7154 112.662 63.7154 114.996C63.7133 118.125 62.4695 121.124 60.2572 123.337C58.045 125.549 55.0451 126.793 51.9165 126.795ZM51.9165 104.82C49.9021 104.82 47.9328 105.418 46.258 106.537C44.5831 107.657 43.2778 109.248 42.5073 111.109C41.7367 112.97 41.5355 115.018 41.9291 116.994C42.3227 118.969 43.2934 120.784 44.7185 122.208C46.1435 123.632 47.9588 124.601 49.9348 124.993C51.9107 125.385 53.9586 125.182 55.8193 124.41C57.68 123.638 59.2699 122.332 60.3879 120.656C61.5059 118.98 62.1018 117.01 62.1002 114.996C62.1002 112.295 61.0273 109.705 59.1175 107.795C57.2077 105.885 54.6174 104.812 51.9165 104.812V104.82Z" fill="#093F68"/>
<path d="M163.195 134.184C173.792 134.184 182.383 125.593 182.383 114.996C182.383 104.399 173.792 95.8077 163.195 95.8077C152.597 95.8077 144.006 104.399 144.006 114.996C144.006 125.593 152.597 134.184 163.195 134.184Z" fill="#093F68"/>
<path d="M163.194 135C159.238 135 155.37 133.827 152.08 131.629C148.791 129.431 146.227 126.306 144.713 122.651C143.199 118.996 142.802 114.974 143.574 111.093C144.346 107.213 146.251 103.649 149.049 100.851C151.847 98.0535 155.411 96.1483 159.291 95.3764C163.172 94.6046 167.194 95.0007 170.849 96.5148C174.504 98.0288 177.629 100.593 179.827 103.882C182.025 107.172 183.198 111.04 183.198 114.996C183.194 120.3 181.085 125.386 177.334 129.136C173.584 132.887 168.498 134.996 163.194 135ZM163.194 96.6153C159.557 96.6153 156.001 97.694 152.977 99.715C149.953 101.736 147.596 104.608 146.204 107.969C144.813 111.329 144.449 115.027 145.159 118.595C145.869 122.162 147.621 125.438 150.194 128.01C152.766 130.581 156.044 132.332 159.611 133.041C163.179 133.749 166.877 133.384 170.237 131.991C173.597 130.598 176.468 128.24 178.488 125.215C180.507 122.189 181.584 118.633 181.583 114.996C181.576 110.122 179.637 105.449 176.189 102.003C172.742 98.5572 168.068 96.6196 163.194 96.6153Z" fill="#093F68"/>
<path d="M163.194 125.987C169.264 125.987 174.185 121.066 174.185 114.996C174.185 108.926 169.264 104.005 163.194 104.005C157.124 104.005 152.203 108.926 152.203 114.996C152.203 121.066 157.124 125.987 163.194 125.987Z" fill="#68E1FD"/>
<path d="M163.193 126.795C160.86 126.795 158.579 126.103 156.638 124.806C154.698 123.51 153.186 121.667 152.293 119.511C151.4 117.355 151.166 114.983 151.621 112.694C152.077 110.405 153.2 108.303 154.85 106.653C156.5 105.003 158.603 103.879 160.892 103.424C163.18 102.969 165.553 103.202 167.709 104.095C169.865 104.988 171.707 106.501 173.004 108.441C174.3 110.381 174.992 112.662 174.992 114.996C174.99 118.125 173.746 121.124 171.534 123.337C169.322 125.549 166.322 126.793 163.193 126.795ZM163.193 104.82C161.179 104.82 159.21 105.418 157.535 106.537C155.86 107.657 154.555 109.248 153.784 111.109C153.014 112.97 152.812 115.018 153.206 116.994C153.6 118.969 154.57 120.784 155.995 122.208C157.42 123.632 159.236 124.601 161.212 124.993C163.188 125.385 165.235 125.182 167.096 124.41C168.957 123.638 170.547 122.332 171.665 120.656C172.783 118.98 173.379 117.01 173.377 114.996C173.377 113.659 173.114 112.334 172.602 111.099C172.09 109.863 171.34 108.741 170.394 107.795C169.449 106.849 168.326 106.099 167.091 105.588C165.855 105.076 164.531 104.812 163.193 104.812V104.82Z" fill="#093F68"/>
<path d="M23.3356 70.9904C22.5867 72.7037 21.9711 74.4722 21.4943 76.2801C20.7352 80.738 20.6867 85.1636 21.1713 85.5755C21.6559 85.9874 26.3641 85.8904 26.9213 85.5755C27.4786 85.2605 31.3065 78.3072 31.7669 76.8051C32.2272 75.303 33.2205 72.2261 32.3402 71.6123C31.46 70.9985 24.1998 70.1263 23.3356 70.9904Z" fill="#FFBC0E"/>
<path d="M23.6668 86.6658C21.1875 86.6658 20.8241 86.3428 20.6383 86.1893C19.2654 84.986 20.6868 76.2318 20.7029 76.1429C21.1853 74.2728 21.8173 72.4444 22.5927 70.6755C22.6329 70.5822 22.6905 70.4972 22.7623 70.4252C24.0221 69.1654 31.8073 70.2314 32.8329 70.9501C33.8585 71.6689 33.7778 73.4375 32.5664 77.0555C32.2514 78.0085 28.3104 85.729 27.309 86.2862C26.2417 86.5788 25.1361 86.7068 24.0302 86.6658H23.6668ZM21.7689 84.9456C23.3385 85.1046 24.9213 85.0802 26.4853 84.8729C28.2104 82.2172 29.7304 79.4337 31.032 76.5467C32.1222 73.3164 31.9446 72.428 31.8396 72.2584C30.7978 71.7335 25.1689 71.1601 23.9414 71.5558C23.2541 73.124 22.6924 74.7443 22.2616 76.4014C21.7173 79.2148 21.5516 82.0883 21.7689 84.9456Z" fill="#093F68"/>
<path d="M204.897 97.964C204.897 97.964 204.478 93.1669 202.071 91.8667C199.664 90.5665 190.337 86.8354 189.699 88.5071C189.061 90.1788 193.777 96.1065 194.98 97.1241C196.184 98.1417 204.897 97.964 204.897 97.964Z" fill="#FFBC0E"/>
<path d="M202.959 98.7876C199.874 98.7876 195.505 98.6261 194.455 97.7458C193.72 97.1159 187.995 90.6067 188.939 88.2163C189.012 88.0275 189.126 87.8572 189.273 87.7175C189.42 87.5779 189.595 87.4725 189.787 87.4087C192.251 86.4961 201.094 90.3968 202.45 91.1398C205.172 92.6015 205.681 97.342 205.681 97.875C205.69 97.9844 205.677 98.0945 205.642 98.1987C205.607 98.3028 205.552 98.3988 205.479 98.4807C205.405 98.5649 205.314 98.6327 205.213 98.68C205.111 98.7272 205.001 98.7529 204.889 98.7553L202.959 98.7876ZM190.433 88.9027C190.369 90.1706 193.971 95.21 195.505 96.5102C196.143 96.9786 200.23 97.2047 203.977 97.1644C203.71 95.6622 203.04 93.3041 201.683 92.5773C198.719 90.9782 191.806 88.5232 190.433 88.9027Z" fill="#093F68"/>
<path d="M24.5065 93.8371H19.4267C19.2125 93.8371 19.0071 93.752 18.8557 93.6006C18.7042 93.4491 18.6191 93.2437 18.6191 93.0295C18.6191 92.8153 18.7042 92.6099 18.8557 92.4585C19.0071 92.307 19.2125 92.2219 19.4267 92.2219H24.5065C24.7206 92.2219 24.9261 92.307 25.0775 92.4585C25.229 92.6099 25.314 92.8153 25.314 93.0295C25.314 93.2437 25.229 93.4491 25.0775 93.6006C24.9261 93.752 24.7206 93.8371 24.5065 93.8371Z" fill="#093F68"/>
<path d="M120.706 82.5066H111.161C110.946 82.5066 110.741 82.4215 110.59 82.2701C110.438 82.1186 110.353 81.9132 110.353 81.699C110.353 81.4849 110.438 81.2794 110.59 81.128C110.741 80.9765 110.946 80.8914 111.161 80.8914H120.706C120.921 80.8914 121.126 80.9765 121.277 81.128C121.429 81.2794 121.514 81.4849 121.514 81.699C121.514 81.9132 121.429 82.1186 121.277 82.2701C121.126 82.4215 120.921 82.5066 120.706 82.5066Z" fill="#093F68"/>
<path d="M88.5564 82.5066H79.0107C78.7965 82.5066 78.5911 82.4215 78.4397 82.2701C78.2882 82.1186 78.2031 81.9132 78.2031 81.699C78.2031 81.4849 78.2882 81.2794 78.4397 81.128C78.5911 80.9765 78.7965 80.8914 79.0107 80.8914H88.5564C88.7706 80.8914 88.976 80.9765 89.1275 81.128C89.2789 81.2794 89.364 81.4849 89.364 81.699C89.364 81.9132 89.2789 82.1186 89.1275 82.2701C88.976 82.4215 88.7706 82.5066 88.5564 82.5066Z" fill="#093F68"/>
<path d="M101.13 119.236C100.915 119.236 100.71 119.151 100.559 118.999C100.407 118.848 100.322 118.642 100.322 118.428V84.1703C100.322 82.9993 97.019 77.7096 93.8209 73.2436C93.6956 73.069 93.6448 72.8519 93.6797 72.6398C93.7145 72.4278 93.8321 72.2383 94.0067 72.113C94.1813 71.9877 94.3984 71.9369 94.6105 71.9717C94.8225 72.0065 95.012 72.1242 95.1373 72.2987C96.2679 73.9139 101.937 81.9009 101.937 84.1703V118.428C101.937 118.642 101.852 118.848 101.701 118.999C101.549 119.151 101.344 119.236 101.13 119.236Z" fill="#093F68"/>
<path d="M62.908 63.6738C62.7679 63.6738 62.6301 63.6373 62.5084 63.5679C62.3866 63.4985 62.285 63.3986 62.2135 63.2781C62.1043 63.0939 62.0727 62.8738 62.1257 62.6664C62.1787 62.4589 62.312 62.2809 62.4961 62.1717L78.6075 52.6987C78.6989 52.6322 78.8032 52.5857 78.9137 52.5621C79.0242 52.5384 79.1385 52.5383 79.2491 52.5616C79.3596 52.5849 79.4641 52.6311 79.5556 52.6973C79.6472 52.7635 79.7239 52.8482 79.7807 52.9459C79.8375 53.0436 79.8731 53.1521 79.8854 53.2644C79.8976 53.3768 79.8861 53.4904 79.8517 53.5981C79.8172 53.7057 79.7605 53.8049 79.6853 53.8892C79.6102 53.9736 79.5181 54.0412 79.4151 54.0877L63.3118 63.5607C63.1895 63.6333 63.0502 63.6723 62.908 63.6738Z" fill="#DFEAEF"/>
<path d="M73.5999 68.5273C73.4648 68.5271 73.3319 68.4929 73.2134 68.428C73.0948 68.3631 72.9945 68.2695 72.9215 68.1558C72.8054 67.9768 72.7649 67.7591 72.8088 67.5503C72.8527 67.3414 72.9774 67.1585 73.1557 67.0413L83.3314 60.4272C83.5113 60.3105 83.7302 60.27 83.9399 60.3147C84.1497 60.3593 84.3331 60.4855 84.4499 60.6654C84.5666 60.8453 84.6071 61.0643 84.5624 61.274C84.5177 61.4838 84.3915 61.6672 84.2116 61.7839L74.036 68.3981C73.906 68.482 73.7547 68.5269 73.5999 68.5273Z" fill="#DFEAEF"/>
<path d="M111.161 70.086C110.997 70.0857 110.837 70.0356 110.703 69.9423C110.568 69.8489 110.465 69.7168 110.407 69.5634C110.349 69.41 110.339 69.2426 110.379 69.0835C110.418 68.9244 110.505 68.7811 110.628 68.6727L123.098 57.4957C123.177 57.4246 123.269 57.3698 123.369 57.3344C123.469 57.299 123.575 57.2837 123.681 57.2893C123.788 57.2949 123.892 57.3214 123.987 57.3672C124.083 57.413 124.169 57.4772 124.24 57.5562C124.311 57.6352 124.366 57.7275 124.402 57.8277C124.437 57.9279 124.452 58.034 124.447 58.1401C124.441 58.2463 124.415 58.3502 124.369 58.4461C124.323 58.542 124.259 58.6279 124.18 58.699L111.702 69.8841C111.553 70.0158 111.36 70.0877 111.161 70.086Z" fill="#DFEAEF"/>
<path d="M127.498 71.8142C127.39 71.8138 127.282 71.7914 127.182 71.7484C127.082 71.7054 126.992 71.6426 126.917 71.5639C126.767 71.4125 126.682 71.2079 126.682 70.9945C126.682 70.7812 126.767 70.5765 126.917 70.4252L134.185 63.4476C134.26 63.3719 134.35 63.3118 134.448 63.2708C134.546 63.2298 134.652 63.2087 134.759 63.2087C134.865 63.2087 134.971 63.2298 135.069 63.2708C135.168 63.3118 135.257 63.3719 135.332 63.4476C135.482 63.5989 135.567 63.8036 135.567 64.0169C135.567 64.2303 135.482 64.435 135.332 64.5863L128.064 71.5639C127.991 71.6407 127.903 71.7023 127.806 71.7453C127.709 71.7882 127.604 71.8117 127.498 71.8142Z" fill="#DFEAEF"/>
<line y1="142.5" x2="216" y2="142.5" stroke="black" stroke-width="5"/>
</svg>
