<svg width="30" height="34" viewBox="0 0 30 34" fill="none" xmlns="http://www.w3.org/2000/svg">
<g opacity="0.8">
<path fill-rule="evenodd" clip-rule="evenodd" d="M20.8378 11.2429C23.6109 12.4744 25.5455 15.2568 25.5455 18.4919V22.8947C25.5455 24.8401 23.9717 26.417 22.0303 26.417H21.0014C21.0986 26.6924 21.1515 26.9888 21.1515 27.2976V30.8198C21.1515 32.2788 19.9712 33.4615 18.5152 33.4615H16.7576C15.3016 33.4615 14.1212 32.2788 14.1212 30.8198V27.2976C14.1212 26.9888 14.1741 26.6924 14.2712 26.417H13.2424C11.3011 26.417 9.72729 24.8401 9.72729 22.8947V18.4919C9.72729 15.2568 11.6618 12.4744 14.4349 11.2429C13.1758 10.2774 12.3637 8.756 12.3637 7.04453C12.3637 4.1266 14.7243 1.76113 17.6364 1.76113C20.5485 1.76113 22.9091 4.1266 22.9091 7.04453C22.9091 8.756 22.0969 10.2774 20.8378 11.2429Z" fill="#4287F5"/>
</g>
<path d="M19.8333 19.3725C19.8333 20.3451 19.0464 21.1336 18.0757 21.1336C17.105 21.1336 16.3181 20.3451 16.3181 19.3725C16.3181 18.3998 17.105 17.6113 18.0757 17.6113C19.0464 17.6113 19.8333 18.3998 19.8333 19.3725Z" fill="black"/>
<path d="M13.6819 19.3725C13.6819 20.3451 12.895 21.1336 11.9243 21.1336C10.9536 21.1336 10.1667 20.3451 10.1667 19.3725C10.1667 18.3998 10.9536 17.6113 11.9243 17.6113C12.895 17.6113 13.6819 18.3998 13.6819 19.3725Z" fill="black"/>
<path fill-rule="evenodd" clip-rule="evenodd" d="M15 10.5668C17.9122 10.5668 20.2727 8.20133 20.2727 5.2834C20.2727 2.36547 17.9122 0 15 0C12.088 0 9.72729 2.36547 9.72729 5.2834C9.72729 8.20133 12.088 10.5668 15 10.5668ZM15 1.76113C16.9414 1.76113 18.5152 3.33811 18.5152 5.2834C18.5152 7.2287 16.9414 8.80567 15 8.80567C13.0587 8.80567 11.4849 7.2287 11.4849 5.2834C11.4849 3.33811 13.0587 1.76113 15 1.76113Z" fill="black"/>
<path fill-rule="evenodd" clip-rule="evenodd" d="M15.8788 22.8947H14.1212C12.6652 22.8947 11.4849 24.0775 11.4849 25.5364V29.0587C11.4849 30.5176 12.6652 31.7004 14.1212 31.7004H15.8788C17.3348 31.7004 18.5152 30.5176 18.5152 29.0587V25.5364C18.5152 24.0775 17.3348 22.8947 15.8788 22.8947ZM13.2424 25.5364C13.2424 25.0502 13.6359 24.6559 14.1212 24.6559H15.8788C16.3641 24.6559 16.7576 25.0502 16.7576 25.5364V29.0587C16.7576 29.545 16.3641 29.9393 15.8788 29.9393H14.1212C13.6359 29.9393 13.2424 29.545 13.2424 29.0587V25.5364Z" fill="black"/>
<path d="M24.6666 4.84312C23.9386 4.84312 23.3484 4.25175 23.3484 3.52227C23.3484 2.79279 23.9386 2.20142 24.6666 2.20142H28.1817C28.9097 2.20142 29.4999 2.79279 29.4999 3.52227C29.4999 4.25175 28.9097 4.84312 28.1817 4.84312H24.6666Z" fill="black"/>
<path d="M1.81818 4.84312C1.09018 4.84312 0.5 4.25175 0.5 3.52227C0.5 2.79279 1.09018 2.20142 1.81818 2.20142H5.33333C6.06134 2.20142 6.65152 2.79279 6.65152 3.52227C6.65152 4.25175 6.06134 4.84312 5.33333 4.84312H1.81818Z" fill="black"/>
<path d="M4.64136 4.163L5.17209 2.45445L11.6717 3.76214L11.1409 5.47069L4.64136 4.163Z" fill="black"/>
<path d="M18.3284 3.76209L18.859 5.47064L25.3587 4.16294L24.8279 2.4544L18.3284 3.76209Z" fill="black"/>
<path fill-rule="evenodd" clip-rule="evenodd" d="M22.909 16.7308C22.909 12.3539 19.368 8.80567 14.9999 8.80567C10.6318 8.80567 7.09082 12.3539 7.09082 16.7308V21.1336C7.09082 23.0789 8.66461 24.6559 10.606 24.6559H19.3939C21.3353 24.6559 22.909 23.0789 22.909 21.1336V16.7308ZM8.8484 16.7308C8.8484 13.3265 11.6025 10.5668 14.9999 10.5668C18.3973 10.5668 21.1514 13.3265 21.1514 16.7308V21.1336C21.1514 22.1063 20.3646 22.8947 19.3939 22.8947H10.606C9.6353 22.8947 8.8484 22.1063 8.8484 21.1336V16.7308Z" fill="black"/>
</svg>
