<svg width="38" height="38" viewBox="0 0 38 38" fill="none" xmlns="http://www.w3.org/2000/svg">
<g id="Filter Oli 1" clip-path="url(#clip0_952_945)">
<g id="Group">
<g id="Group_2">
<path id="Vector" d="M16.5789 20.4475H15.9737C15.6396 20.4475 15.3684 20.1763 15.3684 19.8422V18.6317C15.3684 18.2976 15.6396 18.0264 15.9737 18.0264H20.2105V15.6054C20.2105 15.3094 20.3206 15.0419 20.4974 14.8313L13.5526 4.21017L4.74429 17.682C3.37943 19.7696 2.65796 22.1906 2.65796 24.6843C2.65796 30.6915 7.54543 35.579 13.5526 35.579C14.5822 35.579 15.5984 35.4301 16.5789 35.1474V20.4475Z" fill="#F0BC5E"/>
</g>
<g id="Group_3">
<path id="Vector_2" d="M36.5525 17.4212H32.9209V15.6054C32.9209 14.6043 32.1063 13.7896 31.1052 13.7896H22.8942L13.5526 0L3.05684 15.494C1.21201 18.2171 0.236938 21.3953 0.236938 24.6843C0.236938 32.0267 6.21024 38 13.5526 38C14.7202 38 15.8738 37.8414 16.9911 37.5436C17.3882 37.8281 17.8706 38 18.3947 38H34.1315C35.4667 38 36.5525 36.9142 36.5525 35.579V21.0527C37.2201 21.0527 37.763 20.5098 37.763 19.8422V18.6317C37.763 17.9641 37.2201 17.4212 36.5525 17.4212ZM31.7104 15.6054V17.4212H20.8158V15.6054C20.8158 15.2719 21.0875 15.0001 21.421 15.0001H31.1052C31.4387 15.0001 31.7104 15.2719 31.7104 15.6054ZM1.44746 24.6843C1.44746 21.638 2.3505 18.6946 4.05915 16.1725L13.5526 2.15835L21.4319 13.7896H21.421C20.4199 13.7896 19.6052 14.6043 19.6052 15.6054V17.4212H15.9737C15.3061 17.4212 14.7632 17.9641 14.7632 18.6317V19.8422C14.7632 20.5098 15.3061 21.0527 15.9737 21.0527V35.579C15.9737 35.9076 16.0409 36.2205 16.1601 36.5068C15.3079 36.6939 14.4339 36.7895 13.5526 36.7895C6.87784 36.7895 1.44746 31.3597 1.44746 24.6843ZM31.7104 33.1579V21.0527H32.9209V33.1579H31.7104ZM30.4999 33.1579H29.2894V21.0527H30.4999V33.1579ZM28.0789 33.1579H26.8684V21.0527H28.0789V33.1579ZM25.6578 33.1579H24.4473V21.0527H25.6578V33.1579ZM23.2368 33.1579H22.0263V21.0527H23.2368V33.1579ZM20.8158 33.1579H19.6052V21.0527H20.8158V33.1579ZM18.3947 33.1579H17.1842V21.0527H18.3947V33.1579ZM34.1315 36.7895H18.3947C17.7271 36.7895 17.1842 36.2466 17.1842 35.579V34.3684H35.342V35.579C35.342 36.2466 34.7991 36.7895 34.1315 36.7895ZM35.342 33.1579H34.1315V21.0527H35.342V33.1579ZM15.9737 19.8422V18.6317H36.5525L36.5531 19.8422H15.9737Z" fill="black"/>
<path id="Vector_3" d="M13.5527 21.0527C13.5527 19.0499 11.9239 17.4212 9.92111 17.4212C7.9183 17.4212 6.28955 19.0499 6.28955 21.0527C6.28955 23.0555 7.9183 24.6843 9.92111 24.6843C11.9239 24.6843 13.5527 23.0555 13.5527 21.0527ZM7.50007 21.0527C7.50007 19.7175 8.5859 18.6317 9.92111 18.6317C11.2563 18.6317 12.3421 19.7175 12.3421 21.0527C12.3421 22.3879 11.2563 23.4738 9.92111 23.4738C8.5859 23.4738 7.50007 22.3879 7.50007 21.0527Z" fill="black"/>
<path id="Vector_4" d="M13.5526 16.8159C14.8878 16.8159 15.9737 15.7301 15.9737 14.3949C15.9737 13.0597 14.8878 11.9738 13.5526 11.9738C12.2174 11.9738 11.1316 13.0597 11.1316 14.3949C11.1316 15.7301 12.2174 16.8159 13.5526 16.8159ZM13.5526 13.1844C14.2202 13.1844 14.7631 13.7273 14.7631 14.3949C14.7631 15.0625 14.2202 15.6054 13.5526 15.6054C12.885 15.6054 12.3421 15.0625 12.3421 14.3949C12.3421 13.7273 12.885 13.1844 13.5526 13.1844Z" fill="black"/>
<path id="Vector_5" d="M12.3422 25.8948C11.007 25.8948 9.92114 26.9806 9.92114 28.3158C9.92114 29.651 11.007 30.7369 12.3422 30.7369C13.6774 30.7369 14.7632 29.651 14.7632 28.3158C14.7632 26.9806 13.6774 25.8948 12.3422 25.8948ZM12.3422 29.5264C11.6746 29.5264 11.1317 28.9834 11.1317 28.3158C11.1317 27.6482 11.6746 27.1053 12.3422 27.1053C13.0098 27.1053 13.5527 27.6482 13.5527 28.3158C13.5527 28.9834 13.0098 29.5264 12.3422 29.5264Z" fill="black"/>
</g>
</g>
</g>
<defs>
<clipPath id="clip0_952_945">
<rect width="38" height="38" fill="white"/>
</clipPath>
</defs>
</svg>
