<svg width="43" height="43" viewBox="0 0 43 43" fill="none" xmlns="http://www.w3.org/2000/svg">
<g id="672336 1">
<g id="Group">
<g id="Group_2">
<path id="Vector" d="M10.0781 20.8281H7.39062V13.4375C7.39062 13.0812 7.53222 12.7393 7.78426 12.4874L12.4874 7.78426C12.7393 7.53222 13.0812 7.39062 13.4375 7.39062H20.8281V10.0781H13.9941L10.0781 13.9941V20.8281Z" fill="#463C4B"/>
</g>
<g id="Group_3">
<path id="Vector_2" d="M10.0781 40.9844H32.9219C34.4061 40.9844 35.6094 39.7811 35.6094 38.2969V10.0781C35.6094 8.59387 34.4061 7.39062 32.9219 7.39062H20.5976C19.8848 7.39062 19.2013 7.67374 18.6973 8.17781L8.17781 18.6972C7.67374 19.2013 7.39062 19.8848 7.39062 20.5976V38.2969C7.39062 39.7811 8.59387 40.9844 10.0781 40.9844Z" fill="#463C4B"/>
</g>
<g id="Group_4">
<path id="Vector_3" d="M27.5469 10.0781C27.5469 8.59387 26.3436 7.39062 24.8594 7.39062H20.5976C19.8848 7.39062 19.2013 7.67382 18.6973 8.17781L8.17781 18.6972C7.67374 19.2012 7.39062 19.8848 7.39062 20.5976V38.2969C7.39062 39.7811 8.59387 40.9844 10.0781 40.9844H24.8594C26.3436 40.9844 27.5469 39.7811 27.5469 38.2969V10.0781Z" fill="#555A6E"/>
</g>
<g id="Group_5">
<path id="Vector_4" d="M11.4219 35.6094V21.7107C11.4219 21.3544 11.5635 21.0126 11.8154 20.7605L20.7605 11.8154C21.0126 11.5634 21.3543 11.4219 21.7107 11.4219H22.8438C23.2148 11.4219 23.5156 11.7227 23.5156 12.0938V35.6094C23.5156 36.3515 22.914 36.9531 22.1719 36.9531H12.7656C12.0235 36.9531 11.4219 36.3515 11.4219 35.6094Z" fill="#D7E6F0"/>
</g>
<g id="Group_6">
<path id="Vector_5" d="M32.25 6.04688H22.8438C22.4727 6.04688 22.1719 5.74604 22.1719 5.375V2.6875C22.1719 2.31646 22.4727 2.01562 22.8438 2.01562H32.25C32.621 2.01562 32.9219 2.31646 32.9219 2.6875V5.375C32.9219 5.74604 32.621 6.04688 32.25 6.04688Z" fill="#F04B37"/>
</g>
<g id="Group_7">
<path id="Vector_6" d="M32.25 6.04688H27.5469V3.35938C27.5469 2.98833 27.8477 2.6875 28.2188 2.6875H32.9219V5.375C32.9219 5.74604 32.621 6.04688 32.25 6.04688Z" fill="#D73228"/>
</g>
<g id="Group_8">
<path id="Vector_7" d="M23.5156 6.04688H31.5781V7.39062H23.5156V6.04688Z" fill="#463C4B"/>
</g>
<g id="Group_9">
<g id="Group_10">
<path id="Vector_8" d="M18.3471 21.261C18.1373 20.9879 17.8131 20.8281 17.4688 20.8281C17.1244 20.8281 16.8002 20.9879 16.5904 21.261C15.7117 22.4054 13.4375 25.5593 13.4375 27.5469C13.4375 29.7733 15.2423 31.5781 17.4688 31.5781C19.6952 31.5781 21.5 29.7733 21.5 27.5469C21.5 25.5593 19.2258 22.4054 18.3471 21.261Z" fill="#F5871E"/>
</g>
<g id="Group_11">
<path id="Vector_9" d="M15.4531 28.2187C15.0821 28.2187 14.7812 27.9179 14.7812 27.5469C14.7812 26.6606 15.5803 24.9919 16.9187 23.0832C17.1316 22.7793 17.5507 22.7058 17.8545 22.9188C18.1583 23.1318 18.2319 23.5508 18.0188 23.8547C16.6392 25.8223 16.125 27.1636 16.125 27.5469C16.125 27.9179 15.8242 28.2187 15.4531 28.2187Z" fill="#FABE19"/>
</g>
</g>
</g>
</g>
</svg>
