<svg width="23" height="16" viewBox="0 0 23 16" fill="none" xmlns="http://www.w3.org/2000/svg">
<g id="Frame">
<path id="Vector" fill-rule="evenodd" clip-rule="evenodd" d="M15.971 9.6C14.7003 10.6667 14.7003 11.7333 13.4295 11.7333C12.1587 11.7333 10.888 10.6667 9.61722 9.6C8.34647 8.53333 7.07571 7.46667 7.07571 6.4C7.07571 5.33333 8.34647 5.33333 9.61722 4.26667C10.888 3.2 7.07571 0 5.80495 0C4.53419 0 1.99268 3.2 1.99268 3.2C1.99268 5.33333 4.60408 9.65867 7.07571 11.7333C9.54733 13.808 14.7003 16 17.2418 16C17.2418 16 21.054 13.8667 21.054 12.8C21.054 11.7333 17.2418 8.53333 15.971 9.6Z" fill="#0070BA"/>
</g>
</svg>
