<svg width="30" height="24" viewBox="0 0 30 24" fill="none" xmlns="http://www.w3.org/2000/svg">
<path d="M2.96094 3.5999C2.96094 2.93716 3.62376 2.3999 4.4414 2.3999H7.62865C8.35236 2.3999 8.96999 2.824 9.08897 3.40262L10.1835 8.72567C10.2903 9.24531 9.96657 9.76067 9.38525 9.99626L7.09329 10.9251C8.74593 14.2539 12.0239 16.9108 16.1306 18.2504L17.2766 16.3926C17.5672 15.9214 18.203 15.659 18.8441 15.7456L25.4113 16.6328C26.1251 16.7292 26.6483 17.2298 26.6483 17.8165V20.3999C26.6483 21.0626 25.9855 21.5999 25.1679 21.5999H22.207C11.5777 21.5999 2.96094 14.6155 2.96094 5.9999V3.5999Z" fill="black"/>
</svg>
