<svg width="22" height="20" viewBox="0 0 22 20" fill="none" xmlns="http://www.w3.org/2000/svg">
<path d="M0.599609 1.60002C0.599609 0.937283 1.18164 0.400024 1.89961 0.400024H4.69834C5.33384 0.400024 5.87618 0.82412 5.98066 1.40275L6.94176 6.72579C7.03559 7.24543 6.75128 7.76079 6.24083 7.99639L4.22825 8.92527C5.67944 12.254 8.55779 14.911 12.1639 16.2505L13.1702 14.3927C13.4254 13.9216 13.9837 13.6591 14.5467 13.7457L20.3133 14.6329C20.9402 14.7293 21.3996 15.23 21.3996 15.8166V18.4C21.3996 19.0628 20.8176 19.6 20.0996 19.6H17.4996C8.166 19.6 0.599609 12.6157 0.599609 4.00002V1.60002Z" fill="black"/>
</svg>
