<svg width="41" height="39" viewBox="0 0 41 39" fill="none" xmlns="http://www.w3.org/2000/svg">
<g id="g6261">
<path id="path6263" d="M34.029 5.91742H25.9338V11.2874H34.029V5.91742Z" fill="#CBCBCB"/>
<path id="path6265" d="M28.7037 5.91742H25.9339V11.2874H28.7037V5.91742Z" fill="#AAAAAA"/>
<g id="g6267">
<g id="Clip path group">
<mask id="mask0_952_1051" style="mask-type:luminance" maskUnits="userSpaceOnUse" x="0" y="0" width="41" height="39">
<g id="clipPath6273">
<path id="path6271" d="M0 0H41V39H0V0Z" fill="white"/>
</g>
</mask>
<g mask="url(#mask0_952_1051)">
<g id="g6269">
<g id="g6275">
<path id="path6277" d="M4.97594 9.46362H36.0241C38.4404 9.46362 40.3993 11.3269 40.3993 13.6255V30.8461C40.3993 33.1446 38.4404 35.0079 36.0241 35.0079H4.97594C2.55958 35.0079 0.600708 33.1446 0.600708 30.8461V13.6255C0.600708 11.3269 2.55958 9.46362 4.97594 9.46362Z" fill="#E2DFE2"/>
</g>
<g id="g6279">
<path id="path6281" d="M7.31918 35.0072H4.9761C2.55942 35.0072 0.600708 33.1441 0.600708 30.846V13.6251C0.600708 11.3262 2.55942 9.46307 4.9761 9.46307H7.31918C4.90323 9.46307 2.94459 11.3262 2.94459 13.6251V30.846C2.94459 33.1441 4.90323 35.0072 7.31918 35.0072Z" fill="#CBCBCB"/>
</g>
<g id="g6283">
<path id="path6285" d="M40.3997 22.0184V30.846C40.3997 33.1441 38.441 35.0072 36.0242 35.0072H4.97648C2.55972 35.0072 0.601013 33.1441 0.601013 30.846V23.2333C2.14412 22.7839 2.68705 21.799 5.06937 21.799C8.15558 21.799 8.15558 23.4527 11.2418 23.4527C14.3272 23.4527 14.3272 21.799 17.4133 21.799C20.4995 21.799 20.4995 23.4527 23.5858 23.4527C26.672 23.4527 26.672 21.799 29.7582 21.799C32.8443 21.799 32.8443 23.4527 35.9313 23.4527C38.3128 23.4527 38.8566 22.4678 40.3997 22.0184Z" fill="#ECBE6B"/>
</g>
<g id="g6287">
<path id="path6289" d="M2.94431 30.8459V22.1619C2.10758 22.4893 1.53862 22.9601 0.600586 23.2333V30.8459C0.600586 33.1439 2.5593 35.0071 4.97605 35.0071H7.31898C4.90302 35.0071 2.94431 33.1439 2.94431 30.8459Z" fill="#E7A52E"/>
</g>
<g id="g6291">
<path id="path6293" d="M8.67564 9.46328H4.97604C2.55936 9.46328 0.600647 11.3264 0.600647 13.6253V30.8462C0.600647 33.1443 2.55936 35.0074 4.97604 35.0074H33.0457" stroke="black" stroke-miterlimit="10" stroke-linecap="round" stroke-linejoin="round"/>
</g>
<g id="g6295">
<path id="path6297" d="M11.078 9.46338H36.0239C38.4405 9.46338 40.3992 11.3265 40.3992 13.6254V30.8463C40.3992 33.1444 38.4405 35.0075 36.0239 35.0075H35.4384" stroke="black" stroke-miterlimit="10" stroke-linecap="round" stroke-linejoin="round"/>
</g>
<g id="g6299">
<path id="path6301" d="M2.60327 22.3082C3.21187 22.0241 3.93017 21.7994 5.06888 21.7994C8.15509 21.7994 8.15509 23.4531 11.2413 23.4531C14.3266 23.4531 14.3266 21.7994 17.4128 21.7994C20.4991 21.7994 20.4991 23.4531 23.5853 23.4531C26.6715 23.4531 26.6715 21.7994 29.7577 21.7994C32.8438 21.7994 32.8438 23.4531 35.9308 23.4531C37.0695 23.4531 37.7878 23.2284 38.3964 22.9443" stroke="black" stroke-miterlimit="10" stroke-linecap="round" stroke-linejoin="round"/>
</g>
<path id="path6303" d="M34.029 6.72796H25.9338V9.46359H34.029V6.72796Z" stroke="black" stroke-miterlimit="10" stroke-linecap="round" stroke-linejoin="round"/>
<g id="g6305">
<path id="path6307" d="M34.3029 3.99233H25.6601C24.8659 3.99233 24.2221 4.60475 24.2221 5.36015C24.2221 6.11562 24.8659 6.72797 25.6601 6.72797H34.3029C35.097 6.72797 35.7409 6.11562 35.7409 5.36015C35.7409 4.60475 35.097 3.99233 34.3029 3.99233Z" fill="#DA4A54"/>
</g>
<g id="g6309">
<path id="path6311" d="M27.8216 6.32752C28.0819 6.57507 28.4414 6.72818 28.8386 6.72818H25.6603C25.2631 6.72818 24.9036 6.57507 24.6433 6.32752C24.3831 6.07996 24.2221 5.73795 24.2221 5.36013C24.2221 4.60451 24.8659 3.99209 25.6603 3.99209H28.8386C28.0442 3.99209 27.4004 4.60451 27.4004 5.36013C27.4004 5.73795 27.5614 6.07996 27.8216 6.32752Z" fill="#C32430"/>
</g>
<g id="g6313">
<path id="path6315" d="M34.3029 3.99233H25.6601C24.8659 3.99233 24.2221 4.60475 24.2221 5.36015C24.2221 6.11562 24.8659 6.72797 25.6601 6.72797H34.3029C35.097 6.72797 35.7409 6.11562 35.7409 5.36015C35.7409 4.60475 35.097 3.99233 34.3029 3.99233Z" stroke="black" stroke-miterlimit="10" stroke-linecap="round" stroke-linejoin="round"/>
</g>
<g id="g6317">
<path id="path6319" d="M6.48569 12.9085H4.62732" stroke="black" stroke-miterlimit="10" stroke-linecap="round" stroke-linejoin="round"/>
</g>
<g id="g6321">
<path id="path6323" d="M8.88804 16.5561H4.62732" stroke="black" stroke-miterlimit="10" stroke-linecap="round" stroke-linejoin="round"/>
</g>
<g id="g6325">
<path id="path6327" d="M6.48569 20.2036H4.62732" stroke="black" stroke-miterlimit="10" stroke-linecap="round" stroke-linejoin="round"/>
</g>
<g id="g6329">
<path id="path6331" d="M6.48569 23.8512H4.62732" stroke="black" stroke-miterlimit="10" stroke-linecap="round" stroke-linejoin="round"/>
</g>
<g id="g6333">
<path id="path6335" d="M8.88804 27.4987H4.62732" stroke="black" stroke-miterlimit="10" stroke-linecap="round" stroke-linejoin="round"/>
</g>
<g id="g6337">
<path id="path6339" d="M6.48569 31.1462H4.62732" stroke="black" stroke-miterlimit="10" stroke-linecap="round" stroke-linejoin="round"/>
</g>
</g>
</g>
</g>
</g>
</g>
</svg>
