<svg width="36" height="36" viewBox="0 0 36 36" fill="none" xmlns="http://www.w3.org/2000/svg">
<g id="busi 1" clip-path="url(#clip0_952_959)">
<g id="g9231">
<g id="g9233">
<g id="Clip path group">
<mask id="mask0_952_959" style="mask-type:luminance" maskUnits="userSpaceOnUse" x="0" y="0" width="36" height="36">
<g id="clipPath9239">
<path id="path9237" d="M0 3.8147e-06H36V36H0V3.8147e-06Z" fill="white"/>
</g>
</mask>
<g mask="url(#mask0_952_959)">
<g id="g9235">
<g id="g9241">
<path id="path9243" d="M30.2986 8.69513L27.7759 6.10988L32.6529 1.1288C33.0475 0.724435 33.6859 0.723029 34.0788 1.12564L35.179 2.25303C35.5718 2.65557 35.5704 3.30947 35.1758 3.71377L30.2986 8.69513Z" fill="#CBE1EF"/>
</g>
<g id="g9245">
<path id="path9247" d="M21.635 27.0477L9.88037 15.0022L12.2097 12.6155L23.9643 24.661L21.635 27.0477Z" fill="#A4C3D6"/>
</g>
<g id="g9249">
<path id="path9251" d="M18.3908 23.7232L13.1246 18.3267L15.4539 15.94L20.7201 21.3366L18.3908 23.7232Z" fill="#688EA6"/>
</g>
<g id="g9253">
<path id="path9255" d="M17.5536 26.7881L10.1335 19.1843L12.0476 17.2231L19.4677 24.8268L17.5536 26.7881Z" fill="#FF9D00"/>
</g>
<g id="g9257">
<path id="path9259" d="M20.8659 21.4859L15.3082 15.7906L19.4997 11.4959C19.8487 11.1384 20.3382 10.9603 20.8302 11.0118L21.3456 11.0659L25.5635 6.74404L25.5582 6.64117C25.4827 5.1786 27.2035 4.31278 28.2641 5.30207C28.2871 5.32359 28.3098 5.34574 28.3321 5.36859L31.0377 8.14115C31.128 8.23375 31.2073 8.33254 31.2756 8.4359C32.0152 9.55478 31.136 11.0562 29.8076 10.9841L29.6951 10.978L25.4772 15.2997L25.5319 15.8478C25.581 16.3402 25.41 16.8299 25.0659 17.1824L20.8659 21.4859Z" fill="#F5F0DC"/>
</g>
<g id="g9261">
<path id="path9263" d="M31.2756 8.43593C31.2073 8.3325 31.128 8.23378 31.0377 8.14118L29.6453 6.72101C29.7357 6.81368 29.8149 6.9124 29.8832 7.01583C30.6228 8.13464 29.7436 9.63603 28.4152 9.56396L28.3028 9.55784L24.0848 13.8796L24.1395 14.4277C24.1887 14.9201 24.0177 15.4098 23.6735 15.7624L19.4768 20.0624L20.8659 21.4859L25.0659 17.1825C25.4101 16.8299 25.5811 16.3401 25.5319 15.8478L25.4773 15.2997L29.6951 10.9779L29.8076 10.9841C31.136 11.0561 32.0152 9.55467 31.2756 8.43593Z" fill="#F5ECC6"/>
</g>
<g id="g9265">
<path id="path9267" d="M6.7271 34.9372L2.26282 30.3469L8.80455 23.664L13.2688 28.2542L6.7271 34.9372Z" fill="#A4C3D6"/>
</g>
<g id="g9269">
<path id="path9271" d="M13.334 29.8608L7.13423 23.5076C6.36839 22.7227 6.37113 21.4477 7.14042 20.6595L9.35695 18.3884L18.3304 27.5839L16.1142 29.8547C15.3448 30.6431 14.1 30.6458 13.334 29.8608Z" fill="#CBE1EF"/>
</g>
<g id="g9273">
<path id="path9275" d="M13.3149 29.8413L13.334 29.8608C14.1001 30.6458 15.3448 30.6431 16.1142 29.8546L18.3304 27.584L16.9489 26.1682L13.3149 29.8413Z" fill="#BADBEF"/>
</g>
<g id="g9277">
<path id="path9279" d="M21.7959 22.4412L14.3759 14.8375L15.3543 13.835C15.871 13.3055 16.707 13.3037 17.2214 13.8308L22.7788 19.5257C23.2931 20.0528 23.2913 20.9091 22.7746 21.4385L21.7959 22.4412Z" fill="#FF9D00"/>
</g>
<g id="g9281">
<path id="path9283" d="M32.2202 17.8567L30.5365 22.8894H33.741L27.925 29.9919L29.812 24.6737H26.6074L32.2202 17.8567Z" fill="#FFEE03"/>
</g>
<g id="g9285">
<path id="path9287" d="M7.8718 6.00815L6.1881 11.0408H9.39259L3.57662 18.1433L5.4636 12.8251H2.25903L7.8718 6.00815Z" fill="#FFEE03"/>
</g>
<g id="g9289">
<path id="path9291" d="M16.6913 21.9816L21.6351 27.0478L23.9644 24.661L12.2098 12.6155L9.88037 15.0022L14.7473 19.9896" stroke="black" stroke-width="0.5" stroke-miterlimit="10" stroke-linecap="round" stroke-linejoin="round"/>
</g>
<g id="g9293">
<path id="path9295" d="M18.3908 23.7232L20.7201 21.3366L15.4539 15.94L13.1246 18.3267" stroke="black" stroke-width="0.5" stroke-miterlimit="10" stroke-linecap="round" stroke-linejoin="round"/>
</g>
<g id="g9297">
<path id="path9299" d="M12.0477 17.2231L10.1335 19.1843L17.5537 26.788L19.4677 24.8268" stroke="black" stroke-width="0.5" stroke-miterlimit="10" stroke-linecap="round" stroke-linejoin="round"/>
</g>
<g id="g9301">
<path id="path9303" d="M31.0377 8.14117C32.1247 9.25506 31.2435 11.1108 29.6952 10.978L25.4773 15.2998L25.5319 15.8478C25.5811 16.3402 25.4101 16.8299 25.066 17.1824L22.7789 19.5258" stroke="black" stroke-width="0.5" stroke-miterlimit="10" stroke-linecap="round" stroke-linejoin="round"/>
</g>
<g id="g9305">
<path id="path9307" d="M17.2212 13.8306L19.4997 11.4959C19.8487 11.1384 20.3382 10.9603 20.8303 11.0118L21.3457 11.0659L25.5636 6.74405C25.4551 5.26932 27.224 4.23298 28.3321 5.3686" stroke="black" stroke-width="0.5" stroke-miterlimit="10" stroke-linecap="round" stroke-linejoin="round"/>
</g>
<g id="g9309">
<path id="path9311" d="M13.334 29.8608L7.13423 23.5076C6.36839 22.7227 6.37113 21.4477 7.14042 20.6595L9.35695 18.3884L18.3304 27.5839L16.1142 29.8547C15.3448 30.6431 14.1 30.6458 13.334 29.8608Z" stroke="black" stroke-width="0.5" stroke-miterlimit="10" stroke-linecap="round" stroke-linejoin="round"/>
</g>
<g id="g9313">
<path id="path9315" d="M6.72707 34.9372L2.25513 30.3546L7.99235 24.4762L12.4643 29.0587L6.72707 34.9372Z" stroke="black" stroke-width="0.5" stroke-miterlimit="10" stroke-linecap="round" stroke-linejoin="round"/>
</g>
<g id="g9317">
<path id="path9319" d="M4.16443 28.3817L8.64446 32.9726" stroke="black" stroke-width="0.5" stroke-miterlimit="10" stroke-linecap="round" stroke-linejoin="round"/>
</g>
<g id="g9321">
<path id="path9323" d="M6.07507 26.424L10.5551 31.015" stroke="black" stroke-width="0.5" stroke-miterlimit="10" stroke-linecap="round" stroke-linejoin="round"/>
</g>
<g id="g9325">
<path id="path9327" d="M2.25223 30.3516L1.02542 31.6086C0.363776 32.2866 0.360964 33.3829 1.01916 34.0574L2.1102 35.1754" stroke="black" stroke-width="0.5" stroke-miterlimit="10" stroke-linecap="round" stroke-linejoin="round"/>
</g>
<g id="g9329">
<path id="path9331" d="M21.7959 22.4412L14.3759 14.8375L15.3543 13.835C15.871 13.3055 16.707 13.3037 17.2214 13.8308L22.7788 19.5257C23.2931 20.0528 23.2913 20.9091 22.7746 21.4385L21.7959 22.4412Z" stroke="black" stroke-width="0.5" stroke-miterlimit="10" stroke-linecap="round" stroke-linejoin="round"/>
</g>
<g id="g9333">
<path id="path9335" d="M30.9462 8.04749L28.4235 5.46224L32.6528 1.12881C33.0474 0.724439 33.6859 0.723033 34.0787 1.12564L35.1789 2.25303C35.5717 2.6555 35.5703 3.30948 35.1758 3.71377L30.9462 8.04749Z" stroke="black" stroke-width="0.5" stroke-miterlimit="10" stroke-linecap="round" stroke-linejoin="round"/>
</g>
<g id="g9337">
<path id="path9339" d="M23.703 6.93093L29.5126 12.8844" stroke="black" stroke-width="0.5" stroke-miterlimit="10" stroke-linecap="round" stroke-linejoin="round"/>
</g>
<g id="g9341">
<path id="path9343" d="M21.802 8.87875L27.6116 14.8322" stroke="black" stroke-width="0.5" stroke-miterlimit="10" stroke-linecap="round" stroke-linejoin="round"/>
</g>
<g id="g9345">
<path id="path9347" d="M4.47637 32.6617L3.62805 33.5309" stroke="black" stroke-width="0.5" stroke-miterlimit="10" stroke-linecap="round" stroke-linejoin="round"/>
</g>
<g id="g9349">
<path id="path9351" d="M32.2202 17.8567L30.5365 22.8894H33.741L27.925 29.9919L29.812 24.6737H26.6074L32.2202 17.8567Z" stroke="black" stroke-width="0.5" stroke-miterlimit="10" stroke-linecap="round" stroke-linejoin="round"/>
</g>
<g id="g9353">
<path id="path9355" d="M3.87095 10.8673L2.25903 12.8251H5.46352L3.57655 18.1433L9.39259 11.0409H6.1881L7.8718 6.00819L5.63994 8.7188" stroke="black" stroke-width="0.5" stroke-miterlimit="10" stroke-linecap="round" stroke-linejoin="round"/>
</g>
</g>
</g>
</g>
</g>
</g>
</g>
<defs>
<clipPath id="clip0_952_959">
<rect width="36" height="36" fill="white"/>
</clipPath>
</defs>
</svg>
