<svg width="37" height="37" viewBox="0 0 37 37" fill="none" xmlns="http://www.w3.org/2000/svg">
<g id="ban mobil 2" clip-path="url(#clip0_952_1098)">
<g id="Layer_x0020_1">
<g id="_583666424">
<path id="Vector" d="M18.4892 36.9783C28.7004 36.9783 36.9783 28.7004 36.9783 18.4892C36.9783 8.27788 28.7004 0 18.4892 0C8.27788 0 0 8.27788 0 18.4892C0 28.7004 8.27788 36.9783 18.4892 36.9783Z" fill="#656B76"/>
<g id="Group">
<path id="Vector_2" fill-rule="evenodd" clip-rule="evenodd" d="M18.4891 0H19.0094V2.57938C19.0094 2.86116 18.7926 3.09959 18.4891 3.09959C18.2074 3.09959 17.9689 2.86116 17.9689 2.57938V0H18.4891Z" fill="#43454D"/>
<path id="Vector_3" fill-rule="evenodd" clip-rule="evenodd" d="M27.2894 2.21091C27.5929 2.38431 27.8963 2.55771 28.1998 2.75279L26.8992 4.98537C26.7692 5.2238 26.4441 5.3105 26.1839 5.15877C25.9455 5.02872 25.8588 4.70358 26.0105 4.46515L27.2894 2.21091Z" fill="#43454D"/>
<path id="Vector_4" fill-rule="evenodd" clip-rule="evenodd" d="M34.2472 8.80023C34.4423 9.10369 34.6157 9.38547 34.7674 9.7106L32.5349 10.9895C32.2964 11.1412 31.9713 11.0545 31.8196 10.7944C31.6895 10.5559 31.7762 10.2308 32.0146 10.0791L34.2472 8.80023Z" fill="#43454D"/>
<path id="Vector_5" fill-rule="evenodd" clip-rule="evenodd" d="M36.9783 17.969C37 18.1424 37 18.3158 37 18.4892C37 18.6626 37 18.836 36.9783 19.0094H34.3989C34.1172 19.0094 33.8787 18.7926 33.8787 18.4892C33.8787 18.2074 34.1172 17.969 34.3989 17.969H36.9783Z" fill="#43454D"/>
<path id="Vector_6" fill-rule="evenodd" clip-rule="evenodd" d="M34.7674 27.2894C34.6157 27.5929 34.4423 27.8963 34.2472 28.1998L32.0146 26.8992C31.7762 26.7692 31.6895 26.4441 31.8196 26.1839C31.9713 25.9455 32.2964 25.8588 32.5349 26.0105L34.7674 27.2894Z" fill="#43454D"/>
<path id="Vector_7" fill-rule="evenodd" clip-rule="evenodd" d="M28.1998 34.2472C27.8963 34.4423 27.5929 34.6157 27.2894 34.7674L26.0105 32.5349C25.8588 32.2964 25.9455 31.9713 26.1839 31.8196C26.4441 31.6895 26.7692 31.7762 26.8992 32.0146L28.1998 34.2472Z" fill="#43454D"/>
<path id="Vector_8" fill-rule="evenodd" clip-rule="evenodd" d="M19.0094 36.9783C18.836 37 18.6625 37 18.4891 37C18.3157 37 18.1423 37 17.9689 36.9783V34.3989C17.9689 34.1172 18.2074 33.8787 18.4891 33.8787C18.7926 33.8787 19.0094 34.1172 19.0094 34.3989V36.9783Z" fill="#43454D"/>
<path id="Vector_9" fill-rule="evenodd" clip-rule="evenodd" d="M9.7106 34.7674C9.38547 34.6157 9.10369 34.4423 8.80023 34.2472L10.0791 32.0146C10.2308 31.7762 10.5559 31.6895 10.7944 31.8196C11.0545 31.9713 11.1412 32.2964 10.9895 32.5349L9.7106 34.7674Z" fill="#43454D"/>
<path id="Vector_10" fill-rule="evenodd" clip-rule="evenodd" d="M2.75276 28.1998C2.55768 27.8963 2.38428 27.5929 2.21088 27.2894L4.46512 26.0105C4.70355 25.8588 5.02869 25.9455 5.15874 26.1839C5.31047 26.4441 5.22376 26.7692 4.98533 26.8992L2.75276 28.1998Z" fill="#43454D"/>
<path id="Vector_11" fill-rule="evenodd" clip-rule="evenodd" d="M0 19.0094C0 18.836 0 18.6626 0 18.4892C0 18.3158 0 18.1424 0 17.969H2.57938C2.86116 17.969 3.09959 18.2074 3.09959 18.4892C3.09959 18.7926 2.86116 19.0094 2.57938 19.0094H0Z" fill="#43454D"/>
<path id="Vector_12" fill-rule="evenodd" clip-rule="evenodd" d="M2.21088 9.7106C2.38428 9.38547 2.55768 9.10369 2.75276 8.80023L4.98533 10.0791C5.22376 10.2308 5.31047 10.5559 5.15874 10.7944C5.02869 11.0545 4.70355 11.1412 4.46512 10.9895L2.21088 9.7106Z" fill="#43454D"/>
<path id="Vector_13" fill-rule="evenodd" clip-rule="evenodd" d="M8.80023 2.75279C9.10369 2.55771 9.38547 2.38431 9.7106 2.21091L10.9895 4.46515C11.1412 4.70358 11.0545 5.02872 10.7944 5.15877C10.5559 5.3105 10.2308 5.2238 10.0791 4.98537L8.80023 2.75279Z" fill="#43454D"/>
</g>
<path id="Vector_14" d="M18.4892 31.8412C25.8633 31.8412 31.8412 25.8633 31.8412 18.4892C31.8412 11.115 25.8633 5.13708 18.4892 5.13708C11.115 5.13708 5.13708 11.115 5.13708 18.4892C5.13708 25.8633 11.115 31.8412 18.4892 31.8412Z" fill="#43454D"/>
<path id="Vector_15" d="M18.4891 30.8008C25.2887 30.8008 30.8008 25.2887 30.8008 18.4891C30.8008 11.6896 25.2887 6.17749 18.4891 6.17749C11.6896 6.17749 6.17749 11.6896 6.17749 18.4891C6.17749 25.2887 11.6896 30.8008 18.4891 30.8008Z" fill="#B1B8BD"/>
<path id="Vector_16" d="M18.4892 29.652C24.6542 29.652 29.652 24.6542 29.652 18.4892C29.652 12.3241 24.6542 7.32629 18.4892 7.32629C12.3241 7.32629 7.32629 12.3241 7.32629 18.4892C7.32629 24.6542 12.3241 29.652 18.4892 29.652Z" fill="#43454D"/>
<path id="Vector_17" d="M18.4891 28.4382C23.9838 28.4382 28.4382 23.9839 28.4382 18.4892C28.4382 12.9945 23.9838 8.54013 18.4891 8.54013C12.9944 8.54013 8.5401 12.9945 8.5401 18.4892C8.5401 23.9839 12.9944 28.4382 18.4891 28.4382Z" fill="#E9F1F2"/>
<path id="Vector_18" fill-rule="evenodd" clip-rule="evenodd" d="M18.4892 8.54013C19.0961 8.54013 19.6596 8.58348 20.2232 8.69186V14.9777L20.6784 15.2378L26.1189 12.0949C26.4874 12.5284 26.8125 13.0053 27.116 13.5255C27.4194 14.024 27.6579 14.5659 27.853 15.0861L22.4124 18.2291V18.4892V18.7493L27.853 21.8922C27.6579 22.4341 27.4194 22.9543 27.116 23.4745C26.8125 23.9947 26.4874 24.4499 26.1189 24.9051L20.6784 21.7622C20.5266 21.8489 20.3749 21.9356 20.2232 22.0223V28.3081C19.6596 28.3948 19.0961 28.4599 18.4892 28.4599C17.9039 28.4599 17.3187 28.3948 16.7551 28.3081V22.0223C16.6034 21.9356 16.4517 21.8489 16.3216 21.7622L10.8811 24.9051C10.5126 24.4499 10.1658 23.9947 9.884 23.4745C9.58054 22.9543 9.34211 22.4341 9.14703 21.8922L14.5876 18.7493C14.5876 18.6626 14.5876 18.5759 14.5876 18.4892C14.5876 18.4025 14.5876 18.3158 14.5876 18.2291L9.14703 15.0861C9.34211 14.5659 9.58054 14.024 9.884 13.5255C10.1658 13.0053 10.5126 12.5284 10.8811 12.0949L16.3216 15.2378C16.4517 15.1511 16.6034 15.0644 16.7551 14.9777V8.69186C17.3187 8.58348 17.9039 8.54013 18.4892 8.54013Z" fill="#81868A"/>
<path id="Vector_19" d="M18.4891 20.4833C19.5905 20.4833 20.4833 19.5905 20.4833 18.4892C20.4833 17.3878 19.5905 16.495 18.4891 16.495C17.3878 16.495 16.495 17.3878 16.495 18.4892C16.495 19.5905 17.3878 20.4833 18.4891 20.4833Z" fill="#E9F1F2"/>
</g>
</g>
</g>
<defs>
<clipPath id="clip0_952_1098">
<rect width="37" height="37" fill="white"/>
</clipPath>
</defs>
</svg>
